<?xml version="1.0" encoding="utf-8"?>
<!-- Generator: Adobe Illustrator 16.0.0, SVG Export Plug-In . SVG Version: 6.00 Build 0)  -->
<!DOCTYPE svg PUBLIC "-//W3C//DTD SVG 1.1//EN" "http://www.w3.org/Graphics/SVG/1.1/DTD/svg11.dtd">
<svg version="1.1" id="Layer_1" xmlns="http://www.w3.org/2000/svg" xmlns:xlink="http://www.w3.org/1999/xlink" x="0px" y="0px"
	 width="128px" height="128px" viewBox="0 0 128 128" enable-background="new 0 0 128 128" xml:space="preserve">
<polygon fill="#FFFFFF" points="68,36 60,36 60,60 36,60 36,68 60,68 60,92 68,92 68,68 92,68 92,60 68,60 "/>
<g>
	<defs>
		<rect id="SVGID_1_" width="128" height="128"/>
	</defs>
	<clipPath id="SVGID_2_">
		<use xlink:href="#SVGID_1_"  overflow="visible"/>
	</clipPath>
	<path clip-path="url(#SVGID_2_)" fill="#FFFFFF" d="M64,8C33.076,8,8,33.074,8,64s25.076,56,56,56c30.926,0,56-25.074,56-56
		S94.926,8,64,8 M64,116c-28.673,0-52-23.327-52-52s23.327-52,52-52s52,23.327,52,52S92.673,116,64,116"/>
</g>
</svg>
