<?xml version="1.0" encoding="utf-8"?>
<!-- Generator: Adobe Illustrator 16.0.0, SVG Export Plug-In . SVG Version: 6.00 Build 0)  -->
<!DOCTYPE svg PUBLIC "-//W3C//DTD SVG 1.1 Tiny//EN" "http://www.w3.org/Graphics/SVG/1.1/DTD/svg11-tiny.dtd">
<svg version="1.1" baseProfile="tiny" id="Layer_1" xmlns="http://www.w3.org/2000/svg" xmlns:xlink="http://www.w3.org/1999/xlink"
	 x="0px" y="0px" width="520px" height="520px" viewBox="0 0 520 520" xml:space="preserve">
<g>
	<circle fill="none" stroke="#F0522E" stroke-width="14" stroke-miterlimit="10" cx="-3672.43" cy="312.086" r="13"/>
	<circle fill="none" stroke="#F0522E" stroke-width="14" stroke-miterlimit="10" cx="-3672.43" cy="264.355" r="13"/>
	<circle fill="none" stroke="#F0522E" stroke-width="14" stroke-miterlimit="10" cx="-3672.43" cy="360.473" r="13"/>
	<g>
		<g>
			<g>
				<circle fill="none" stroke="#F0522E" stroke-width="14" stroke-miterlimit="10" cx="-3891.892" cy="204.502" r="31.451"/>
				<polyline fill="none" stroke="#F0522E" stroke-width="14" stroke-miterlimit="10" points="-3895.013,293.021 -3959.173,264.024 
					-3898.518,236.621 				"/>
				<polyline fill="none" stroke="#F0522E" stroke-width="14" stroke-miterlimit="10" points="-3821.338,218.918 -3837.532,264.684 
					-3891.042,239.337 				"/>
				<polyline fill="none" stroke="#F0522E" stroke-width="14" stroke-miterlimit="10" points="-3998.131,359.188 -3971.519,333.382 
					-3932.809,374.511 -3892.229,233.851 				"/>
				<polyline fill="none" stroke="#F0522E" stroke-width="14" stroke-miterlimit="10" points="-3882.001,430.155 -3922.616,430.155 
					-3892.229,371.284 -3922.616,339.176 				"/>
				<circle fill="#F0522E" cx="-3892.013" cy="294.021" r="13"/>
			</g>
			<circle fill="#F0522E" cx="-3821.338" cy="218.918" r="13"/>
		</g>
		<circle fill="none" cx="-3903.233" cy="281.021" r="178.523"/>
		
			<text transform="matrix(0.9691 -1.145 0.7633 0.646 -4054.7642 183.7119)" fill="#F0522E" font-family="'MyriadPro-Bold'" font-size="60">F</text>
		
			<text transform="matrix(1.1711 -0.9374 0.6249 0.7807 -4024.7026 149.5342)" fill="#F0522E" font-family="'MyriadPro-Bold'" font-size="60">I</text>
		
			<text transform="matrix(1.334 -0.6859 0.4573 0.8893 -4006.8687 133.5127)" fill="#F0522E" font-family="'MyriadPro-Bold'" font-size="60">T</text>
		
			<text transform="matrix(1.4652 -0.321 0.214 0.9768 -3967.7212 112.3872)" fill="#F0522E" font-family="'MyriadPro-Bold'" font-size="60">C</text>
		
			<text transform="matrix(1.494 0.1342 -0.0894 0.996 -3918.0347 100.4043)" fill="#F0522E" font-family="'MyriadPro-Bold'" font-size="60">H</text>
		
			<text transform="matrix(1.3745 0.6006 -0.4004 0.9164 -3858.9541 105.5278)" fill="#F0522E" font-family="'MyriadPro-Bold'" font-size="60">A</text>
		
			<text transform="matrix(1.2072 0.8903 -0.5935 0.8048 -3807.5723 129.748)" fill="#F0522E" font-family="'MyriadPro-Bold'" font-size="60">I</text>
		
			<text transform="matrix(0.9702 1.144 -0.7627 0.6468 -3787.0312 141.9814)" fill="#F0522E" font-family="'MyriadPro-Bold'" font-size="60">N</text>
		<g>
			<g>
				
					<line fill="none" stroke="#F0522E" stroke-width="14" stroke-linecap="round" stroke-miterlimit="10" x1="-4040.104" y1="312.414" x2="-4119.137" y2="312.414"/>
				<circle fill="none" stroke="#F0522E" stroke-width="14" stroke-miterlimit="10" cx="-4133.137" cy="312.414" r="13"/>
			</g>
			<g>
				
					<line fill="none" stroke="#F0522E" stroke-width="14" stroke-linecap="round" stroke-miterlimit="10" x1="-4041.008" y1="264.684" x2="-4120.04" y2="264.684"/>
				<circle fill="none" stroke="#F0522E" stroke-width="14" stroke-miterlimit="10" cx="-4134.04" cy="264.684" r="13"/>
			</g>
			<g>
				
					<line fill="none" stroke="#F0522E" stroke-width="14" stroke-linecap="round" stroke-miterlimit="10" x1="-4041.008" y1="360.801" x2="-4120.04" y2="360.801"/>
				<circle fill="none" stroke="#F0522E" stroke-width="14" stroke-miterlimit="10" cx="-4134.04" cy="360.801" r="13"/>
			</g>
		</g>
		
			<line fill="none" stroke="#F0522E" stroke-width="14" stroke-linecap="round" stroke-miterlimit="10" x1="-3765.462" y1="312.086" x2="-3686.43" y2="312.086"/>
		
			<line fill="none" stroke="#F0522E" stroke-width="14" stroke-linecap="round" stroke-miterlimit="10" x1="-3765.462" y1="264.355" x2="-3686.43" y2="264.355"/>
		
			<line fill="none" stroke="#F0522E" stroke-width="14" stroke-linecap="round" stroke-miterlimit="10" x1="-3765.462" y1="360.473" x2="-3686.43" y2="360.473"/>
		<g>
			<path fill="none" stroke="#F0522E" stroke-width="14.8492" stroke-linecap="round" stroke-miterlimit="10" d="M-4053.234,452.655
				c82.909,82.911,217.09,82.911,300,0"/>
			
				<circle fill="none" stroke="#F0522E" stroke-width="18.5618" stroke-linecap="round" stroke-miterlimit="10" cx="-3905.121" cy="514.837" r="15.91"/>
			<path fill="none" stroke="#F0522E" stroke-width="18.5615" stroke-linecap="round" stroke-miterlimit="10" d="M-3800.46,496.43
				c0,8.789-7.123,15.909-15.911,15.909c-8.789,0-15.909-7.12-15.909-15.909c0-8.783,7.12-15.909,15.909-15.909
				C-3807.583,480.521-3800.46,487.646-3800.46,496.43z"/>
			
				<circle fill="none" stroke="#F0522E" stroke-width="18.5615" stroke-linecap="round" stroke-miterlimit="10" cx="-3991.159" cy="496.431" r="15.91"/>
		</g>
	</g>
</g>
<rect x="-3311.235" y="62.021" fill="#FFFFFF" width="520" height="520"/>
<g>
	<g>
		<g>
			<circle fill="#FFFFFF" stroke="#F0522E" stroke-width="14" stroke-miterlimit="10" cx="-3039.892" cy="214.522" r="31.452"/>
			<polyline fill="none" stroke="#F0522E" stroke-width="14" stroke-miterlimit="10" points="-3043.013,303.041 -3107.174,274.045 
				-3046.518,246.642 			"/>
			<polyline fill="none" stroke="#F0522E" stroke-width="14" stroke-miterlimit="10" points="-2969.338,228.938 -2985.532,274.704 
				-3039.041,249.357 			"/>
			<polyline fill="none" stroke="#F0522E" stroke-width="14" stroke-miterlimit="10" points="-3146.131,369.208 -3119.52,343.402 
				-3080.809,384.531 -3040.229,243.871 			"/>
			<polyline fill="none" stroke="#F0522E" stroke-width="14" stroke-miterlimit="10" points="-3030.001,440.176 -3070.615,440.176 
				-3040.229,381.305 -3070.615,349.196 			"/>
			<circle fill="#F0522E" cx="-3040.013" cy="304.041" r="13"/>
		</g>
		<circle fill="#F0522E" cx="-2969.338" cy="228.938" r="13"/>
	</g>
	<path fill="none" d="M-2873.389,275.481c8.594,98.22-64.066,184.811-162.285,193.405c-98.222,8.591-184.811-64.067-193.403-162.288
		c-8.595-98.221,64.062-184.811,162.283-193.402C-2968.57,104.603-2881.982,177.26-2873.389,275.481z"/>
	
		<text transform="matrix(1.0584 -1.0629 0.7086 0.7056 -3193.582 180.9751)" fill="#F0522E" font-family="'ArialNarrow-Bold'" font-size="60">F</text>
	
		<text transform="matrix(1.226 -0.8642 0.5762 0.8173 -3162.3613 150.917)" fill="#F0522E" font-family="'ArialNarrow-Bold'" font-size="60">I</text>
	
		<text transform="matrix(1.3575 -0.6381 0.4254 0.905 -3147.5879 139.0132)" fill="#F0522E" font-family="'ArialNarrow-Bold'" font-size="60">T</text>
	
		<text transform="matrix(1.4764 -0.2653 0.1769 0.9842 -3109.2305 120.0664)" fill="#F0522E" font-family="'ArialNarrow-Bold'" font-size="60">C</text>
	
		<text transform="matrix(1.4922 0.1531 -0.1021 0.9948 -3059.3066 110.7183)" fill="#F0522E" font-family="'ArialNarrow-Bold'" font-size="60">H</text>
	
		<text transform="matrix(1.3895 0.5651 -0.3767 0.9263 -3008.7676 115.5469)" fill="#F0522E" font-family="'ArialNarrow-Bold'" font-size="60">A</text>
	
		<text transform="matrix(1.2534 0.824 -0.5494 0.8356 -2961.832 136.1587)" fill="#F0522E" font-family="'ArialNarrow-Bold'" font-size="60">I</text>
	
		<text transform="matrix(1.0705 1.0507 -0.7005 0.7137 -2945.1328 145.0293)" fill="#F0522E" font-family="'ArialNarrow-Bold'" font-size="60">N</text>
	<g>
		<g>
			
				<line fill="none" stroke="#F0522E" stroke-width="14" stroke-linecap="round" stroke-miterlimit="10" x1="-3190.104" y1="322.435" x2="-3269.137" y2="322.435"/>
			<circle fill="none" stroke="#F0522E" stroke-width="14" stroke-miterlimit="10" cx="-3281.137" cy="322.435" r="12"/>
		</g>
		<g>
			
				<line fill="none" stroke="#F0522E" stroke-width="14" stroke-linecap="round" stroke-miterlimit="10" x1="-3191.008" y1="274.704" x2="-3270.04" y2="274.704"/>
			<circle fill="none" stroke="#F0522E" stroke-width="14" stroke-miterlimit="10" cx="-3282.04" cy="274.704" r="12"/>
		</g>
		<g>
			
				<line fill="none" stroke="#F0522E" stroke-width="14" stroke-linecap="round" stroke-miterlimit="10" x1="-3191.008" y1="370.821" x2="-3270.04" y2="370.821"/>
			<circle fill="none" stroke="#F0522E" stroke-width="14" stroke-miterlimit="10" cx="-3282.04" cy="370.821" r="12"/>
		</g>
	</g>
	
		<line fill="none" stroke="#F0522E" stroke-width="14" stroke-linecap="round" stroke-miterlimit="10" x1="-2911.462" y1="322.106" x2="-2832.43" y2="322.106"/>
	<circle fill="none" stroke="#F0522E" stroke-width="14" stroke-miterlimit="10" cx="-2820.43" cy="322.106" r="12"/>
	
		<line fill="none" stroke="#F0522E" stroke-width="14" stroke-linecap="round" stroke-miterlimit="10" x1="-2911.462" y1="274.376" x2="-2832.43" y2="274.376"/>
	<circle fill="none" stroke="#F0522E" stroke-width="14" stroke-miterlimit="10" cx="-2820.43" cy="274.376" r="12"/>
	
		<line fill="none" stroke="#F0522E" stroke-width="14" stroke-linecap="round" stroke-miterlimit="10" x1="-2911.462" y1="370.493" x2="-2832.43" y2="370.493"/>
	<circle fill="none" stroke="#F0522E" stroke-width="14" stroke-miterlimit="10" cx="-2820.43" cy="370.493" r="12"/>
	<path fill="none" stroke="#F0522E" stroke-width="14" stroke-linecap="round" stroke-miterlimit="10" d="M-3192.656,460.908
		c78.168,78.169,204.675,78.169,282.843,0"/>
	
		<circle fill="none" stroke="#F0522E" stroke-width="14" stroke-linecap="round" stroke-miterlimit="10" cx="-3053.014" cy="519.534" r="12"/>
	
		<circle fill="none" stroke="#F0522E" stroke-width="14" stroke-linecap="round" stroke-miterlimit="10" cx="-2969.338" cy="502.18" r="12"/>
	
		<circle fill="none" stroke="#F0522E" stroke-width="14" stroke-linecap="round" stroke-miterlimit="10" cx="-3134.131" cy="502.181" r="12"/>
</g>
<circle fill="none" stroke="#CE1C64" stroke-width="14" stroke-miterlimit="10" cx="-2140.43" cy="272.479" r="13"/>
<circle fill="none" stroke="#CE1C64" stroke-width="14" stroke-miterlimit="10" cx="-2140.43" cy="224.749" r="13"/>
<circle fill="none" stroke="#CE1C64" stroke-width="14" stroke-miterlimit="10" cx="-2140.43" cy="320.866" r="13"/>
<g>
	<g>
		<circle fill="none" stroke="#CE1C64" stroke-width="14" stroke-miterlimit="10" cx="-2359.893" cy="164.895" r="31.451"/>
		<polyline fill="none" stroke="#CE1C64" stroke-width="14" stroke-miterlimit="10" points="-2363.014,253.414 -2427.174,224.417 
			-2366.518,197.014 		"/>
		<polyline fill="none" stroke="#CE1C64" stroke-width="14" stroke-miterlimit="10" points="-2289.338,179.311 -2305.533,225.077 
			-2359.041,199.73 		"/>
		<polyline fill="none" stroke="#CE1C64" stroke-width="14" stroke-miterlimit="10" points="-2466.131,319.581 -2439.52,293.775 
			-2400.809,334.904 -2360.23,194.244 		"/>
		<polyline fill="none" stroke="#CE1C64" stroke-width="14" stroke-miterlimit="10" points="-2350.002,390.548 -2390.615,390.548 
			-2360.23,331.677 -2390.615,299.569 		"/>
		<circle fill="#CE1C64" cx="-2360.014" cy="254.414" r="13"/>
	</g>
	<circle fill="#CE1C64" cx="-2289.338" cy="179.311" r="13"/>
</g>
<g>
	<path fill="#CE1C65" d="M-2549.799,113.445l23.952-28.303l5.726,4.845l-15.057,17.792l7.053,5.97l14.069-16.624l5.68,4.807
		l-14.069,16.624l12.413,10.505l-8.896,10.51L-2549.799,113.445z"/>
	<path fill="#CE1C65" d="M-2502.588,66.039l25.273,31.572l-10.751,8.604l-25.272-31.572L-2502.588,66.039z"/>
	<path fill="#CE1C65" d="M-2474.157,56.706l-14.487,7.448l-3.511-6.83l41.46-21.316l3.511,6.83l-14.728,7.571l14.977,29.135
		l-12.246,6.296L-2474.157,56.706z"/>
	<path fill="#CE1C65" d="M-2386.648,60.858c-2.281,1.36-7.627,3.454-14.835,5.033c-20.483,4.489-32.895-1.697-35.361-12.951
		c-2.954-13.48,9.818-24.142,27.752-28.073c6.945-1.521,12.426-1.74,14.979-1.44l-1.172,7.689c-2.892-0.164-6.826-0.04-11.573,1.001
		c-10.637,2.331-17.963,8.421-16.037,17.212c1.735,7.913,9.859,11.353,21.815,8.733c4.043-0.886,8.398-2.455,10.882-3.736
		L-2386.648,60.858z"/>
	<path fill="#CE1C65" d="M-2362.791,22.282l-1.388,15.478l22.5,2.021l1.388-15.478l13.627,1.225l-3.611,40.279l-13.627-1.225
		l1.512-16.852l-22.501-2.022l-1.512,16.853l-13.715-1.232l3.612-40.279L-2362.791,22.282z"/>
	<path fill="#CE1C65" d="M-2304.406,64.444l-8.114,7.782l-13.031-5.693l33.181-29.634l16.495,7.206l1.047,44.586l-13.526-5.909
		l-0.133-11.385L-2304.406,64.444z M-2287.563,64.337l-0.029-9.375c-0.029-2.631,0.182-5.813,0.317-8.372l-0.164-0.072
		c-1.786,1.838-3.836,4.282-5.68,6.03l-6.734,6.42L-2287.563,64.337z"/>
	<path fill="#CE1C65" d="M-2235.705,69.296l-24.004,32.544l-11.082-8.173l24.003-32.543L-2235.705,69.296z"/>
	<path fill="#CE1C65" d="M-2251.189,106.905l30.842-26.157l10.362,12.219l-3.153,19.196c-0.92,5.501-2.435,11.508-4.166,16.516
		l0.175,0.207c3.49-4.141,7.48-7.878,12.101-11.798l9.016-7.645l8.15,9.61l-30.843,26.157l-9.314-10.983l3.515-19.976
		c0.967-5.54,2.386-11.938,4.08-17.269l-0.221-0.167c-3.84,3.729-8.07,7.553-13.104,11.821l-9.289,7.879L-2251.189,106.905z"/>
</g>
<g>
	
		<line fill="none" stroke="#CE1C64" stroke-width="14" stroke-linecap="round" stroke-miterlimit="10" x1="-2508.105" y1="272.807" x2="-2587.137" y2="272.807"/>
	<circle fill="none" stroke="#CE1C64" stroke-width="14" stroke-miterlimit="10" cx="-2601.137" cy="272.807" r="13"/>
</g>
<g>
	
		<line fill="none" stroke="#CE1C64" stroke-width="14" stroke-linecap="round" stroke-miterlimit="10" x1="-2509.008" y1="225.077" x2="-2588.041" y2="225.077"/>
	<circle fill="none" stroke="#CE1C64" stroke-width="14" stroke-miterlimit="10" cx="-2602.041" cy="225.077" r="13"/>
</g>
<g>
	
		<line fill="none" stroke="#CE1C64" stroke-width="14" stroke-linecap="round" stroke-miterlimit="10" x1="-2509.008" y1="321.194" x2="-2588.041" y2="321.194"/>
	<circle fill="none" stroke="#CE1C64" stroke-width="14" stroke-miterlimit="10" cx="-2602.041" cy="321.194" r="13"/>
</g>
<line fill="none" stroke="#CE1C64" stroke-width="14" stroke-linecap="round" stroke-miterlimit="10" x1="-2233.463" y1="272.479" x2="-2154.43" y2="272.479"/>
<line fill="none" stroke="#CE1C64" stroke-width="14" stroke-linecap="round" stroke-miterlimit="10" x1="-2233.463" y1="224.749" x2="-2154.43" y2="224.749"/>
<line fill="none" stroke="#CE1C64" stroke-width="14" stroke-linecap="round" stroke-miterlimit="10" x1="-2233.463" y1="320.866" x2="-2154.43" y2="320.866"/>
<g>
	<path fill="none" stroke="#CE1C64" stroke-width="14.8492" stroke-linecap="round" stroke-miterlimit="10" d="M-2521.234,413.048
		c82.908,82.911,217.09,82.911,300,0"/>
	
		<circle fill="none" stroke="#CE1C64" stroke-width="18.5618" stroke-linecap="round" stroke-miterlimit="10" cx="-2373.121" cy="475.229" r="15.91"/>
	<path fill="none" stroke="#CE1C64" stroke-width="18.5615" stroke-linecap="round" stroke-miterlimit="10" d="M-2268.461,456.823
		c0,8.79-7.123,15.909-15.91,15.909c-8.789,0-15.91-7.119-15.91-15.909c0-8.783,7.121-15.908,15.91-15.908
		C-2275.584,440.915-2268.461,448.04-2268.461,456.823z"/>
	
		<circle fill="none" stroke="#CE1C64" stroke-width="18.5615" stroke-linecap="round" stroke-miterlimit="10" cx="-2459.16" cy="456.824" r="15.91"/>
</g>
<g>
	
		<line fill="none" stroke="#025960" stroke-width="3.0191" stroke-linecap="round" stroke-miterlimit="10" x1="-2025.168" y1="259.396" x2="-2045.052" y2="259.396"/>
	<circle fill="none" stroke="#025960" stroke-width="3.0191" stroke-miterlimit="10" cx="-2048.574" cy="259.396" r="3.271"/>
	<path fill="none" stroke="#025960" stroke-width="3.0191" stroke-linecap="round" stroke-miterlimit="10" d="M-2025.395,247.388
		h-19.885"/>
	<circle fill="none" stroke="#025960" stroke-width="3.0191" stroke-miterlimit="10" cx="-2048.802" cy="247.388" r="3.271"/>
	
		<line fill="none" stroke="#025960" stroke-width="3.0191" stroke-linecap="round" stroke-miterlimit="10" x1="-2025.395" y1="271.57" x2="-2045.279" y2="271.57"/>
	<circle fill="none" stroke="#025960" stroke-width="3.0191" stroke-miterlimit="10" cx="-2048.802" cy="271.57" r="3.271"/>
</g>
<text transform="matrix(1.5 0 0 1 -2013.3809 271.6699)" fill="#CE1C65" font-family="'Arial-BoldMT'" font-size="34.002">FITCHAIN</text>
<g>
	
		<line fill="none" stroke="#025960" stroke-width="3.0191" stroke-linecap="round" stroke-miterlimit="10" x1="-1767.072" y1="259.314" x2="-1747.188" y2="259.314"/>
	<circle fill="none" stroke="#025960" stroke-width="3.0191" stroke-miterlimit="10" cx="-1743.667" cy="259.314" r="3.271"/>
	<path fill="none" stroke="#025960" stroke-width="3.0191" stroke-linecap="round" stroke-miterlimit="10" d="M-1746.961,247.305
		h-19.885"/>
	<circle fill="none" stroke="#025960" stroke-width="3.0191" stroke-miterlimit="10" cx="-1743.438" cy="247.305" r="3.271"/>
	
		<line fill="none" stroke="#025960" stroke-width="3.0191" stroke-linecap="round" stroke-miterlimit="10" x1="-1766.846" y1="271.488" x2="-1746.961" y2="271.488"/>
	<circle fill="none" stroke="#025960" stroke-width="3.0191" stroke-miterlimit="10" cx="-1743.438" cy="271.488" r="3.271"/>
</g>
<circle fill="none" stroke="#FFFFFF" stroke-width="14" stroke-miterlimit="10" cx="-589.194" cy="271.225" r="13"/>
<circle fill="none" stroke="#FFFFFF" stroke-width="14" stroke-miterlimit="10" cx="-589.194" cy="223.495" r="13"/>
<circle fill="none" stroke="#FFFFFF" stroke-width="14" stroke-miterlimit="10" cx="-589.194" cy="319.612" r="13"/>
<g>
	<g>
		<circle fill="none" stroke="#FFFFFF" stroke-width="14" stroke-miterlimit="10" cx="-808.657" cy="163.641" r="31.451"/>
		<polyline fill="none" stroke="#FFFFFF" stroke-width="14" stroke-miterlimit="10" points="-811.778,252.16 -875.938,223.164 
			-815.282,195.76 		"/>
		<polyline fill="none" stroke="#FFFFFF" stroke-width="14" stroke-miterlimit="10" points="-738.103,178.057 -754.298,223.823 
			-807.806,198.476 		"/>
		<polyline fill="none" stroke="#FFFFFF" stroke-width="14" stroke-miterlimit="10" points="-914.896,318.327 -888.284,292.521 
			-849.573,333.65 -808.995,192.99 		"/>
		<polyline fill="none" stroke="#FFFFFF" stroke-width="14" stroke-miterlimit="10" points="-798.767,389.295 -839.38,389.295 
			-808.995,330.423 -839.38,298.315 		"/>
		<circle fill="#FFFFFF" cx="-808.778" cy="253.16" r="13"/>
	</g>
	<circle fill="#FFFFFF" cx="-738.103" cy="178.057" r="13"/>
</g>
<g>
	<path fill="#FFFFFF" d="M-998.563,112.191l23.952-28.303l5.726,4.845l-15.057,17.792l7.053,5.97l14.069-16.624l5.68,4.807
		l-14.069,16.624l12.413,10.505l-8.896,10.51L-998.563,112.191z"/>
	<path fill="#FFFFFF" d="M-951.353,64.785l25.273,31.572l-10.751,8.604l-25.272-31.572L-951.353,64.785z"/>
	<path fill="#FFFFFF" d="M-922.922,55.452l-14.487,7.448l-3.511-6.83l41.46-21.316l3.511,6.83l-14.728,7.571l14.977,29.135
		l-12.246,6.296L-922.922,55.452z"/>
	<path fill="#FFFFFF" d="M-835.413,59.604c-2.281,1.36-7.627,3.454-14.835,5.033c-20.483,4.489-32.895-1.697-35.361-12.951
		c-2.954-13.48,9.818-24.142,27.752-28.073c6.945-1.521,12.426-1.74,14.979-1.44l-1.172,7.689c-2.892-0.164-6.826-0.04-11.573,1.001
		c-10.637,2.331-17.963,8.421-16.037,17.212c1.735,7.913,9.859,11.353,21.815,8.733c4.043-0.886,8.398-2.455,10.882-3.736
		L-835.413,59.604z"/>
	<path fill="#FFFFFF" d="M-811.556,21.028l-1.388,15.478l22.5,2.021l1.388-15.478l13.627,1.225l-3.611,40.279l-13.627-1.225
		l1.512-16.852l-22.501-2.022l-1.512,16.853l-13.715-1.232l3.612-40.279L-811.556,21.028z"/>
	<path fill="#FFFFFF" d="M-753.171,63.19l-8.114,7.782l-13.031-5.693l33.181-29.634l16.495,7.206l1.047,44.586l-13.526-5.909
		l-0.133-11.385L-753.171,63.19z M-736.328,63.083l-0.029-9.375c-0.029-2.631,0.182-5.813,0.317-8.372l-0.164-0.072
		c-1.786,1.838-3.836,4.282-5.68,6.03l-6.734,6.42L-736.328,63.083z"/>
	<path fill="#FFFFFF" d="M-684.47,68.042l-24.004,32.544l-11.082-8.173l24.003-32.543L-684.47,68.042z"/>
	<path fill="#FFFFFF" d="M-699.954,105.651l30.842-26.157l10.362,12.219l-3.153,19.196c-0.92,5.501-2.435,11.508-4.166,16.516
		l0.175,0.207c3.49-4.141,7.48-7.878,12.101-11.798l9.016-7.645l8.15,9.61l-30.843,26.157l-9.314-10.983l3.515-19.976
		c0.967-5.54,2.386-11.938,4.08-17.269l-0.221-0.167c-3.84,3.729-8.07,7.553-13.104,11.821l-9.289,7.879L-699.954,105.651z"/>
</g>
<g>
	
		<line fill="none" stroke="#FFFFFF" stroke-width="14" stroke-linecap="round" stroke-miterlimit="10" x1="-956.87" y1="271.553" x2="-1035.901" y2="271.553"/>
	<circle fill="none" stroke="#FFFFFF" stroke-width="14" stroke-miterlimit="10" cx="-1049.901" cy="271.553" r="13"/>
</g>
<g>
	
		<line fill="none" stroke="#FFFFFF" stroke-width="14" stroke-linecap="round" stroke-miterlimit="10" x1="-957.772" y1="223.823" x2="-1036.806" y2="223.823"/>
	<circle fill="none" stroke="#FFFFFF" stroke-width="14" stroke-miterlimit="10" cx="-1050.806" cy="223.823" r="13"/>
</g>
<g>
	
		<line fill="none" stroke="#FFFFFF" stroke-width="14" stroke-linecap="round" stroke-miterlimit="10" x1="-957.772" y1="319.94" x2="-1036.806" y2="319.94"/>
	<circle fill="none" stroke="#FFFFFF" stroke-width="14" stroke-miterlimit="10" cx="-1050.806" cy="319.94" r="13"/>
</g>
<line fill="none" stroke="#FFFFFF" stroke-width="14" stroke-linecap="round" stroke-miterlimit="10" x1="-682.228" y1="271.225" x2="-603.194" y2="271.225"/>
<line fill="none" stroke="#FFFFFF" stroke-width="14" stroke-linecap="round" stroke-miterlimit="10" x1="-682.228" y1="223.495" x2="-603.194" y2="223.495"/>
<line fill="none" stroke="#FFFFFF" stroke-width="14" stroke-linecap="round" stroke-miterlimit="10" x1="-682.228" y1="319.612" x2="-603.194" y2="319.612"/>
<g>
	<path fill="none" stroke="#FFFFFF" stroke-width="14.8492" stroke-linecap="round" stroke-miterlimit="10" d="M-969.999,411.795
		c82.908,82.91,217.09,82.91,300,0"/>
	
		<circle fill="none" stroke="#FFFFFF" stroke-width="18.5618" stroke-linecap="round" stroke-miterlimit="10" cx="-821.886" cy="473.976" r="15.91"/>
	<path fill="none" stroke="#FFFFFF" stroke-width="18.5615" stroke-linecap="round" stroke-miterlimit="10" d="M-717.226,455.568
		c0,8.79-7.123,15.909-15.91,15.909c-8.789,0-15.91-7.119-15.91-15.909c0-8.783,7.121-15.908,15.91-15.908
		C-724.349,439.66-717.226,446.785-717.226,455.568z"/>
	
		<circle fill="none" stroke="#FFFFFF" stroke-width="18.5615" stroke-linecap="round" stroke-miterlimit="10" cx="-907.925" cy="455.57" r="15.91"/>
</g>
<circle fill="none" stroke="#99D8DF" stroke-width="14" stroke-miterlimit="10" cx="-48.268" cy="271.544" r="13"/>
<circle fill="none" stroke="#99D8DF" stroke-width="14" stroke-miterlimit="10" cx="-48.268" cy="223.814" r="13"/>
<circle fill="none" stroke="#99D8DF" stroke-width="14" stroke-miterlimit="10" cx="-48.268" cy="319.931" r="13"/>
<g>
	<g>
		<circle fill="none" stroke="#99D8DF" stroke-width="14" stroke-miterlimit="10" cx="-267.73" cy="163.96" r="31.451"/>
		<polyline fill="none" stroke="#99D8DF" stroke-width="14" stroke-miterlimit="10" points="-270.852,252.479 -335.012,223.483 
			-274.355,196.08 		"/>
		<polyline fill="none" stroke="#99D8DF" stroke-width="14" stroke-miterlimit="10" points="-197.176,178.376 -213.371,224.142 
			-266.879,198.795 		"/>
		<polyline fill="none" stroke="#99D8DF" stroke-width="14" stroke-miterlimit="10" points="-373.969,318.646 -347.357,292.84 
			-308.646,333.969 -268.068,193.309 		"/>
		<polyline fill="none" stroke="#99D8DF" stroke-width="14" stroke-miterlimit="10" points="-257.84,389.614 -298.453,389.614 
			-268.068,330.743 -298.453,298.634 		"/>
		<circle fill="#99D8DF" cx="-267.852" cy="253.479" r="13"/>
	</g>
	<circle fill="#99D8DF" cx="-197.176" cy="178.376" r="13"/>
</g>
<g>
	<path fill="#223843" d="M-457.637,112.511l23.952-28.303l5.726,4.845l-15.057,17.792l7.053,5.97l14.069-16.624l5.68,4.807
		l-14.069,16.624l12.413,10.505l-8.896,10.51L-457.637,112.511z"/>
	<path fill="#223843" d="M-410.426,65.104l25.273,31.572l-10.751,8.604l-25.272-31.572L-410.426,65.104z"/>
	<path fill="#223843" d="M-381.995,55.771l-14.487,7.448l-3.511-6.83l41.46-21.316l3.511,6.83l-14.728,7.571l14.977,29.135
		l-12.246,6.296L-381.995,55.771z"/>
	<path fill="#223843" d="M-294.486,59.924c-2.281,1.36-7.627,3.454-14.835,5.033c-20.483,4.489-32.895-1.697-35.361-12.951
		c-2.954-13.48,9.818-24.142,27.752-28.073c6.945-1.521,12.426-1.74,14.979-1.44l-1.172,7.689c-2.892-0.164-6.826-0.04-11.573,1.001
		c-10.637,2.331-17.963,8.421-16.037,17.212c1.735,7.913,9.859,11.353,21.815,8.733c4.043-0.886,8.398-2.455,10.882-3.736
		L-294.486,59.924z"/>
	<path fill="#223843" d="M-270.629,21.348l-1.388,15.478l22.5,2.021l1.388-15.478l13.627,1.225l-3.611,40.279l-13.627-1.225
		l1.512-16.852l-22.501-2.022l-1.512,16.853l-13.715-1.232l3.612-40.279L-270.629,21.348z"/>
	<path fill="#223843" d="M-212.244,63.51l-8.114,7.782l-13.031-5.693l33.181-29.634l16.495,7.206l1.047,44.586l-13.526-5.909
		l-0.133-11.385L-212.244,63.51z M-195.401,63.403l-0.029-9.375c-0.029-2.631,0.182-5.813,0.317-8.372l-0.164-0.072
		c-1.786,1.838-3.836,4.282-5.68,6.03l-6.734,6.42L-195.401,63.403z"/>
	<path fill="#223843" d="M-143.543,68.362l-24.004,32.544l-11.082-8.173l24.003-32.543L-143.543,68.362z"/>
	<path fill="#223843" d="M-159.027,105.971l30.842-26.157l10.362,12.219l-3.153,19.196c-0.92,5.501-2.435,11.508-4.166,16.516
		l0.175,0.207c3.49-4.141,7.48-7.878,12.101-11.798l9.016-7.645l8.15,9.61l-30.843,26.157l-9.314-10.983l3.515-19.976
		c0.967-5.54,2.386-11.938,4.08-17.269l-0.221-0.167c-3.84,3.729-8.07,7.553-13.104,11.821l-9.289,7.879L-159.027,105.971z"/>
</g>
<g>
	
		<line fill="none" stroke="#99D8DF" stroke-width="14" stroke-linecap="round" stroke-miterlimit="10" x1="-415.943" y1="271.873" x2="-494.975" y2="271.873"/>
	<circle fill="none" stroke="#99D8DF" stroke-width="14" stroke-miterlimit="10" cx="-508.975" cy="271.873" r="13"/>
</g>
<g>
	
		<line fill="none" stroke="#99D8DF" stroke-width="14" stroke-linecap="round" stroke-miterlimit="10" x1="-416.846" y1="224.142" x2="-495.879" y2="224.142"/>
	<circle fill="none" stroke="#99D8DF" stroke-width="14" stroke-miterlimit="10" cx="-509.879" cy="224.142" r="13"/>
</g>
<g>
	
		<line fill="none" stroke="#99D8DF" stroke-width="14" stroke-linecap="round" stroke-miterlimit="10" x1="-416.846" y1="320.259" x2="-495.879" y2="320.259"/>
	<circle fill="none" stroke="#99D8DF" stroke-width="14" stroke-miterlimit="10" cx="-509.879" cy="320.259" r="13"/>
</g>
<line fill="none" stroke="#99D8DF" stroke-width="14" stroke-linecap="round" stroke-miterlimit="10" x1="-141.301" y1="271.544" x2="-62.268" y2="271.544"/>
<line fill="none" stroke="#99D8DF" stroke-width="14" stroke-linecap="round" stroke-miterlimit="10" x1="-141.301" y1="223.814" x2="-62.268" y2="223.814"/>
<line fill="none" stroke="#99D8DF" stroke-width="14" stroke-linecap="round" stroke-miterlimit="10" x1="-141.301" y1="319.931" x2="-62.268" y2="319.931"/>
<g>
	<path fill="none" stroke="#223843" stroke-width="14.8492" stroke-linecap="round" stroke-miterlimit="10" d="M-429.072,412.114
		c82.908,82.91,217.09,82.91,300,0"/>
	
		<circle fill="none" stroke="#223843" stroke-width="18.5618" stroke-linecap="round" stroke-miterlimit="10" cx="-280.959" cy="474.295" r="15.91"/>
	<path fill="none" stroke="#223843" stroke-width="18.5615" stroke-linecap="round" stroke-miterlimit="10" d="M-176.299,455.888
		c0,8.79-7.123,15.909-15.91,15.909c-8.789,0-15.91-7.119-15.91-15.909c0-8.783,7.121-15.908,15.91-15.908
		C-183.422,439.979-176.299,447.104-176.299,455.888z"/>
	
		<circle fill="none" stroke="#223843" stroke-width="18.5615" stroke-linecap="round" stroke-miterlimit="10" cx="-366.998" cy="455.89" r="15.91"/>
</g>
<circle fill="none" stroke="#223843" stroke-width="14" stroke-miterlimit="10" cx="490.806" cy="274.61" r="13"/>
<circle fill="none" stroke="#223843" stroke-width="14" stroke-miterlimit="10" cx="490.806" cy="226.879" r="13"/>
<circle fill="none" stroke="#223843" stroke-width="14" stroke-miterlimit="10" cx="490.806" cy="322.997" r="13"/>
<g>
	<g>
		<circle fill="none" stroke="#223843" stroke-width="14" stroke-miterlimit="10" cx="271.343" cy="167.026" r="31.451"/>
		<polyline fill="none" stroke="#223843" stroke-width="14" stroke-miterlimit="10" points="268.222,255.544 204.062,226.548 
			264.718,199.145 		"/>
		<polyline fill="none" stroke="#223843" stroke-width="14" stroke-miterlimit="10" points="341.897,181.442 325.702,227.208 
			272.194,201.861 		"/>
		<polyline fill="none" stroke="#223843" stroke-width="14" stroke-miterlimit="10" points="165.104,321.711 191.716,295.906 
			230.427,337.035 271.005,196.375 		"/>
		<polyline fill="none" stroke="#223843" stroke-width="14" stroke-miterlimit="10" points="281.233,392.68 240.62,392.68 
			271.005,333.808 240.62,301.7 		"/>
		<circle fill="#223843" cx="271.222" cy="256.544" r="13"/>
	</g>
	<circle fill="#223843" cx="341.897" cy="181.442" r="13"/>
</g>
<g>
	<path fill="#223843" d="M58.35,126.444L85.357,94.53l6.456,5.463l-16.978,20.062l7.952,6.731l15.864-18.745l6.404,5.42
		l-15.864,18.744l13.997,11.845l-10.03,11.851L58.35,126.444z"/>
	<path fill="#223843" d="M111.583,72.989l28.498,35.601l-12.123,9.702l-28.496-35.6L111.583,72.989z"/>
	<path fill="#223843" d="M143.641,62.465l-16.335,8.398l-3.959-7.701l46.749-24.036l3.959,7.702l-16.606,8.537l16.888,32.852
		l-13.809,7.099L143.641,62.465z"/>
	<path fill="#223843" d="M242.313,67.148c-2.572,1.534-8.6,3.894-16.728,5.675c-23.097,5.062-37.091-1.914-39.872-14.604
		c-3.331-15.2,11.07-27.222,31.292-31.654c7.832-1.715,14.012-1.961,16.891-1.624l-1.321,8.67c-3.261-0.185-7.697-0.044-13.05,1.129
		c-11.993,2.628-20.254,9.495-18.083,19.408c1.957,8.922,11.117,12.801,24.599,9.847c4.559-1,9.47-2.768,12.271-4.212
		L242.313,67.148z"/>
	<path fill="#223843" d="M269.215,23.65l-1.564,17.453l25.37,2.279l1.564-17.453l15.366,1.381l-4.072,45.417l-15.365-1.381
		l1.704-19.002l-25.371-2.28l-1.705,19.002l-15.465-1.39l4.073-45.417L269.215,23.65z"/>
	<path fill="#223843" d="M335.048,71.191l-9.149,8.774l-14.693-6.419l37.414-33.415l18.599,8.125l1.181,50.274l-15.252-6.663
		l-0.149-12.837L335.048,71.191z M354.04,71.071L354.007,60.5c-0.033-2.967,0.204-6.555,0.357-9.44l-0.185-0.082
		c-2.015,2.073-4.325,4.828-6.404,6.799l-7.594,7.239L354.04,71.071z"/>
	<path fill="#223843" d="M412.514,76.663l-27.066,36.696l-12.495-9.216l27.064-36.695L412.514,76.663z"/>
	<path fill="#223843" d="M395.054,119.069l34.776-29.494l11.685,13.778l-3.556,21.646c-1.037,6.203-2.745,12.976-4.697,18.623
		l0.197,0.233c3.936-4.669,8.435-8.883,13.645-13.303l10.165-8.62l9.19,10.836l-34.777,29.494l-10.503-12.384l3.963-22.524
		c1.091-6.247,2.69-13.46,4.601-19.472l-0.249-0.188c-4.329,4.204-9.1,8.516-14.774,13.329l-10.475,8.884L395.054,119.069z"/>
</g>
<g>
	
		<line fill="none" stroke="#223843" stroke-width="14" stroke-linecap="round" stroke-miterlimit="10" x1="123.13" y1="274.938" x2="44.099" y2="274.938"/>
	<circle fill="none" stroke="#223843" stroke-width="14" stroke-miterlimit="10" cx="30.099" cy="274.938" r="13"/>
</g>
<g>
	
		<line fill="none" stroke="#223843" stroke-width="14" stroke-linecap="round" stroke-miterlimit="10" x1="122.228" y1="227.208" x2="43.194" y2="227.208"/>
	<circle fill="none" stroke="#223843" stroke-width="14" stroke-miterlimit="10" cx="29.194" cy="227.208" r="13"/>
</g>
<g>
	
		<line fill="none" stroke="#223843" stroke-width="14" stroke-linecap="round" stroke-miterlimit="10" x1="122.228" y1="323.325" x2="43.194" y2="323.325"/>
	<circle fill="none" stroke="#223843" stroke-width="14" stroke-miterlimit="10" cx="29.194" cy="323.325" r="13"/>
</g>
<line fill="none" stroke="#223843" stroke-width="14" stroke-linecap="round" stroke-miterlimit="10" x1="397.772" y1="274.61" x2="476.806" y2="274.61"/>
<line fill="none" stroke="#223843" stroke-width="14" stroke-linecap="round" stroke-miterlimit="10" x1="397.772" y1="226.879" x2="476.806" y2="226.879"/>
<line fill="none" stroke="#223843" stroke-width="14" stroke-linecap="round" stroke-miterlimit="10" x1="397.772" y1="322.997" x2="476.806" y2="322.997"/>
<g>
	<path fill="none" stroke="#223843" stroke-width="17.1139" stroke-linecap="round" stroke-miterlimit="10" d="M87.124,410.225
		c95.553,95.554,250.199,95.554,345.754,0"/>
	<path fill="none" stroke="#223843" stroke-width="21.3927" stroke-linecap="round" stroke-miterlimit="10" d="M276.163,481.889
		c0,10.13-8.209,18.336-18.337,18.336c-10.129,0-18.336-8.206-18.336-18.336c0-10.127,8.207-18.335,18.336-18.335
		C267.954,463.553,276.163,471.762,276.163,481.889z"/>
	<path fill="none" stroke="#223843" stroke-width="21.3924" stroke-linecap="round" stroke-miterlimit="10" d="M378.448,460.674
		c0,10.13-8.209,18.335-18.336,18.335c-10.13,0-18.337-8.205-18.337-18.335c0-10.123,8.207-18.334,18.337-18.334
		C370.239,442.34,378.448,450.552,378.448,460.674z"/>
	<path fill="none" stroke="#223843" stroke-width="21.3924" stroke-linecap="round" stroke-miterlimit="10" d="M177.002,460.677
		c0,10.128-8.207,18.335-18.337,18.335c-10.129,0-18.336-8.208-18.336-18.335c0-10.13,8.207-18.337,18.336-18.337
		C168.795,442.34,177.002,450.547,177.002,460.677z"/>
</g>
<g>
	<line fill="none" stroke="#223843" stroke-width="10" stroke-miterlimit="10" x1="924" y1="266.705" x2="949" y2="266.705"/>
	<g>
		<path fill="none" stroke="#223843" stroke-width="10" stroke-miterlimit="10" d="M750,314.94c0,14.524-11.193,26.299-25,26.299
			l0,0c-13.807,0-25-11.774-25-26.299v-97.402c0-14.524,11.193-26.299,25-26.299l0,0c13.807,0,25,11.774,25,26.299V314.94z"/>
		<path fill="none" stroke="#223843" stroke-width="10" stroke-miterlimit="10" d="M900,313.94c0,14.524-11.193,26.299-25,26.299
			l0,0c-13.807,0-25-11.774-25-26.299v-97.402c0-14.524,11.193-26.299,25-26.299l0,0c13.807,0,25,11.774,25,26.299V313.94z"/>
		<path fill="#213843" stroke="#223843" stroke-width="10" stroke-miterlimit="10" d="M895,243.545c13.808,0,25,11.193,25,25
			c0,13.808-11.192,25-25,25"/>
		<path fill="#213843" stroke="#223843" stroke-width="10" stroke-miterlimit="10" d="M704,290.239c-13.808,0-25-11.193-25-25
			c0-13.807,11.192-25,25-25"/>
		<line fill="none" stroke="#223843" stroke-width="10" stroke-miterlimit="10" x1="750" y1="266.705" x2="850" y2="266.705"/>
		<line fill="none" stroke="#223843" stroke-width="10" stroke-miterlimit="10" x1="650" y1="265.238" x2="675" y2="265.238"/>
	</g>
</g>
</svg>
