<?xml version="1.0" encoding="utf-8"?>
<!-- Generator: Adobe Illustrator 16.0.0, SVG Export Plug-In . SVG Version: 6.00 Build 0)  -->
<!DOCTYPE svg PUBLIC "-//W3C//DTD SVG 1.1//EN" "http://www.w3.org/Graphics/SVG/1.1/DTD/svg11.dtd">
<svg version="1.1" id="Layer_1" xmlns="http://www.w3.org/2000/svg" xmlns:xlink="http://www.w3.org/1999/xlink" x="0px" y="0px"
	 width="400px" height="400px" viewBox="0 0 400 400" enable-background="new 0 0 400 400" xml:space="preserve">
<path fill="#FFFFFF" d="M-1150.296,180.463c-27.45,0-49.704,22.253-49.704,49.704s22.254,49.704,49.704,49.704
	c27.451,0,49.703-22.253,49.703-49.704S-1122.846,180.463-1150.296,180.463z M-1150.297,271.588
	c-22.876,0-41.42-18.546-41.42-41.421s18.544-41.42,41.42-41.42c22.875,0,41.42,18.545,41.42,41.42
	S-1127.421,271.588-1150.297,271.588z"/>
<path fill="#FFFFFF" d="M-969.704,180.463c-27.451,0-49.706,22.253-49.706,49.704s22.255,49.704,49.706,49.704
	S-920,257.618-920,230.167S-942.253,180.463-969.704,180.463z M-969.706,271.588c-22.874,0-41.422-18.546-41.422-41.421
	s18.548-41.42,41.422-41.42c22.876,0,41.423,18.545,41.423,41.42S-946.83,271.588-969.706,271.588z"/>
<path fill="#FFFFFF" d="M-1150.297,211.942c-10.064,0-18.225,8.162-18.225,18.225c0,10.064,8.161,18.226,18.225,18.226
	s18.225-8.161,18.225-18.226C-1132.072,220.104-1140.232,211.942-1150.297,211.942z M-1150.297,244.745
	c-8.053,0-14.581-6.524-14.581-14.578s6.528-14.58,14.581-14.58s14.58,6.526,14.58,14.58S-1142.244,244.745-1150.297,244.745z"/>
<path fill="#FFFFFF" d="M-969.706,211.942c-10.063,0-18.224,8.162-18.224,18.225c0,10.064,8.16,18.226,18.224,18.226
	c10.064,0,18.226-8.161,18.226-18.226C-951.48,220.104-959.642,211.942-969.706,211.942z M-969.706,244.745
	c-8.052,0-14.58-6.524-14.58-14.578s6.528-14.58,14.58-14.58c8.054,0,14.578,6.526,14.578,14.58S-961.652,244.745-969.706,244.745z"
	/>
<circle fill="#FFFFFF" cx="-1069.114" cy="230.167" r="14.911"/>
<polyline fill="none" stroke="#FFFFFF" stroke-width="6.6272" stroke-miterlimit="10" points="-1074.801,233.48 -1118.818,150.641 
	-1019.41,150.641 -1019.41,147.327 -1069.114,230.167 -969.706,230.167 -1019.41,147.327 "/>
<path fill="#FFFFFF" d="M-1003.24,133.396c0,2.744-2.331,4.97-5.207,4.97h-22.722c-2.876,0-5.207-2.226-5.207-4.97l0,0
	c0-2.746,2.331-4.971,5.207-4.971h22.722C-1005.571,128.425-1003.24,130.65-1003.24,133.396L-1003.24,133.396z"/>
<line fill="none" stroke="#FFFFFF" stroke-width="6.6272" stroke-miterlimit="10" x1="-1019.808" y1="133.396" x2="-1019.41" y2="147.327"/>
<path fill="none" stroke="#FFFFFF" stroke-width="4.1914" stroke-miterlimit="10" d="M-1054.203,260.014
	c0,0.915-1.187,1.656-2.649,1.656h-7.954c-1.463,0-2.65-0.741-2.65-1.656l0,0c0-0.914,1.188-1.656,2.65-1.656h7.954
	C-1055.39,258.357-1054.203,259.1-1054.203,260.014L-1054.203,260.014z"/>
<path fill="none" stroke="#FFFFFF" stroke-width="4.1914" stroke-miterlimit="10" d="M-1068.173,198.688
	c0,0.916-1.188,1.658-2.651,1.658h-7.953c-1.463,0-2.65-0.742-2.65-1.658l0,0c0-0.914,1.187-1.656,2.65-1.656h7.953
	C-1069.362,197.032-1068.173,197.774-1068.173,198.688L-1068.173,198.688z"/>
<line fill="none" stroke="#FFFFFF" stroke-width="4.6462" stroke-miterlimit="10" x1="-1074.801" y1="198.688" x2="-1060.831" y2="260.014"/>
<path fill="none" stroke="#FFFFFF" stroke-width="6.6272" stroke-miterlimit="10" d="M-1131.878,133.408
	c-2.107-0.704-3.813-1.542-4.992-2.472c-1.178-0.932-1.83-1.954-1.83-3.029c0-1.074,0.652-2.097,1.83-3.026
	c1.178-0.931,2.884-1.769,4.992-2.472c2.107-0.705,4.617-1.274,7.404-1.667c2.787-0.395,5.852-0.612,9.068-0.612
	c3.216,0,6.279,0.217,9.066,0.612c2.786,0.394,4.912,0.479,4.912,0.479l-49.646,110.604"/>
<g>
	<path d="M-219.086,60c-17.518,0-31.718,17.041-31.718,38.061c0,21.021,14.2,38.062,31.718,38.062
		c17.517,0,31.718-17.04,31.718-38.062C-187.368,77.041-201.569,60-219.086,60z M-219.086,129.779
		c-14.014,0-25.374-14.201-25.374-31.718c0-17.516,11.36-31.718,25.374-31.718s25.374,14.202,25.374,31.718
		C-193.712,115.578-205.072,129.779-219.086,129.779z"/>
	
		<line fill="none" stroke="#000000" stroke-width="6.3436" stroke-miterlimit="10" x1="-219.086" y1="136.123" x2="-219.086" y2="246.925"/>
	<polyline fill="none" stroke="#000000" stroke-width="6.3436" stroke-miterlimit="10" points="-250.804,284.986 -262.856,212.245 
		-219.086,246.925 	"/>
	<path d="M-289.535,283.473L-289.535,283.473c2.438-9.502,10.281-15.699,17.521-13.842l16.384,4.201
		c7.241,1.857,11.134,11.064,8.697,20.567l0,0"/>
	<path fill="none" stroke="#000000" stroke-width="6.3436" stroke-miterlimit="10" d="M-220.989,135.277
		c-7.154,2.787-17.047-0.828-24.957,0.934c-11.074,2.464-19.983,11.93-27.947,19.167c-7.588,6.894-14.373,8.922-22.373,13.732"/>
	<circle cx="-302.205" cy="172.475" r="12.669"/>
	<path fill="none" stroke="#000000" stroke-width="6.3436" stroke-miterlimit="10" d="M-219.086,134.854
		c7.155,2.787,17.047-0.828,24.959,0.933c11.073,2.464,19.981,11.931,27.946,19.167c7.588,6.893,14.372,8.922,22.373,13.732"/>
	<circle cx="-137.871" cy="172.051" r="12.669"/>
	<polyline fill="none" stroke="#000000" stroke-width="6.3436" stroke-miterlimit="10" points="-187.492,284.986 -175.438,212.245 
		-219.21,246.925 	"/>
	<path d="M-148.761,283.473L-148.761,283.473c-2.437-9.502-10.28-15.699-17.521-13.842l-16.385,4.201
		c-7.24,1.857-11.133,11.064-8.696,20.567l0,0"/>
	<path fill="none" stroke="#000000" stroke-width="2.5374" stroke-miterlimit="10" d="M-137.389,181.796
		c0,9.68-0.743,19.925,1.013,29.393c1.893,10.192,8.034,17.563,12.329,26.64c7.787,16.467,16.392,45.653,11.062,63.839
		c-5.803,19.795-38.38,28.406-55.902,31.57c-14.077,2.541-30.283,7.223-44.624,6.726h-12.976
		c-14.341,0.497-30.547-4.185-44.623-6.726c-17.523-3.164-50.101-11.775-55.903-31.57c-5.33-18.186,3.274-47.372,11.062-63.839
		c4.295-9.076,10.437-16.447,12.329-26.64c1.756-9.468,1.013-19.713,1.013-29.393"/>
	<rect x="-221.158" y="245.283" width="4.027" height="4.127"/>
</g>
<path fill="#FFFFFF" d="M200.652,100c-12.513,0-22.655,12.172-22.655,27.187c0,15.016,10.143,27.187,22.655,27.187
	c12.512,0,22.655-12.171,22.655-27.187C223.308,112.172,213.164,100,200.652,100z M200.652,149.842
	c-10.01,0-18.124-10.144-18.124-22.656c0-12.512,8.114-22.655,18.124-22.655s18.124,10.144,18.124,22.655
	C218.776,139.699,210.662,149.842,200.652,149.842z"/>
<line fill="none" stroke="#FFFFFF" stroke-width="4.5311" stroke-miterlimit="10" x1="200.652" y1="154.374" x2="200.652" y2="233.518"/>
<polyline fill="none" stroke="#FFFFFF" stroke-width="4.5311" stroke-miterlimit="10" points="177.997,260.704 169.388,208.747 
	200.652,233.518 "/>
<path fill="#FFFFFF" d="M150.331,259.624L150.331,259.624c1.741-6.788,7.344-11.215,12.516-9.888l11.703,3.001
	c5.172,1.326,7.952,7.903,6.212,14.691l0,0"/>
<path fill="none" stroke="#FFFFFF" stroke-width="4.5311" stroke-miterlimit="10" d="M199.293,153.77
	c-5.11,1.991-12.177-0.591-17.827,0.667c-7.91,1.76-14.273,8.522-19.962,13.69c-5.42,4.924-10.267,6.373-15.98,9.809"/>
<circle fill="#FFFFFF" cx="141.282" cy="180.339" r="9.049"/>
<path fill="none" stroke="#FFFFFF" stroke-width="4.5311" stroke-miterlimit="10" d="M200.652,153.467
	c5.11,1.991,12.177-0.591,17.827,0.667c7.909,1.76,14.272,8.522,19.962,13.69c5.42,4.924,10.266,6.374,15.98,9.809"/>
<circle fill="#FFFFFF" cx="258.663" cy="180.037" r="9.05"/>
<polyline fill="none" stroke="#FFFFFF" stroke-width="4.5311" stroke-miterlimit="10" points="223.219,260.704 231.828,208.747 
	200.563,233.518 "/>
<path fill="#FFFFFF" d="M250.885,259.624L250.885,259.624c-1.741-6.788-7.344-11.215-12.516-9.888l-11.703,3.001
	c-5.172,1.326-7.952,7.903-6.211,14.691l0,0"/>
<path fill="none" stroke="#FFFFFF" stroke-width="1.8124" stroke-miterlimit="10" d="M259.007,186.998
	c0,6.915-0.53,14.232,0.724,20.995c1.352,7.28,5.738,12.546,8.807,19.028c5.562,11.762,11.708,32.609,7.9,45.6
	c-4.145,14.139-27.414,20.29-39.93,22.55c-10.055,1.815-21.63,5.159-31.874,4.804h-9.269c-10.243,0.355-21.819-2.988-31.873-4.804
	c-12.517-2.26-35.786-8.411-39.931-22.55c-3.808-12.99,2.338-33.838,7.9-45.6c3.068-6.482,7.455-11.748,8.807-19.028
	c1.254-6.763,0.724-14.08,0.724-20.995"/>
<rect x="199.172" y="232.345" fill="#FFFFFF" width="2.877" height="2.948"/>
<path d="M-730.297,180.463c-27.449,0-49.703,22.253-49.703,49.704s22.254,49.704,49.703,49.704
	c27.451,0,49.703-22.253,49.703-49.704S-702.846,180.463-730.297,180.463z M-730.297,271.588c-22.876,0-41.42-18.546-41.42-41.421
	s18.544-41.42,41.42-41.42c22.875,0,41.42,18.545,41.42,41.42S-707.422,271.588-730.297,271.588z"/>
<path d="M-549.704,180.463c-27.451,0-49.706,22.253-49.706,49.704s22.255,49.704,49.706,49.704S-500,257.618-500,230.167
	S-522.253,180.463-549.704,180.463z M-549.706,271.588c-22.874,0-41.422-18.546-41.422-41.421s18.548-41.42,41.422-41.42
	c22.876,0,41.423,18.545,41.423,41.42S-526.83,271.588-549.706,271.588z"/>
<path d="M-730.297,211.942c-10.064,0-18.225,8.162-18.225,18.225c0,10.064,8.16,18.226,18.225,18.226s18.225-8.161,18.225-18.226
	C-712.072,220.104-720.232,211.942-730.297,211.942z M-730.297,244.745c-8.053,0-14.58-6.524-14.58-14.578s6.527-14.58,14.58-14.58
	s14.58,6.526,14.58,14.58S-722.244,244.745-730.297,244.745z"/>
<path d="M-549.706,211.942c-10.063,0-18.224,8.162-18.224,18.225c0,10.064,8.16,18.226,18.224,18.226
	c10.064,0,18.226-8.161,18.226-18.226C-531.48,220.104-539.642,211.942-549.706,211.942z M-549.706,244.745
	c-8.052,0-14.58-6.524-14.58-14.578s6.528-14.58,14.58-14.58c8.054,0,14.578,6.526,14.578,14.58S-541.652,244.745-549.706,244.745z"
	/>
<circle cx="-649.114" cy="230.167" r="14.911"/>
<polyline fill="none" stroke="#000000" stroke-width="6.6272" stroke-miterlimit="10" points="-654.801,233.48 -698.818,150.641 
	-599.41,150.641 -599.41,147.327 -649.114,230.167 -549.706,230.167 -599.41,147.327 "/>
<path d="M-583.24,133.396c0,2.744-2.331,4.97-5.207,4.97h-22.722c-2.876,0-5.207-2.226-5.207-4.97l0,0
	c0-2.746,2.331-4.971,5.207-4.971h22.722C-585.571,128.425-583.24,130.65-583.24,133.396L-583.24,133.396z"/>
<line x1="-599.808" y1="133.396" x2="-599.41" y2="147.327"/>
<path d="M-634.203,260.014c0,0.915-1.187,1.656-2.649,1.656h-7.954c-1.463,0-2.65-0.741-2.65-1.656l0,0
	c0-0.914,1.188-1.656,2.65-1.656h7.954C-635.39,258.357-634.203,259.1-634.203,260.014L-634.203,260.014z"/>
<path d="M-648.174,198.688c0,0.916-1.188,1.658-2.65,1.658h-7.953c-1.463,0-2.65-0.742-2.65-1.658l0,0
	c0-0.914,1.188-1.656,2.65-1.656h7.953C-649.361,197.031-648.174,197.773-648.174,198.688L-648.174,198.688z"/>
<line fill="none" stroke="#000000" stroke-width="4.6462" stroke-miterlimit="10" x1="-654.801" y1="198.688" x2="-640.83" y2="260.014"/>
<path fill="none" stroke="#000000" stroke-width="6.6272" stroke-miterlimit="10" d="M-711.878,133.408
	c-2.107-0.704-3.813-1.542-4.991-2.472c-1.178-0.932-1.83-1.954-1.83-3.029c0-1.074,0.652-2.097,1.83-3.026
	c1.178-0.931,2.884-1.769,4.991-2.472c2.107-0.705,4.616-1.274,7.403-1.667c2.787-0.395,5.852-0.612,9.068-0.612
	c3.216,0,6.279,0.217,9.066,0.612c2.785,0.394,4.912,0.479,4.912,0.479l-49.646,110.604"/>
<g>
	<rect x="545" y="233.699" width="150" height="50"/>
	<rect x="595" y="174.394" width="100" height="50"/>
	<rect x="645" y="116.301" width="50" height="50"/>
</g>
<g>
	<rect x="965" y="233.699" fill="#FFFFFF" width="150" height="50"/>
	<rect x="1015" y="174.395" fill="#FFFFFF" width="100" height="50"/>
	<rect x="1065" y="116.301" fill="#FFFFFF" width="50" height="50"/>
</g>
</svg>
