<?xml version="1.0" encoding="utf-8"?>
<!-- Generator: Adobe Illustrator 16.0.0, SVG Export Plug-In . SVG Version: 6.00 Build 0)  -->
<!DOCTYPE svg PUBLIC "-//W3C//DTD SVG 1.1//EN" "http://www.w3.org/Graphics/SVG/1.1/DTD/svg11.dtd">
<svg version="1.1" id="Layer_1" xmlns="http://www.w3.org/2000/svg" xmlns:xlink="http://www.w3.org/1999/xlink" x="0px" y="0px"
	 width="120px" height="120px" viewBox="0 0 120 120" enable-background="new 0 0 120 120" xml:space="preserve">
<path fill="#FFFFFF" d="M96,0L65.414,30.586l-2.828,2.828l-5.172,5.172l-2.828,2.828l-5.172,5.172l-2.828,2.828l-5.172,5.172
	l-2.828,2.828l-5.172,5.172l-2.828,2.828l-5.172,5.172l-2.828,2.828L12,84L0,96l24,24l12-12l84-84L96,0z M33.172,105.172
	L14.828,86.828l10.586-10.586l9.172,9.172l2.828-2.828l-9.172-9.172l5.172-5.172l9.172,9.172l2.828-2.828l-9.172-9.172l5.172-5.172
	l9.172,9.172l2.828-2.828l-9.172-9.172l5.172-5.172l9.172,9.172l2.828-2.828l-9.172-9.172l5.172-5.172l9.172,9.172l2.828-2.828
	l-9.172-9.172l5.172-5.172l9.172,9.172l2.828-2.828l-9.172-9.172L96,5.657L114.344,24L33.172,105.172z"/>
<g>
	<path fill="#FFFFFF" d="M96,20c-2.211,0-4,1.791-4,4s1.789,4,4,4s4-1.791,4-4S98.211,20,96,20"/>
</g>
</svg>
