<?xml version="1.0" encoding="utf-8"?>
<!-- Generator: Adobe Illustrator 16.0.0, SVG Export Plug-In . SVG Version: 6.00 Build 0)  -->
<!DOCTYPE svg PUBLIC "-//W3C//DTD SVG 1.1 Tiny//EN" "http://www.w3.org/Graphics/SVG/1.1/DTD/svg11-tiny.dtd">
<svg version="1.1" baseProfile="tiny" id="Layer_1" xmlns="http://www.w3.org/2000/svg" xmlns:xlink="http://www.w3.org/1999/xlink"
	 x="0px" y="0px" width="299px" height="161px" viewBox="0 0 299 161" xml:space="preserve">
<g>
	<circle fill="none" stroke="#F0522E" stroke-width="14" stroke-miterlimit="10" cx="-4322.43" cy="126.847" r="13"/>
	<circle fill="none" stroke="#F0522E" stroke-width="14" stroke-miterlimit="10" cx="-4322.43" cy="79.117" r="13"/>
	<circle fill="none" stroke="#F0522E" stroke-width="14" stroke-miterlimit="10" cx="-4322.43" cy="175.234" r="13"/>
	<g>
		<g>
			<g>
				<circle fill="none" stroke="#F0522E" stroke-width="14" stroke-miterlimit="10" cx="-4541.892" cy="19.263" r="31.451"/>
				<polyline fill="none" stroke="#F0522E" stroke-width="14" stroke-miterlimit="10" points="-4545.013,107.782 -4609.173,78.786 
					-4548.518,51.382 				"/>
				<polyline fill="none" stroke="#F0522E" stroke-width="14" stroke-miterlimit="10" points="-4471.338,33.679 -4487.532,79.445 
					-4541.042,54.098 				"/>
				<polyline fill="none" stroke="#F0522E" stroke-width="14" stroke-miterlimit="10" points="-4648.131,173.949 -4621.519,148.143 
					-4582.809,189.272 -4542.229,48.612 				"/>
				<polyline fill="none" stroke="#F0522E" stroke-width="14" stroke-miterlimit="10" points="-4532.001,244.917 -4572.616,244.917 
					-4542.229,186.045 -4572.616,153.937 				"/>
				<circle fill="#F0522E" cx="-4542.013" cy="108.782" r="13"/>
			</g>
			<circle fill="#F0522E" cx="-4471.338" cy="33.679" r="13"/>
		</g>
		<circle fill="none" cx="-4553.232" cy="95.782" r="178.523"/>
		
			<text transform="matrix(0.9691 -1.145 0.7633 0.646 -4704.7642 -1.5269)" fill="#F0522E" font-family="'MyriadPro-Bold'" font-size="60">F</text>
		
			<text transform="matrix(1.1711 -0.9374 0.6249 0.7807 -4674.7026 -35.7046)" fill="#F0522E" font-family="'MyriadPro-Bold'" font-size="60">I</text>
		
			<text transform="matrix(1.334 -0.6859 0.4573 0.8893 -4656.8687 -51.7261)" fill="#F0522E" font-family="'MyriadPro-Bold'" font-size="60">T</text>
		
			<text transform="matrix(1.4652 -0.321 0.214 0.9768 -4617.7212 -72.8516)" fill="#F0522E" font-family="'MyriadPro-Bold'" font-size="60">C</text>
		
			<text transform="matrix(1.494 0.1342 -0.0894 0.996 -4568.0347 -84.8345)" fill="#F0522E" font-family="'MyriadPro-Bold'" font-size="60">H</text>
		
			<text transform="matrix(1.3745 0.6006 -0.4004 0.9164 -4508.9541 -79.7109)" fill="#F0522E" font-family="'MyriadPro-Bold'" font-size="60">A</text>
		
			<text transform="matrix(1.2072 0.8903 -0.5935 0.8048 -4457.5723 -55.4907)" fill="#F0522E" font-family="'MyriadPro-Bold'" font-size="60">I</text>
		
			<text transform="matrix(0.9702 1.144 -0.7627 0.6468 -4437.0312 -43.2573)" fill="#F0522E" font-family="'MyriadPro-Bold'" font-size="60">N</text>
		<g>
			<g>
				
					<line fill="none" stroke="#F0522E" stroke-width="14" stroke-linecap="round" stroke-miterlimit="10" x1="-4690.104" y1="127.175" x2="-4769.137" y2="127.175"/>
				<circle fill="none" stroke="#F0522E" stroke-width="14" stroke-miterlimit="10" cx="-4783.137" cy="127.175" r="13"/>
			</g>
			<g>
				
					<line fill="none" stroke="#F0522E" stroke-width="14" stroke-linecap="round" stroke-miterlimit="10" x1="-4691.008" y1="79.445" x2="-4770.04" y2="79.445"/>
				<circle fill="none" stroke="#F0522E" stroke-width="14" stroke-miterlimit="10" cx="-4784.04" cy="79.445" r="13"/>
			</g>
			<g>
				
					<line fill="none" stroke="#F0522E" stroke-width="14" stroke-linecap="round" stroke-miterlimit="10" x1="-4691.008" y1="175.562" x2="-4770.04" y2="175.562"/>
				<circle fill="none" stroke="#F0522E" stroke-width="14" stroke-miterlimit="10" cx="-4784.04" cy="175.562" r="13"/>
			</g>
		</g>
		
			<line fill="none" stroke="#F0522E" stroke-width="14" stroke-linecap="round" stroke-miterlimit="10" x1="-4415.462" y1="126.847" x2="-4336.43" y2="126.847"/>
		
			<line fill="none" stroke="#F0522E" stroke-width="14" stroke-linecap="round" stroke-miterlimit="10" x1="-4415.462" y1="79.117" x2="-4336.43" y2="79.117"/>
		
			<line fill="none" stroke="#F0522E" stroke-width="14" stroke-linecap="round" stroke-miterlimit="10" x1="-4415.462" y1="175.234" x2="-4336.43" y2="175.234"/>
		<g>
			<path fill="none" stroke="#F0522E" stroke-width="14.8492" stroke-linecap="round" stroke-miterlimit="10" d="M-4703.234,267.417
				c82.909,82.911,217.09,82.911,300,0"/>
			
				<circle fill="none" stroke="#F0522E" stroke-width="18.5618" stroke-linecap="round" stroke-miterlimit="10" cx="-4555.121" cy="329.598" r="15.91"/>
			<path fill="none" stroke="#F0522E" stroke-width="18.5615" stroke-linecap="round" stroke-miterlimit="10" d="M-4450.46,311.191
				c0,8.789-7.123,15.909-15.911,15.909c-8.789,0-15.909-7.12-15.909-15.909c0-8.783,7.12-15.909,15.909-15.909
				C-4457.583,295.282-4450.46,302.408-4450.46,311.191z"/>
			
				<circle fill="none" stroke="#F0522E" stroke-width="18.5615" stroke-linecap="round" stroke-miterlimit="10" cx="-4641.159" cy="311.192" r="15.91"/>
		</g>
	</g>
</g>
<rect x="-3961.235" y="-123.218" fill="#FFFFFF" width="520" height="520"/>
<g>
	<g>
		<g>
			<circle fill="#FFFFFF" stroke="#F0522E" stroke-width="14" stroke-miterlimit="10" cx="-3689.892" cy="29.284" r="31.452"/>
			<polyline fill="none" stroke="#F0522E" stroke-width="14" stroke-miterlimit="10" points="-3693.013,117.802 -3757.174,88.806 
				-3696.518,61.403 			"/>
			<polyline fill="none" stroke="#F0522E" stroke-width="14" stroke-miterlimit="10" points="-3619.338,43.7 -3635.532,89.465 
				-3689.041,64.119 			"/>
			<polyline fill="none" stroke="#F0522E" stroke-width="14" stroke-miterlimit="10" points="-3796.131,183.969 -3769.52,158.164 
				-3730.809,199.292 -3690.229,58.632 			"/>
			<polyline fill="none" stroke="#F0522E" stroke-width="14" stroke-miterlimit="10" points="-3680.001,254.937 -3720.615,254.937 
				-3690.229,196.066 -3720.615,163.958 			"/>
			<circle fill="#F0522E" cx="-3690.013" cy="118.802" r="13"/>
		</g>
		<circle fill="#F0522E" cx="-3619.338" cy="43.7" r="13"/>
	</g>
	<path fill="none" d="M-3523.389,90.243c8.594,98.22-64.066,184.811-162.285,193.405c-98.222,8.591-184.811-64.067-193.403-162.288
		c-8.595-98.221,64.062-184.811,162.283-193.402C-3618.57-80.636-3531.982-7.979-3523.389,90.243z"/>
	
		<text transform="matrix(1.0584 -1.0629 0.7086 0.7056 -3843.582 -4.2637)" fill="#F0522E" font-family="'ArialNarrow-Bold'" font-size="60">F</text>
	
		<text transform="matrix(1.226 -0.8642 0.5762 0.8173 -3812.3613 -34.3218)" fill="#F0522E" font-family="'ArialNarrow-Bold'" font-size="60">I</text>
	
		<text transform="matrix(1.3575 -0.6381 0.4254 0.905 -3797.5879 -46.2256)" fill="#F0522E" font-family="'ArialNarrow-Bold'" font-size="60">T</text>
	
		<text transform="matrix(1.4764 -0.2653 0.1769 0.9842 -3759.2305 -65.1724)" fill="#F0522E" font-family="'ArialNarrow-Bold'" font-size="60">C</text>
	
		<text transform="matrix(1.4922 0.1531 -0.1021 0.9948 -3709.3066 -74.5205)" fill="#F0522E" font-family="'ArialNarrow-Bold'" font-size="60">H</text>
	
		<text transform="matrix(1.3895 0.5651 -0.3767 0.9263 -3658.7676 -69.6919)" fill="#F0522E" font-family="'ArialNarrow-Bold'" font-size="60">A</text>
	
		<text transform="matrix(1.2534 0.824 -0.5494 0.8356 -3611.832 -49.0801)" fill="#F0522E" font-family="'ArialNarrow-Bold'" font-size="60">I</text>
	
		<text transform="matrix(1.0705 1.0507 -0.7005 0.7137 -3595.1328 -40.2095)" fill="#F0522E" font-family="'ArialNarrow-Bold'" font-size="60">N</text>
	<g>
		<g>
			
				<line fill="none" stroke="#F0522E" stroke-width="14" stroke-linecap="round" stroke-miterlimit="10" x1="-3840.104" y1="137.196" x2="-3919.137" y2="137.196"/>
			<circle fill="none" stroke="#F0522E" stroke-width="14" stroke-miterlimit="10" cx="-3931.137" cy="137.196" r="12"/>
		</g>
		<g>
			
				<line fill="none" stroke="#F0522E" stroke-width="14" stroke-linecap="round" stroke-miterlimit="10" x1="-3841.008" y1="89.465" x2="-3920.04" y2="89.465"/>
			<circle fill="none" stroke="#F0522E" stroke-width="14" stroke-miterlimit="10" cx="-3932.04" cy="89.465" r="12"/>
		</g>
		<g>
			
				<line fill="none" stroke="#F0522E" stroke-width="14" stroke-linecap="round" stroke-miterlimit="10" x1="-3841.008" y1="185.583" x2="-3920.04" y2="185.583"/>
			<circle fill="none" stroke="#F0522E" stroke-width="14" stroke-miterlimit="10" cx="-3932.04" cy="185.583" r="12"/>
		</g>
	</g>
	
		<line fill="none" stroke="#F0522E" stroke-width="14" stroke-linecap="round" stroke-miterlimit="10" x1="-3561.462" y1="136.868" x2="-3482.43" y2="136.868"/>
	<circle fill="none" stroke="#F0522E" stroke-width="14" stroke-miterlimit="10" cx="-3470.43" cy="136.868" r="12"/>
	
		<line fill="none" stroke="#F0522E" stroke-width="14" stroke-linecap="round" stroke-miterlimit="10" x1="-3561.462" y1="89.137" x2="-3482.43" y2="89.137"/>
	<circle fill="none" stroke="#F0522E" stroke-width="14" stroke-miterlimit="10" cx="-3470.43" cy="89.137" r="12"/>
	
		<line fill="none" stroke="#F0522E" stroke-width="14" stroke-linecap="round" stroke-miterlimit="10" x1="-3561.462" y1="185.254" x2="-3482.43" y2="185.254"/>
	<circle fill="none" stroke="#F0522E" stroke-width="14" stroke-miterlimit="10" cx="-3470.43" cy="185.254" r="12"/>
	<path fill="none" stroke="#F0522E" stroke-width="14" stroke-linecap="round" stroke-miterlimit="10" d="M-3842.656,275.669
		c78.168,78.169,204.675,78.169,282.843,0"/>
	
		<circle fill="none" stroke="#F0522E" stroke-width="14" stroke-linecap="round" stroke-miterlimit="10" cx="-3703.014" cy="334.295" r="12"/>
	
		<circle fill="none" stroke="#F0522E" stroke-width="14" stroke-linecap="round" stroke-miterlimit="10" cx="-3619.338" cy="316.941" r="12"/>
	
		<circle fill="none" stroke="#F0522E" stroke-width="14" stroke-linecap="round" stroke-miterlimit="10" cx="-3784.131" cy="316.942" r="12"/>
</g>
<circle fill="none" stroke="#CE1C64" stroke-width="14" stroke-miterlimit="10" cx="-2790.43" cy="87.24" r="13"/>
<circle fill="none" stroke="#CE1C64" stroke-width="14" stroke-miterlimit="10" cx="-2790.43" cy="39.51" r="13"/>
<circle fill="none" stroke="#CE1C64" stroke-width="14" stroke-miterlimit="10" cx="-2790.43" cy="135.627" r="13"/>
<g>
	<g>
		<circle fill="none" stroke="#CE1C64" stroke-width="14" stroke-miterlimit="10" cx="-3009.893" cy="-20.344" r="31.451"/>
		<polyline fill="none" stroke="#CE1C64" stroke-width="14" stroke-miterlimit="10" points="-3013.014,68.175 -3077.174,39.179 
			-3016.518,11.775 		"/>
		<polyline fill="none" stroke="#CE1C64" stroke-width="14" stroke-miterlimit="10" points="-2939.338,-5.928 -2955.533,39.838 
			-3009.041,14.491 		"/>
		<polyline fill="none" stroke="#CE1C64" stroke-width="14" stroke-miterlimit="10" points="-3116.131,134.342 -3089.52,108.536 
			-3050.809,149.665 -3010.23,9.005 		"/>
		<polyline fill="none" stroke="#CE1C64" stroke-width="14" stroke-miterlimit="10" points="-3000.002,205.31 -3040.615,205.31 
			-3010.23,146.438 -3040.615,114.33 		"/>
		<circle fill="#CE1C64" cx="-3010.014" cy="69.175" r="13"/>
	</g>
	<circle fill="#CE1C64" cx="-2939.338" cy="-5.928" r="13"/>
</g>
<g>
	<path fill="#CE1C65" d="M-3199.799-71.793l23.952-28.303l5.726,4.845l-15.057,17.792l7.053,5.97l14.069-16.624l5.68,4.807
		l-14.069,16.624l12.413,10.505l-8.896,10.51L-3199.799-71.793z"/>
	<path fill="#CE1C65" d="M-3152.588-119.2l25.273,31.572l-10.751,8.604l-25.272-31.572L-3152.588-119.2z"/>
	<path fill="#CE1C65" d="M-3124.157-128.533l-14.487,7.448l-3.511-6.83l41.46-21.316l3.511,6.83l-14.728,7.571l14.977,29.135
		l-12.246,6.296L-3124.157-128.533z"/>
	<path fill="#CE1C65" d="M-3036.648-124.38c-2.281,1.36-7.627,3.454-14.835,5.033c-20.483,4.489-32.895-1.697-35.361-12.951
		c-2.954-13.48,9.818-24.142,27.752-28.073c6.945-1.521,12.426-1.74,14.979-1.44l-1.172,7.689c-2.892-0.164-6.826-0.04-11.573,1.001
		c-10.637,2.331-17.963,8.421-16.037,17.212c1.735,7.913,9.859,11.353,21.815,8.733c4.043-0.886,8.398-2.455,10.882-3.736
		L-3036.648-124.38z"/>
	<path fill="#CE1C65" d="M-3012.791-162.957l-1.388,15.478l22.5,2.021l1.388-15.478l13.627,1.225l-3.611,40.279l-13.627-1.225
		l1.512-16.852l-22.501-2.022l-1.512,16.853l-13.715-1.232l3.612-40.279L-3012.791-162.957z"/>
	<path fill="#CE1C65" d="M-2954.406-120.794l-8.114,7.782l-13.031-5.693l33.181-29.634l16.495,7.206l1.047,44.586l-13.526-5.909
		l-0.133-11.385L-2954.406-120.794z M-2937.563-120.901l-0.029-9.375c-0.029-2.631,0.182-5.813,0.317-8.372l-0.164-0.072
		c-1.786,1.838-3.836,4.282-5.68,6.03l-6.734,6.42L-2937.563-120.901z"/>
	<path fill="#CE1C65" d="M-2885.705-115.942l-24.004,32.544l-11.082-8.173l24.003-32.543L-2885.705-115.942z"/>
	<path fill="#CE1C65" d="M-2901.189-78.333l30.842-26.157l10.362,12.219l-3.153,19.196c-0.92,5.501-2.435,11.508-4.166,16.516
		l0.175,0.207c3.49-4.141,7.48-7.878,12.101-11.798l9.016-7.645l8.15,9.61l-30.843,26.157l-9.314-10.983l3.515-19.976
		c0.967-5.54,2.386-11.938,4.08-17.269l-0.221-0.167c-3.84,3.729-8.07,7.553-13.104,11.821l-9.289,7.879L-2901.189-78.333z"/>
</g>
<g>
	
		<line fill="none" stroke="#CE1C64" stroke-width="14" stroke-linecap="round" stroke-miterlimit="10" x1="-3158.105" y1="87.568" x2="-3237.137" y2="87.568"/>
	<circle fill="none" stroke="#CE1C64" stroke-width="14" stroke-miterlimit="10" cx="-3251.137" cy="87.568" r="13"/>
</g>
<g>
	
		<line fill="none" stroke="#CE1C64" stroke-width="14" stroke-linecap="round" stroke-miterlimit="10" x1="-3159.008" y1="39.838" x2="-3238.041" y2="39.838"/>
	<circle fill="none" stroke="#CE1C64" stroke-width="14" stroke-miterlimit="10" cx="-3252.041" cy="39.838" r="13"/>
</g>
<g>
	
		<line fill="none" stroke="#CE1C64" stroke-width="14" stroke-linecap="round" stroke-miterlimit="10" x1="-3159.008" y1="135.955" x2="-3238.041" y2="135.955"/>
	<circle fill="none" stroke="#CE1C64" stroke-width="14" stroke-miterlimit="10" cx="-3252.041" cy="135.955" r="13"/>
</g>
<line fill="none" stroke="#CE1C64" stroke-width="14" stroke-linecap="round" stroke-miterlimit="10" x1="-2883.463" y1="87.24" x2="-2804.43" y2="87.24"/>
<line fill="none" stroke="#CE1C64" stroke-width="14" stroke-linecap="round" stroke-miterlimit="10" x1="-2883.463" y1="39.51" x2="-2804.43" y2="39.51"/>
<line fill="none" stroke="#CE1C64" stroke-width="14" stroke-linecap="round" stroke-miterlimit="10" x1="-2883.463" y1="135.627" x2="-2804.43" y2="135.627"/>
<g>
	<path fill="none" stroke="#CE1C64" stroke-width="14.8492" stroke-linecap="round" stroke-miterlimit="10" d="M-3171.234,227.81
		c82.908,82.911,217.09,82.911,300,0"/>
	
		<circle fill="none" stroke="#CE1C64" stroke-width="18.5618" stroke-linecap="round" stroke-miterlimit="10" cx="-3023.121" cy="289.991" r="15.91"/>
	<path fill="none" stroke="#CE1C64" stroke-width="18.5615" stroke-linecap="round" stroke-miterlimit="10" d="M-2918.461,271.584
		c0,8.79-7.123,15.909-15.91,15.909c-8.789,0-15.91-7.119-15.91-15.909c0-8.783,7.121-15.908,15.91-15.908
		C-2925.584,255.676-2918.461,262.801-2918.461,271.584z"/>
	
		<circle fill="none" stroke="#CE1C64" stroke-width="18.5615" stroke-linecap="round" stroke-miterlimit="10" cx="-3109.16" cy="271.585" r="15.91"/>
</g>
<g>
	
		<line fill="none" stroke="#025960" stroke-width="3.0191" stroke-linecap="round" stroke-miterlimit="10" x1="-2675.168" y1="74.158" x2="-2695.052" y2="74.158"/>
	<circle fill="none" stroke="#025960" stroke-width="3.0191" stroke-miterlimit="10" cx="-2698.574" cy="74.158" r="3.271"/>
	<path fill="none" stroke="#025960" stroke-width="3.0191" stroke-linecap="round" stroke-miterlimit="10" d="M-2675.395,62.149
		h-19.885"/>
	<circle fill="none" stroke="#025960" stroke-width="3.0191" stroke-miterlimit="10" cx="-2698.802" cy="62.149" r="3.271"/>
	
		<line fill="none" stroke="#025960" stroke-width="3.0191" stroke-linecap="round" stroke-miterlimit="10" x1="-2675.395" y1="86.332" x2="-2695.279" y2="86.332"/>
	<circle fill="none" stroke="#025960" stroke-width="3.0191" stroke-miterlimit="10" cx="-2698.802" cy="86.332" r="3.271"/>
</g>
<text transform="matrix(1.5 0 0 1 -2663.3809 86.4312)" fill="#CE1C65" font-family="'Arial-BoldMT'" font-size="34.002">FITCHAIN</text>
<g>
	
		<line fill="none" stroke="#025960" stroke-width="3.0191" stroke-linecap="round" stroke-miterlimit="10" x1="-2417.072" y1="74.075" x2="-2397.188" y2="74.075"/>
	<circle fill="none" stroke="#025960" stroke-width="3.0191" stroke-miterlimit="10" cx="-2393.667" cy="74.075" r="3.271"/>
	<path fill="none" stroke="#025960" stroke-width="3.0191" stroke-linecap="round" stroke-miterlimit="10" d="M-2396.961,62.066
		h-19.885"/>
	<circle fill="none" stroke="#025960" stroke-width="3.0191" stroke-miterlimit="10" cx="-2393.438" cy="62.066" r="3.271"/>
	
		<line fill="none" stroke="#025960" stroke-width="3.0191" stroke-linecap="round" stroke-miterlimit="10" x1="-2416.846" y1="86.249" x2="-2396.961" y2="86.249"/>
	<circle fill="none" stroke="#025960" stroke-width="3.0191" stroke-miterlimit="10" cx="-2393.438" cy="86.249" r="3.271"/>
</g>
<circle fill="none" stroke="#FFFFFF" stroke-width="14" stroke-miterlimit="10" cx="-1239.194" cy="85.986" r="13"/>
<circle fill="none" stroke="#FFFFFF" stroke-width="14" stroke-miterlimit="10" cx="-1239.194" cy="38.256" r="13"/>
<circle fill="none" stroke="#FFFFFF" stroke-width="14" stroke-miterlimit="10" cx="-1239.194" cy="134.373" r="13"/>
<g>
	<g>
		<circle fill="none" stroke="#FFFFFF" stroke-width="14" stroke-miterlimit="10" cx="-1458.657" cy="-21.598" r="31.451"/>
		<polyline fill="none" stroke="#FFFFFF" stroke-width="14" stroke-miterlimit="10" points="-1461.778,66.921 -1525.938,37.925 
			-1465.282,10.521 		"/>
		<polyline fill="none" stroke="#FFFFFF" stroke-width="14" stroke-miterlimit="10" points="-1388.103,-7.182 -1404.298,38.584 
			-1457.806,13.237 		"/>
		<polyline fill="none" stroke="#FFFFFF" stroke-width="14" stroke-miterlimit="10" points="-1564.896,133.088 -1538.284,107.282 
			-1499.573,148.411 -1458.995,7.751 		"/>
		<polyline fill="none" stroke="#FFFFFF" stroke-width="14" stroke-miterlimit="10" points="-1448.767,204.056 -1489.38,204.056 
			-1458.995,145.185 -1489.38,113.076 		"/>
		<circle fill="#FFFFFF" cx="-1458.778" cy="67.921" r="13"/>
	</g>
	<circle fill="#FFFFFF" cx="-1388.103" cy="-7.182" r="13"/>
</g>
<g>
	<path fill="#FFFFFF" d="M-1648.563-73.047l23.952-28.303l5.726,4.845l-15.057,17.792l7.053,5.97l14.069-16.624l5.68,4.807
		l-14.069,16.624l12.413,10.505l-8.896,10.51L-1648.563-73.047z"/>
	<path fill="#FFFFFF" d="M-1601.353-120.454l25.273,31.572l-10.751,8.604l-25.272-31.572L-1601.353-120.454z"/>
	<path fill="#FFFFFF" d="M-1572.922-129.787l-14.487,7.448l-3.511-6.83l41.46-21.316l3.511,6.83l-14.728,7.571l14.977,29.135
		l-12.246,6.296L-1572.922-129.787z"/>
	<path fill="#FFFFFF" d="M-1485.413-125.634c-2.281,1.36-7.627,3.454-14.835,5.033c-20.483,4.489-32.895-1.697-35.361-12.951
		c-2.954-13.48,9.818-24.142,27.752-28.073c6.945-1.521,12.426-1.74,14.979-1.44l-1.172,7.689c-2.892-0.164-6.826-0.04-11.573,1.001
		c-10.637,2.331-17.963,8.421-16.037,17.212c1.735,7.913,9.859,11.353,21.815,8.733c4.043-0.886,8.398-2.455,10.882-3.736
		L-1485.413-125.634z"/>
	<path fill="#FFFFFF" d="M-1461.556-164.21l-1.388,15.478l22.5,2.021l1.388-15.478l13.627,1.225l-3.611,40.279l-13.627-1.225
		l1.512-16.852l-22.501-2.022l-1.512,16.853l-13.715-1.232l3.612-40.279L-1461.556-164.21z"/>
	<path fill="#FFFFFF" d="M-1403.171-122.048l-8.114,7.782l-13.031-5.693l33.181-29.634l16.495,7.206l1.047,44.586l-13.526-5.909
		l-0.133-11.385L-1403.171-122.048z M-1386.328-122.155l-0.029-9.375c-0.029-2.631,0.182-5.813,0.317-8.372l-0.164-0.072
		c-1.786,1.838-3.836,4.282-5.68,6.03l-6.734,6.42L-1386.328-122.155z"/>
	<path fill="#FFFFFF" d="M-1334.47-117.196l-24.004,32.544l-11.082-8.173l24.003-32.543L-1334.47-117.196z"/>
	<path fill="#FFFFFF" d="M-1349.954-79.587l30.842-26.157l10.362,12.219l-3.153,19.196c-0.92,5.501-2.435,11.508-4.166,16.516
		l0.175,0.207c3.49-4.141,7.48-7.878,12.101-11.798l9.016-7.645l8.15,9.61l-30.843,26.157l-9.314-10.983l3.515-19.976
		c0.967-5.54,2.386-11.938,4.08-17.269l-0.221-0.167c-3.84,3.729-8.07,7.553-13.104,11.821l-9.289,7.879L-1349.954-79.587z"/>
</g>
<g>
	
		<line fill="none" stroke="#FFFFFF" stroke-width="14" stroke-linecap="round" stroke-miterlimit="10" x1="-1606.87" y1="86.314" x2="-1685.901" y2="86.314"/>
	<circle fill="none" stroke="#FFFFFF" stroke-width="14" stroke-miterlimit="10" cx="-1699.901" cy="86.314" r="13"/>
</g>
<g>
	
		<line fill="none" stroke="#FFFFFF" stroke-width="14" stroke-linecap="round" stroke-miterlimit="10" x1="-1607.772" y1="38.584" x2="-1686.806" y2="38.584"/>
	<circle fill="none" stroke="#FFFFFF" stroke-width="14" stroke-miterlimit="10" cx="-1700.806" cy="38.584" r="13"/>
</g>
<g>
	
		<line fill="none" stroke="#FFFFFF" stroke-width="14" stroke-linecap="round" stroke-miterlimit="10" x1="-1607.772" y1="134.701" x2="-1686.806" y2="134.701"/>
	<circle fill="none" stroke="#FFFFFF" stroke-width="14" stroke-miterlimit="10" cx="-1700.806" cy="134.701" r="13"/>
</g>
<line fill="none" stroke="#FFFFFF" stroke-width="14" stroke-linecap="round" stroke-miterlimit="10" x1="-1332.228" y1="85.986" x2="-1253.194" y2="85.986"/>
<line fill="none" stroke="#FFFFFF" stroke-width="14" stroke-linecap="round" stroke-miterlimit="10" x1="-1332.228" y1="38.256" x2="-1253.194" y2="38.256"/>
<line fill="none" stroke="#FFFFFF" stroke-width="14" stroke-linecap="round" stroke-miterlimit="10" x1="-1332.228" y1="134.373" x2="-1253.194" y2="134.373"/>
<g>
	<path fill="none" stroke="#FFFFFF" stroke-width="14.8492" stroke-linecap="round" stroke-miterlimit="10" d="M-1619.999,226.556
		c82.908,82.91,217.09,82.91,300,0"/>
	
		<circle fill="none" stroke="#FFFFFF" stroke-width="18.5618" stroke-linecap="round" stroke-miterlimit="10" cx="-1471.886" cy="288.737" r="15.91"/>
	<path fill="none" stroke="#FFFFFF" stroke-width="18.5615" stroke-linecap="round" stroke-miterlimit="10" d="M-1367.226,270.33
		c0,8.79-7.123,15.909-15.91,15.909c-8.789,0-15.91-7.119-15.91-15.909c0-8.783,7.121-15.908,15.91-15.908
		C-1374.349,254.421-1367.226,261.546-1367.226,270.33z"/>
	
		<circle fill="none" stroke="#FFFFFF" stroke-width="18.5615" stroke-linecap="round" stroke-miterlimit="10" cx="-1557.925" cy="270.332" r="15.91"/>
</g>
<circle fill="none" stroke="#99D8DF" stroke-width="14" stroke-miterlimit="10" cx="-698.268" cy="86.306" r="13"/>
<circle fill="none" stroke="#99D8DF" stroke-width="14" stroke-miterlimit="10" cx="-698.268" cy="38.575" r="13"/>
<circle fill="none" stroke="#99D8DF" stroke-width="14" stroke-miterlimit="10" cx="-698.268" cy="134.692" r="13"/>
<g>
	<g>
		<circle fill="none" stroke="#99D8DF" stroke-width="14" stroke-miterlimit="10" cx="-917.73" cy="-21.278" r="31.451"/>
		<polyline fill="none" stroke="#99D8DF" stroke-width="14" stroke-miterlimit="10" points="-920.852,67.24 -985.012,38.244 
			-924.355,10.841 		"/>
		<polyline fill="none" stroke="#99D8DF" stroke-width="14" stroke-miterlimit="10" points="-847.176,-6.862 -863.371,38.903 
			-916.879,13.557 		"/>
		<polyline fill="none" stroke="#99D8DF" stroke-width="14" stroke-miterlimit="10" points="-1023.969,133.407 -997.357,107.602 
			-958.646,148.73 -918.068,8.07 		"/>
		<polyline fill="none" stroke="#99D8DF" stroke-width="14" stroke-miterlimit="10" points="-907.84,204.375 -948.453,204.375 
			-918.068,145.504 -948.453,113.396 		"/>
		<circle fill="#99D8DF" cx="-917.852" cy="68.24" r="13"/>
	</g>
	<circle fill="#99D8DF" cx="-847.176" cy="-6.862" r="13"/>
</g>
<g>
	<path fill="#223843" d="M-1107.637-72.728l23.952-28.303l5.726,4.845l-15.057,17.792l7.053,5.97l14.069-16.624l5.68,4.807
		l-14.069,16.624l12.413,10.505l-8.896,10.51L-1107.637-72.728z"/>
	<path fill="#223843" d="M-1060.426-120.135l25.273,31.572l-10.751,8.604l-25.272-31.572L-1060.426-120.135z"/>
	<path fill="#223843" d="M-1031.995-129.468l-14.487,7.448l-3.511-6.83l41.46-21.316l3.511,6.83l-14.728,7.571l14.977,29.135
		l-12.246,6.296L-1031.995-129.468z"/>
	<path fill="#223843" d="M-944.486-125.315c-2.281,1.36-7.627,3.454-14.835,5.033c-20.483,4.489-32.895-1.697-35.361-12.951
		c-2.954-13.48,9.818-24.142,27.752-28.073c6.945-1.521,12.426-1.74,14.979-1.44l-1.172,7.689c-2.892-0.164-6.826-0.04-11.573,1.001
		c-10.637,2.331-17.963,8.421-16.037,17.212c1.735,7.913,9.859,11.353,21.815,8.733c4.043-0.886,8.398-2.455,10.882-3.736
		L-944.486-125.315z"/>
	<path fill="#223843" d="M-920.629-163.891l-1.388,15.478l22.5,2.021l1.388-15.478l13.627,1.225l-3.611,40.279l-13.627-1.225
		l1.512-16.852l-22.501-2.022l-1.512,16.853l-13.715-1.232l3.612-40.279L-920.629-163.891z"/>
	<path fill="#223843" d="M-862.244-121.729l-8.114,7.782l-13.031-5.693l33.181-29.634l16.495,7.206l1.047,44.586l-13.526-5.909
		l-0.133-11.385L-862.244-121.729z M-845.401-121.836l-0.029-9.375c-0.029-2.631,0.182-5.813,0.317-8.372l-0.164-0.072
		c-1.786,1.838-3.836,4.282-5.68,6.03l-6.734,6.42L-845.401-121.836z"/>
	<path fill="#223843" d="M-793.543-116.877l-24.004,32.544l-11.082-8.173l24.003-32.543L-793.543-116.877z"/>
	<path fill="#223843" d="M-809.027-79.268l30.842-26.157l10.362,12.219l-3.153,19.196c-0.92,5.501-2.435,11.508-4.166,16.516
		l0.175,0.207c3.49-4.141,7.48-7.878,12.101-11.798l9.016-7.645l8.15,9.61l-30.843,26.157l-9.314-10.983l3.515-19.976
		c0.967-5.54,2.386-11.938,4.08-17.269l-0.221-0.167c-3.84,3.729-8.07,7.553-13.104,11.821l-9.289,7.879L-809.027-79.268z"/>
</g>
<g>
	
		<line fill="none" stroke="#99D8DF" stroke-width="14" stroke-linecap="round" stroke-miterlimit="10" x1="-1065.943" y1="86.634" x2="-1144.975" y2="86.634"/>
	<circle fill="none" stroke="#99D8DF" stroke-width="14" stroke-miterlimit="10" cx="-1158.975" cy="86.634" r="13"/>
</g>
<g>
	
		<line fill="none" stroke="#99D8DF" stroke-width="14" stroke-linecap="round" stroke-miterlimit="10" x1="-1066.846" y1="38.903" x2="-1145.879" y2="38.903"/>
	<circle fill="none" stroke="#99D8DF" stroke-width="14" stroke-miterlimit="10" cx="-1159.879" cy="38.903" r="13"/>
</g>
<g>
	
		<line fill="none" stroke="#99D8DF" stroke-width="14" stroke-linecap="round" stroke-miterlimit="10" x1="-1066.846" y1="135.021" x2="-1145.879" y2="135.021"/>
	<circle fill="none" stroke="#99D8DF" stroke-width="14" stroke-miterlimit="10" cx="-1159.879" cy="135.021" r="13"/>
</g>
<line fill="none" stroke="#99D8DF" stroke-width="14" stroke-linecap="round" stroke-miterlimit="10" x1="-791.301" y1="86.306" x2="-712.268" y2="86.306"/>
<line fill="none" stroke="#99D8DF" stroke-width="14" stroke-linecap="round" stroke-miterlimit="10" x1="-791.301" y1="38.575" x2="-712.268" y2="38.575"/>
<line fill="none" stroke="#99D8DF" stroke-width="14" stroke-linecap="round" stroke-miterlimit="10" x1="-791.301" y1="134.692" x2="-712.268" y2="134.692"/>
<g>
	<path fill="none" stroke="#223843" stroke-width="14.8492" stroke-linecap="round" stroke-miterlimit="10" d="M-1079.072,226.875
		c82.908,82.91,217.09,82.91,300,0"/>
	
		<circle fill="none" stroke="#223843" stroke-width="18.5618" stroke-linecap="round" stroke-miterlimit="10" cx="-930.959" cy="289.056" r="15.91"/>
	<path fill="none" stroke="#223843" stroke-width="18.5615" stroke-linecap="round" stroke-miterlimit="10" d="M-826.299,270.649
		c0,8.79-7.123,15.909-15.91,15.909c-8.789,0-15.91-7.119-15.91-15.909c0-8.783,7.121-15.908,15.91-15.908
		C-833.422,254.741-826.299,261.866-826.299,270.649z"/>
	
		<circle fill="none" stroke="#223843" stroke-width="18.5615" stroke-linecap="round" stroke-miterlimit="10" cx="-1016.998" cy="270.651" r="15.91"/>
</g>
<circle fill="none" stroke="#223843" stroke-width="14" stroke-miterlimit="10" cx="-159.194" cy="89.371" r="13"/>
<circle fill="none" stroke="#223843" stroke-width="14" stroke-miterlimit="10" cx="-159.194" cy="41.641" r="13"/>
<circle fill="none" stroke="#223843" stroke-width="14" stroke-miterlimit="10" cx="-159.194" cy="137.758" r="13"/>
<g>
	<g>
		<circle fill="none" stroke="#223843" stroke-width="14" stroke-miterlimit="10" cx="-378.657" cy="-18.213" r="31.451"/>
		<polyline fill="none" stroke="#223843" stroke-width="14" stroke-miterlimit="10" points="-381.778,70.306 -445.938,41.31 
			-385.282,13.906 		"/>
		<polyline fill="none" stroke="#223843" stroke-width="14" stroke-miterlimit="10" points="-308.103,-3.797 -324.298,41.969 
			-377.806,16.622 		"/>
		<polyline fill="none" stroke="#223843" stroke-width="14" stroke-miterlimit="10" points="-484.896,136.473 -458.284,110.667 
			-419.573,151.796 -378.995,11.136 		"/>
		<polyline fill="none" stroke="#223843" stroke-width="14" stroke-miterlimit="10" points="-368.767,207.441 -409.38,207.441 
			-378.995,148.569 -409.38,116.461 		"/>
		<circle fill="#223843" cx="-378.778" cy="71.306" r="13"/>
	</g>
	<circle fill="#223843" cx="-308.103" cy="-3.797" r="13"/>
</g>
<g>
	<path fill="#223843" d="M-568.563-69.663l23.952-28.303l5.726,4.845l-15.057,17.792l7.053,5.97l14.069-16.624l5.68,4.807
		l-14.069,16.624l12.413,10.505l-8.896,10.51L-568.563-69.663z"/>
	<path fill="#223843" d="M-521.353-117.069l25.273,31.572l-10.751,8.604l-25.272-31.572L-521.353-117.069z"/>
	<path fill="#223843" d="M-492.922-126.402l-14.487,7.448l-3.511-6.83l41.46-21.316l3.511,6.83l-14.728,7.571l14.977,29.135
		l-12.246,6.296L-492.922-126.402z"/>
	<path fill="#223843" d="M-405.413-122.25c-2.281,1.36-7.627,3.454-14.835,5.033c-20.483,4.489-32.895-1.697-35.361-12.951
		c-2.954-13.48,9.818-24.142,27.752-28.073c6.945-1.521,12.426-1.74,14.979-1.44l-1.172,7.689c-2.892-0.164-6.826-0.04-11.573,1.001
		c-10.637,2.331-17.963,8.421-16.037,17.212c1.735,7.913,9.859,11.353,21.815,8.733c4.043-0.886,8.398-2.455,10.882-3.736
		L-405.413-122.25z"/>
	<path fill="#223843" d="M-381.556-160.826l-1.388,15.478l22.5,2.021l1.388-15.478l13.627,1.225l-3.611,40.279l-13.627-1.225
		l1.512-16.852l-22.501-2.022l-1.512,16.853l-13.715-1.232l3.612-40.279L-381.556-160.826z"/>
	<path fill="#223843" d="M-323.171-118.664l-8.114,7.782l-13.031-5.693l33.181-29.634l16.495,7.206l1.047,44.586l-13.526-5.909
		l-0.133-11.385L-323.171-118.664z M-306.328-118.771l-0.029-9.375c-0.029-2.631,0.182-5.813,0.317-8.372l-0.164-0.072
		c-1.786,1.838-3.836,4.282-5.68,6.03l-6.734,6.42L-306.328-118.771z"/>
	<path fill="#223843" d="M-254.47-113.812l-24.004,32.544l-11.082-8.173l24.003-32.543L-254.47-113.812z"/>
	<path fill="#223843" d="M-269.954-76.203l30.842-26.157l10.362,12.219l-3.153,19.196c-0.92,5.501-2.435,11.508-4.166,16.516
		l0.175,0.207c3.49-4.141,7.48-7.878,12.101-11.798l9.016-7.645l8.15,9.61l-30.843,26.157l-9.314-10.983l3.515-19.976
		c0.967-5.54,2.386-11.938,4.08-17.269l-0.221-0.167c-3.84,3.729-8.07,7.553-13.104,11.821l-9.289,7.879L-269.954-76.203z"/>
</g>
<g>
	
		<line fill="none" stroke="#223843" stroke-width="14" stroke-linecap="round" stroke-miterlimit="10" x1="-526.87" y1="89.699" x2="-605.901" y2="89.699"/>
	<circle fill="none" stroke="#223843" stroke-width="14" stroke-miterlimit="10" cx="-619.901" cy="89.699" r="13"/>
</g>
<g>
	
		<line fill="none" stroke="#223843" stroke-width="14" stroke-linecap="round" stroke-miterlimit="10" x1="-527.772" y1="41.969" x2="-606.806" y2="41.969"/>
	<circle fill="none" stroke="#223843" stroke-width="14" stroke-miterlimit="10" cx="-620.806" cy="41.969" r="13"/>
</g>
<g>
	
		<line fill="none" stroke="#223843" stroke-width="14" stroke-linecap="round" stroke-miterlimit="10" x1="-527.772" y1="138.086" x2="-606.806" y2="138.086"/>
	<circle fill="none" stroke="#223843" stroke-width="14" stroke-miterlimit="10" cx="-620.806" cy="138.086" r="13"/>
</g>
<line fill="none" stroke="#223843" stroke-width="14" stroke-linecap="round" stroke-miterlimit="10" x1="-252.228" y1="89.371" x2="-173.194" y2="89.371"/>
<line fill="none" stroke="#223843" stroke-width="14" stroke-linecap="round" stroke-miterlimit="10" x1="-252.228" y1="41.641" x2="-173.194" y2="41.641"/>
<line fill="none" stroke="#223843" stroke-width="14" stroke-linecap="round" stroke-miterlimit="10" x1="-252.228" y1="137.758" x2="-173.194" y2="137.758"/>
<g>
	<path fill="none" stroke="#223843" stroke-width="14.8492" stroke-linecap="round" stroke-miterlimit="10" d="M-539.999,229.941
		c82.908,82.91,217.09,82.91,300,0"/>
	
		<circle fill="none" stroke="#223843" stroke-width="18.5618" stroke-linecap="round" stroke-miterlimit="10" cx="-391.886" cy="292.122" r="15.91"/>
	<path fill="none" stroke="#223843" stroke-width="18.5615" stroke-linecap="round" stroke-miterlimit="10" d="M-287.226,273.714
		c0,8.79-7.123,15.909-15.91,15.909c-8.789,0-15.91-7.119-15.91-15.909c0-8.783,7.121-15.908,15.91-15.908
		C-294.349,257.806-287.226,264.931-287.226,273.714z"/>
	
		<circle fill="none" stroke="#223843" stroke-width="18.5615" stroke-linecap="round" stroke-miterlimit="10" cx="-477.925" cy="273.716" r="15.91"/>
</g>
<g>
	<line fill="none" stroke="#223843" stroke-width="10" stroke-miterlimit="10" x1="274" y1="81.466" x2="299" y2="81.466"/>
	<g>
		<path fill="none" stroke="#223843" stroke-width="10" stroke-miterlimit="10" d="M100,129.701C100,144.226,88.807,156,75,156l0,0
			c-13.807,0-25-11.774-25-26.299V32.299C50,17.774,61.193,6,75,6l0,0c13.807,0,25,11.774,25,26.299V129.701z"/>
		<path fill="none" stroke="#223843" stroke-width="10" stroke-miterlimit="10" d="M250,128.701C250,143.226,238.807,155,225,155
			l0,0c-13.807,0-25-11.774-25-26.299V31.299C200,16.774,211.193,5,225,5l0,0c13.807,0,25,11.774,25,26.299V128.701z"/>
		<path fill="#213843" stroke="#223843" stroke-width="10" stroke-miterlimit="10" d="M245,58.306c13.808,0,25,11.193,25,25
			c0,13.808-11.192,25-25,25"/>
		<path fill="#213843" stroke="#223843" stroke-width="10" stroke-miterlimit="10" d="M54,105c-13.808,0-25-11.193-25-25
			c0-13.807,11.192-25,25-25"/>
		<line fill="none" stroke="#223843" stroke-width="10" stroke-miterlimit="10" x1="100" y1="81.466" x2="200" y2="81.466"/>
		<line fill="none" stroke="#223843" stroke-width="10" stroke-miterlimit="10" x1="0" y1="80" x2="25" y2="80"/>
	</g>
</g>
</svg>
