<?xml version="1.0" encoding="utf-8"?>
<!-- Generator: Adobe Illustrator 16.0.0, SVG Export Plug-In . SVG Version: 6.00 Build 0)  -->
<!DOCTYPE svg PUBLIC "-//W3C//DTD SVG 1.1//EN" "http://www.w3.org/Graphics/SVG/1.1/DTD/svg11.dtd">
<svg version="1.1" id="Layer_1" xmlns="http://www.w3.org/2000/svg" xmlns:xlink="http://www.w3.org/1999/xlink" x="0px" y="0px"
	 width="400px" height="400px" viewBox="0 0 400 400" enable-background="new 0 0 400 400" xml:space="preserve">
<path fill="#4B5369" d="M283.846,181.69c-7.392,0-14.373,1.747-20.567,4.837l-22.164-36.938v-6.033h8.94
	c3.226,0,5.837-2.496,5.837-5.571c0-3.078-2.611-5.572-5.837-5.572h-25.468c-3.223,0-5.837,2.494-5.837,5.572
	c0,3.075,2.614,5.571,5.837,5.571h9.814l0.187,6.517l-0.229,0.38h-79.634l13.046-29.171l-5.511,0.2
	c-0.022,0.001-2.27,0.08-5.18-0.055c-6.848-0.32-14.697,0.234-21.417,1.509c-3.313,0.626-6.292,1.407-8.849,2.316
	c-2.755,0.979-4.95,2.084-6.522,3.286c-2.728,2.083-3.176,4.137-3.072,5.495c0.104,1.354,0.858,3.322,3.875,5.007
	c1.74,0.967,4.077,1.753,6.949,2.335l1.913-6.029c-2.538-0.515-3.914-1.092-4.616-1.482c-0.269-0.15-0.442-0.274-0.552-0.364
	c0.095-0.105,0.247-0.252,0.487-0.436c0.639-0.488,1.912-1.251,4.347-2.115c2.139-0.762,4.678-1.423,7.55-1.966
	c3.021-0.574,6.259-0.985,9.624-1.222c3.365-0.237,6.63-0.285,9.708-0.14c0.176,0.007,0.348,0.015,0.518,0.022l-10.202,22.81h-7.551
	l4.1,7.716l-11.716,26.197c-4.845-1.728-10.061-2.676-15.5-2.676C90.665,181.69,70,202.354,70,227.844s20.665,46.153,46.154,46.153
	c25.49,0,46.153-20.663,46.153-46.153c0-17.489-9.728-32.703-24.066-40.533l9.421-21.065l30.617,57.618
	c-0.378,1.262-0.587,2.596-0.587,3.98c0,7.646,6.199,13.846,13.845,13.846c0.776,0,1.533-0.08,2.274-0.202l2.855,12.533h-1.128
	c-1.357,0-2.46,0.689-2.46,1.538c0,0.851,1.102,1.538,2.46,1.538h7.387c1.356,0,2.459-0.688,2.459-1.538
	c0-0.849-1.103-1.538-2.459-1.538h-1.834l-3.166-13.899c3.373-1.759,5.922-4.862,6.95-8.604h32.976
	c1.874,23.771,21.744,42.479,45.996,42.479c25.491,0,46.154-20.663,46.154-46.153S309.337,181.69,283.846,181.69z M153.295,227.844
	c0,20.513-16.629,37.144-37.143,37.144s-37.142-16.631-37.142-37.144s16.629-37.143,37.142-37.143c4.129,0,8.095,0.684,11.805,1.927
	l-7.658,17.125c-1.335-0.306-2.719-0.481-4.147-0.481c-10.255,0-18.571,8.317-18.571,18.572s8.316,18.572,18.571,18.572
	s18.571-8.315,18.571-18.572c0-6.254-3.102-11.774-7.84-15.141l7.659-17.125C145.741,201.976,153.295,214.023,153.295,227.844z
	 M117.937,232.71l6.413-14.338c2.653,2.299,4.339,5.685,4.339,9.472c0,6.924-5.612,12.533-12.535,12.533
	s-12.536-5.609-12.536-12.533c0-6.926,5.613-12.536,12.536-12.536c0.547,0,1.083,0.048,1.611,0.115l-6.813,15.233L117.937,232.71z
	 M237.902,160.112h0.189l18.355,30.593c-9.86,7.286-16.705,18.403-18.357,31.153h-34.082c-0.443-0.921-0.979-1.786-1.605-2.58
	L237.902,160.112z M290.272,231.518l-9.491-15.818c0.982-0.247,2.005-0.393,3.063-0.393c6.925,0,12.534,5.611,12.534,12.537
	c0,6.925-5.609,12.534-12.534,12.534c-5.646,0-10.417-3.729-11.987-8.86H290.272z M272.826,221.858
	c0.352-0.646,0.764-1.252,1.219-1.822l1.094,1.822H272.826z M266.279,221.858h-19.092c1.535-9.475,6.656-17.743,13.925-23.378
	l9.69,16.151C268.776,216.634,267.219,219.103,266.279,221.858z M227.275,158.715l-33.306,55.51
	c-0.649-0.115-1.313-0.184-1.991-0.204l-3.159-13.868h1.129c1.359,0,2.462-0.689,2.462-1.54c0-0.849-1.104-1.538-2.462-1.538h-7.384
	c-1.359,0-2.461,0.688-2.461,1.538c0,0.851,1.102,1.54,2.461,1.54h1.83l3.281,14.402c-1.447,0.42-2.796,1.064-4.006,1.902
	l-30.68-57.742H227.275z M283.845,264.987c-19.271,0-35.115-14.682-36.962-33.47h18.759c1.706,8.495,9.207,14.897,18.203,14.897
	c10.254,0,18.571-8.315,18.571-18.571c0-10.254-8.317-18.571-18.571-18.571c-2.199,0-4.3,0.402-6.257,1.104l-9.659-16.098
	c4.825-2.292,10.22-3.578,15.916-3.578c20.514,0,37.145,16.63,37.145,37.143S304.358,264.987,283.845,264.987z"/>
<g>
	<path d="M1040.914,60c-17.518,0-31.718,17.041-31.718,38.061c0,21.021,14.2,38.062,31.718,38.062
		c17.517,0,31.718-17.04,31.718-38.062C1072.632,77.041,1058.431,60,1040.914,60z M1040.914,129.779
		c-14.014,0-25.374-14.201-25.374-31.718c0-17.516,11.36-31.718,25.374-31.718s25.374,14.202,25.374,31.718
		C1066.288,115.578,1054.928,129.779,1040.914,129.779z"/>
	
		<line fill="none" stroke="#000000" stroke-width="6.3436" stroke-miterlimit="10" x1="1040.914" y1="136.123" x2="1040.914" y2="246.925"/>
	<polyline fill="none" stroke="#000000" stroke-width="6.3436" stroke-miterlimit="10" points="1009.196,284.986 997.145,212.245 
		1040.914,246.925 	"/>
	<path d="M970.465,283.473L970.465,283.473c2.438-9.502,10.281-15.699,17.521-13.842l16.384,4.201
		c7.241,1.857,11.134,11.064,8.697,20.566l0,0"/>
	<path fill="none" stroke="#000000" stroke-width="6.3436" stroke-miterlimit="10" d="M1039.011,135.277
		c-7.153,2.787-17.047-0.828-24.957,0.934c-11.073,2.464-19.982,11.93-27.946,19.167c-7.589,6.894-14.373,8.922-22.373,13.732"/>
	<circle cx="957.795" cy="172.475" r="12.669"/>
	<path fill="none" stroke="#000000" stroke-width="6.3436" stroke-miterlimit="10" d="M1040.914,134.854
		c7.155,2.787,17.047-0.828,24.959,0.933c11.073,2.464,19.98,11.931,27.946,19.167c7.588,6.893,14.372,8.922,22.373,13.732"/>
	<circle cx="1122.129" cy="172.051" r="12.669"/>
	<polyline fill="none" stroke="#000000" stroke-width="6.3436" stroke-miterlimit="10" points="1072.508,284.986 1084.562,212.245 
		1040.79,246.925 	"/>
	<path d="M1111.239,283.473L1111.239,283.473c-2.438-9.502-10.28-15.699-17.521-13.842l-16.385,4.201
		c-7.24,1.857-11.133,11.064-8.696,20.566l0,0"/>
	<path fill="none" stroke="#000000" stroke-width="2.5374" stroke-miterlimit="10" d="M1122.611,181.796
		c0,9.68-0.743,19.925,1.013,29.394c1.893,10.191,8.034,17.562,12.329,26.64c7.787,16.467,16.392,45.653,11.062,63.839
		c-5.803,19.795-38.38,28.406-55.901,31.57c-14.077,2.541-30.283,7.223-44.624,6.726h-12.977
		c-14.341,0.497-30.547-4.185-44.623-6.726c-17.522-3.164-50.101-11.775-55.902-31.57c-5.33-18.186,3.273-47.372,11.062-63.839
		c4.295-9.076,10.438-16.447,12.329-26.64c1.756-9.469,1.013-19.713,1.013-29.394"/>
	<rect x="1038.842" y="245.283" width="4.027" height="4.127"/>
</g>
<path fill="#FFFFFF" d="M1460.652,100c-12.514,0-22.655,12.172-22.655,27.187c0,15.016,10.143,27.187,22.655,27.187
	c12.512,0,22.654-12.171,22.654-27.187C1483.308,112.172,1473.164,100,1460.652,100z M1460.652,149.842
	c-10.011,0-18.124-10.144-18.124-22.656s8.113-22.655,18.124-22.655c10.01,0,18.124,10.144,18.124,22.655
	C1478.776,139.699,1470.662,149.842,1460.652,149.842z"/>
<line fill="none" stroke="#FFFFFF" stroke-width="4.5311" stroke-miterlimit="10" x1="1460.652" y1="154.374" x2="1460.652" y2="233.518"/>
<polyline fill="none" stroke="#FFFFFF" stroke-width="4.5311" stroke-miterlimit="10" points="1437.997,260.704 1429.388,208.747 
	1460.652,233.518 "/>
<path fill="#FFFFFF" d="M1410.331,259.624L1410.331,259.624c1.741-6.788,7.344-11.215,12.516-9.888l11.703,3
	c5.172,1.326,7.952,7.904,6.212,14.691l0,0"/>
<path fill="none" stroke="#FFFFFF" stroke-width="4.5311" stroke-miterlimit="10" d="M1459.293,153.77
	c-5.11,1.991-12.177-0.591-17.827,0.667c-7.91,1.76-14.272,8.522-19.962,13.69c-5.42,4.924-10.267,6.373-15.98,9.809"/>
<circle fill="#FFFFFF" cx="1401.282" cy="180.339" r="9.049"/>
<path fill="none" stroke="#FFFFFF" stroke-width="4.5311" stroke-miterlimit="10" d="M1460.652,153.467
	c5.109,1.991,12.177-0.591,17.826,0.667c7.909,1.76,14.272,8.522,19.963,13.69c5.42,4.924,10.266,6.374,15.979,9.809"/>
<circle fill="#FFFFFF" cx="1518.663" cy="180.037" r="9.05"/>
<polyline fill="none" stroke="#FFFFFF" stroke-width="4.5311" stroke-miterlimit="10" points="1483.219,260.704 1491.828,208.747 
	1460.562,233.518 "/>
<path fill="#FFFFFF" d="M1510.885,259.624L1510.885,259.624c-1.74-6.788-7.344-11.215-12.516-9.888l-11.703,3
	c-5.172,1.326-7.952,7.904-6.211,14.691l0,0"/>
<path fill="none" stroke="#FFFFFF" stroke-width="1.8124" stroke-miterlimit="10" d="M1519.007,186.998
	c0,6.915-0.53,14.232,0.724,20.995c1.353,7.28,5.738,12.546,8.808,19.028c5.562,11.762,11.708,32.608,7.899,45.6
	c-4.145,14.139-27.413,20.29-39.93,22.55c-10.055,1.815-21.63,5.159-31.874,4.804h-9.269c-10.243,0.355-21.819-2.988-31.873-4.804
	c-12.518-2.26-35.786-8.411-39.932-22.55c-3.808-12.99,2.338-33.838,7.9-45.6c3.068-6.482,7.455-11.748,8.807-19.028
	c1.254-6.763,0.725-14.08,0.725-20.995"/>
<rect x="1459.172" y="232.345" fill="#FFFFFF" width="2.877" height="2.948"/>
<g>
	<rect x="1805" y="233.699" width="150" height="50"/>
	<rect x="1855" y="174.394" width="100" height="50"/>
	<rect x="1905" y="116.301" width="50" height="50"/>
</g>
<g>
	<rect x="2225" y="233.699" fill="#FFFFFF" width="150" height="50"/>
	<rect x="2275" y="174.395" fill="#FFFFFF" width="100" height="50"/>
	<rect x="2325" y="116.301" fill="#FFFFFF" width="50" height="50"/>
</g>
</svg>
