<?xml version="1.0" encoding="utf-8"?>
<!-- Generator: Adobe Illustrator 16.0.0, SVG Export Plug-In . SVG Version: 6.00 Build 0)  -->
<!DOCTYPE svg PUBLIC "-//W3C//DTD SVG 1.1//EN" "http://www.w3.org/Graphics/SVG/1.1/DTD/svg11.dtd">
<svg version="1.1" id="Layer_1" xmlns="http://www.w3.org/2000/svg" xmlns:xlink="http://www.w3.org/1999/xlink" x="0px" y="0px"
	 width="21px" height="24px" viewBox="0 0 21 24" enable-background="new 0 0 21 24" xml:space="preserve">
<path fill="#0F4C81" d="M9.5,1C10.4,1,11,1.7,11,2.5S10.4,4,9.5,4C8.7,4,8,3.3,8,2.5S8.7,1,9.5,1L9.5,1z M9.5,0C8.2,0,7,1.1,7,2.5
	S8.2,5,9.5,5S12,3.9,12,2.5S10.9,0,9.5,0L9.5,0L9.5,0z"/>
<path fill="#0F4C81" d="M17,4l-3,1.7v2.4L10.3,6L5,9v3.6l-2-1.1l-3,1.7v3.5l3,1.7l3-1.7V15.6l4.5,2.4l5-3v-4.9L17,11l3-1.7V5.8L17,4
	L17,4z M10.3,7.2l3.8,2.1l-3.5,1.8l-4-1.8L10.3,7.2L10.3,7.2z M5,16.1l-2,1.2l-2-1.1v-2.3l2-1.2l2,1.1V16.1L5,16.1z M6,10.2l4,1.8
	v4.6L6,14.4V10.2L6,10.2z M11,16.5V12l3.5-1.8v4.2L11,16.5L11,16.5z M19,8.7l-2,1.2l-2-1.2V6.3l2-1.2l2,1.2V8.7L19,8.7z"/>
<path fill="#0F4C81" d="M2.5,4C3.4,4,4,4.7,4,5.5S3.4,7,2.5,7S1,6.3,1,5.5S1.7,4,2.5,4L2.5,4z M2.5,3C1.1,3,0,4.1,0,5.5S1.1,8,2.5,8
	S5,6.9,5,5.5S3.9,3,2.5,3L2.5,3L2.5,3z"/>
<path fill="#0F4C81" d="M11.5,20c0.8,0,1.5,0.7,1.5,1.5S12.4,23,11.5,23c-0.9,0-1.5-0.7-1.5-1.5S10.7,20,11.5,20L11.5,20z M11.5,19
	C10.1,19,9,20.1,9,21.5s1.1,2.5,2.5,2.5c1.4,0,2.5-1.1,2.5-2.5S12.9,19,11.5,19L11.5,19L11.5,19z"/>
<path fill="#0F4C81" d="M18.5,16c0.8,0,1.5,0.7,1.5,1.5S19.3,19,18.5,19S17,18.3,17,17.5S17.7,16,18.5,16L18.5,16z M18.5,15
	c-1.4,0-2.5,1.1-2.5,2.5s1.1,2.5,2.5,2.5s2.5-1.1,2.5-2.5S19.9,15,18.5,15L18.5,15L18.5,15z"/>
</svg>
