<?xml version="1.0" encoding="utf-8"?>
<!-- Generator: Adobe Illustrator 16.0.0, SVG Export Plug-In . SVG Version: 6.00 Build 0)  -->
<!DOCTYPE svg PUBLIC "-//W3C//DTD SVG 1.1//EN" "http://www.w3.org/Graphics/SVG/1.1/DTD/svg11.dtd">
<svg version="1.1" id="Layer_1" xmlns="http://www.w3.org/2000/svg" xmlns:xlink="http://www.w3.org/1999/xlink" x="0px" y="0px"
	 width="40px" height="40px" viewBox="0 0 40 40" enable-background="new 0 0 40 40" xml:space="preserve">
<path fill="#0F4C81" d="M19.999,4.113c-8.995,0-16.289,7.293-16.289,16.29c0,7.197,4.667,13.302,11.141,15.457
	c0.814,0.148,1.112-0.354,1.112-0.784c0-0.388-0.014-1.412-0.022-2.771c-4.531,0.983-5.487-2.185-5.487-2.185
	c-0.741-1.881-1.809-2.384-1.809-2.384c-1.479-1.01,0.112-0.989,0.112-0.989c1.635,0.114,2.495,1.68,2.495,1.68
	c1.453,2.488,3.812,1.771,4.741,1.354c0.148-1.053,0.569-1.771,1.034-2.178c-3.617-0.412-7.42-1.81-7.42-8.052
	c0-1.778,0.635-3.232,1.677-4.371c-0.167-0.412-0.727-2.068,0.16-4.311c0,0,1.368-0.438,4.479,1.67
	c1.299-0.361,2.693-0.542,4.078-0.548c1.384,0.006,2.776,0.187,4.078,0.548c3.11-2.108,4.476-1.67,4.476-1.67
	c0.889,2.243,0.329,3.899,0.162,4.311c1.043,1.139,1.674,2.593,1.674,4.371c0,6.259-3.809,7.636-7.438,8.037
	c0.585,0.504,1.105,1.498,1.105,3.019c0,2.178-0.021,3.934-0.021,4.469c0,0.436,0.293,0.941,1.12,0.783
	c6.468-2.158,11.13-8.26,11.13-15.456C36.289,11.406,28.996,4.113,19.999,4.113z"/>
</svg>
