<?xml version="1.0" encoding="utf-8"?>
<!-- Generator: Adobe Illustrator 16.0.0, SVG Export Plug-In . SVG Version: 6.00 Build 0)  -->
<!DOCTYPE svg PUBLIC "-//W3C//DTD SVG 1.1//EN" "http://www.w3.org/Graphics/SVG/1.1/DTD/svg11.dtd">
<svg version="1.1" id="Layer_1" xmlns="http://www.w3.org/2000/svg" xmlns:xlink="http://www.w3.org/1999/xlink" x="0px" y="0px"
	 width="400px" height="400px" viewBox="0 0 400 400" enable-background="new 0 0 400 400" xml:space="preserve">
<g id="Layer_1_1_">
	<path fill="#FFFFFF" d="M-2830.296,180.463c-27.45,0-49.704,22.253-49.704,49.704s22.254,49.704,49.704,49.704
		c27.451,0,49.703-22.253,49.703-49.704S-2802.846,180.463-2830.296,180.463z M-2830.297,271.588
		c-22.876,0-41.42-18.546-41.42-41.421s18.544-41.42,41.42-41.42c22.875,0,41.42,18.545,41.42,41.42
		S-2807.421,271.588-2830.297,271.588z"/>
	<path fill="#FFFFFF" d="M-2649.704,180.463c-27.451,0-49.706,22.253-49.706,49.704s22.255,49.704,49.706,49.704
		S-2600,257.618-2600,230.167S-2622.253,180.463-2649.704,180.463z M-2649.706,271.588c-22.874,0-41.422-18.546-41.422-41.421
		s18.548-41.42,41.422-41.42c22.876,0,41.423,18.545,41.423,41.42S-2626.83,271.588-2649.706,271.588z"/>
	<path fill="#FFFFFF" d="M-2830.297,211.941c-10.064,0-18.226,8.162-18.226,18.226s8.161,18.226,18.226,18.226
		c10.064,0,18.225-8.16,18.225-18.226C-2812.072,220.104-2820.232,211.941-2830.297,211.941z M-2830.297,244.745
		c-8.053,0-14.581-6.524-14.581-14.578s6.528-14.58,14.581-14.58c8.053,0,14.58,6.526,14.58,14.58
		S-2822.244,244.745-2830.297,244.745z"/>
	<path fill="#FFFFFF" d="M-2649.706,211.941c-10.063,0-18.224,8.162-18.224,18.226s8.16,18.226,18.224,18.226
		c10.064,0,18.226-8.16,18.226-18.226C-2631.48,220.104-2639.642,211.941-2649.706,211.941z M-2649.706,244.745
		c-8.052,0-14.58-6.524-14.58-14.578s6.528-14.58,14.58-14.58c8.054,0,14.578,6.526,14.578,14.58
		S-2641.652,244.745-2649.706,244.745z"/>
	<circle fill="#FFFFFF" cx="-2749.114" cy="230.167" r="14.911"/>
	<polyline fill="none" stroke="#FFFFFF" stroke-width="6.6272" stroke-miterlimit="10" points="-2754.801,233.48 -2798.818,150.641 
		-2699.41,150.641 -2699.41,147.327 -2749.114,230.167 -2649.706,230.167 -2699.41,147.327 	"/>
	<path fill="#FFFFFF" d="M-2683.24,133.396c0,2.744-2.331,4.97-5.207,4.97h-22.722c-2.876,0-5.207-2.226-5.207-4.97l0,0
		c0-2.746,2.331-4.971,5.207-4.971h22.722C-2685.571,128.425-2683.24,130.65-2683.24,133.396L-2683.24,133.396z"/>
	
		<line fill="none" stroke="#FFFFFF" stroke-width="6.6272" stroke-miterlimit="10" x1="-2699.808" y1="133.396" x2="-2699.41" y2="147.327"/>
	<path fill="none" stroke="#FFFFFF" stroke-width="4.1914" stroke-miterlimit="10" d="M-2734.203,260.014
		c0,0.916-1.187,1.656-2.648,1.656h-7.954c-1.463,0-2.65-0.74-2.65-1.656l0,0c0-0.914,1.188-1.656,2.65-1.656h7.954
		C-2735.39,258.357-2734.203,259.1-2734.203,260.014L-2734.203,260.014z"/>
	<path fill="none" stroke="#FFFFFF" stroke-width="4.1914" stroke-miterlimit="10" d="M-2748.173,198.688
		c0,0.916-1.188,1.658-2.651,1.658h-7.953c-1.463,0-2.65-0.742-2.65-1.658l0,0c0-0.914,1.187-1.656,2.65-1.656h7.953
		C-2749.362,197.032-2748.173,197.774-2748.173,198.688L-2748.173,198.688z"/>
	
		<line fill="none" stroke="#FFFFFF" stroke-width="4.6462" stroke-miterlimit="10" x1="-2754.801" y1="198.688" x2="-2740.831" y2="260.014"/>
	<path fill="none" stroke="#FFFFFF" stroke-width="6.6272" stroke-miterlimit="10" d="M-2811.878,133.408
		c-2.107-0.704-3.813-1.542-4.992-2.472c-1.178-0.932-1.83-1.954-1.83-3.029c0-1.074,0.652-2.097,1.83-3.026
		c1.178-0.931,2.884-1.769,4.992-2.472c2.107-0.705,4.617-1.274,7.404-1.667c2.787-0.395,5.852-0.612,9.068-0.612
		s6.279,0.217,9.066,0.612c2.786,0.394,4.912,0.479,4.912,0.479l-49.646,110.604"/>
	<g>
		<path d="M-1899.086,60c-17.518,0-31.718,17.041-31.718,38.061c0,21.021,14.2,38.062,31.718,38.062
			c17.517,0,31.718-17.04,31.718-38.062C-1867.368,77.041-1881.569,60-1899.086,60z M-1899.086,129.779
			c-14.014,0-25.374-14.201-25.374-31.718c0-17.516,11.36-31.718,25.374-31.718c14.014,0,25.374,14.202,25.374,31.718
			C-1873.712,115.578-1885.072,129.779-1899.086,129.779z"/>
		
			<line fill="none" stroke="#000000" stroke-width="6.3436" stroke-miterlimit="10" x1="-1899.086" y1="136.123" x2="-1899.086" y2="246.925"/>
		<polyline fill="none" stroke="#000000" stroke-width="6.3436" stroke-miterlimit="10" points="-1930.804,284.986 
			-1942.856,212.245 -1899.086,246.925 		"/>
		<path d="M-1969.535,283.473L-1969.535,283.473c2.438-9.502,10.281-15.699,17.521-13.842l16.384,4.201
			c7.241,1.857,11.134,11.064,8.697,20.566l0,0"/>
		<path fill="none" stroke="#000000" stroke-width="6.3436" stroke-miterlimit="10" d="M-1900.989,135.277
			c-7.154,2.787-17.047-0.828-24.957,0.934c-11.074,2.464-19.983,11.93-27.947,19.167c-7.588,6.894-14.373,8.922-22.373,13.732"/>
		<circle cx="-1982.205" cy="172.475" r="12.669"/>
		<path fill="none" stroke="#000000" stroke-width="6.3436" stroke-miterlimit="10" d="M-1899.086,134.854
			c7.155,2.787,17.047-0.828,24.959,0.933c11.073,2.464,19.981,11.931,27.946,19.167c7.588,6.893,14.372,8.922,22.373,13.732"/>
		<circle cx="-1817.871" cy="172.051" r="12.669"/>
		<polyline fill="none" stroke="#000000" stroke-width="6.3436" stroke-miterlimit="10" points="-1867.492,284.986 
			-1855.438,212.245 -1899.21,246.925 		"/>
		<path d="M-1828.761,283.473L-1828.761,283.473c-2.438-9.502-10.28-15.699-17.521-13.842l-16.385,4.201
			c-7.24,1.857-11.133,11.064-8.696,20.566l0,0"/>
		<path fill="none" stroke="#000000" stroke-width="2.5374" stroke-miterlimit="10" d="M-1817.389,181.796
			c0,9.68-0.743,19.925,1.013,29.394c1.893,10.191,8.034,17.562,12.329,26.64c7.787,16.467,16.392,45.653,11.062,63.839
			c-5.803,19.795-38.38,28.406-55.902,31.57c-14.077,2.541-30.283,7.223-44.624,6.726h-12.976
			c-14.341,0.497-30.547-4.185-44.623-6.726c-17.522-3.164-50.101-11.775-55.903-31.57c-5.33-18.186,3.274-47.372,11.062-63.839
			c4.295-9.076,10.437-16.447,12.329-26.64c1.756-9.469,1.013-19.713,1.013-29.394"/>
		<rect x="-1901.158" y="245.283" width="4.027" height="4.127"/>
	</g>
	<path fill="#FFFFFF" d="M-1479.348,100c-12.513,0-22.655,12.172-22.655,27.187c0,15.016,10.143,27.187,22.655,27.187
		s22.655-12.171,22.655-27.187C-1456.692,112.172-1466.836,100-1479.348,100z M-1479.348,149.842
		c-10.01,0-18.124-10.144-18.124-22.656s8.114-22.655,18.124-22.655c10.01,0,18.124,10.144,18.124,22.655
		C-1461.224,139.699-1469.338,149.842-1479.348,149.842z"/>
	
		<line fill="none" stroke="#FFFFFF" stroke-width="4.5311" stroke-miterlimit="10" x1="-1479.348" y1="154.374" x2="-1479.348" y2="233.518"/>
	<polyline fill="none" stroke="#FFFFFF" stroke-width="4.5311" stroke-miterlimit="10" points="-1502.003,260.704 
		-1510.612,208.747 -1479.348,233.518 	"/>
	<path fill="#FFFFFF" d="M-1529.669,259.624L-1529.669,259.624c1.741-6.788,7.344-11.215,12.516-9.888l11.703,3
		c5.172,1.326,7.952,7.904,6.212,14.691l0,0"/>
	<path fill="none" stroke="#FFFFFF" stroke-width="4.5311" stroke-miterlimit="10" d="M-1480.707,153.77
		c-5.11,1.991-12.177-0.591-17.827,0.667c-7.91,1.76-14.273,8.522-19.962,13.69c-5.42,4.924-10.267,6.373-15.98,9.809"/>
	<circle fill="#FFFFFF" cx="-1538.718" cy="180.339" r="9.049"/>
	<path fill="none" stroke="#FFFFFF" stroke-width="4.5311" stroke-miterlimit="10" d="M-1479.348,153.467
		c5.11,1.991,12.177-0.591,17.827,0.667c7.909,1.76,14.272,8.522,19.962,13.69c5.42,4.924,10.266,6.374,15.98,9.809"/>
	<circle fill="#FFFFFF" cx="-1421.337" cy="180.037" r="9.05"/>
	<polyline fill="none" stroke="#FFFFFF" stroke-width="4.5311" stroke-miterlimit="10" points="-1456.781,260.704 
		-1448.172,208.747 -1479.437,233.518 	"/>
	<path fill="#FFFFFF" d="M-1429.115,259.624L-1429.115,259.624c-1.741-6.788-7.344-11.215-12.516-9.888l-11.703,3
		c-5.172,1.326-7.952,7.904-6.211,14.691l0,0"/>
	<path fill="none" stroke="#FFFFFF" stroke-width="1.8124" stroke-miterlimit="10" d="M-1420.993,186.998
		c0,6.915-0.53,14.232,0.724,20.995c1.352,7.28,5.738,12.546,8.807,19.028c5.562,11.762,11.708,32.608,7.9,45.6
		c-4.145,14.139-27.414,20.29-39.93,22.55c-10.055,1.815-21.63,5.159-31.874,4.804h-9.269c-10.243,0.355-21.819-2.988-31.873-4.804
		c-12.517-2.26-35.786-8.411-39.931-22.55c-3.808-12.99,2.338-33.838,7.9-45.6c3.068-6.482,7.455-11.748,8.807-19.028
		c1.254-6.763,0.724-14.08,0.724-20.995"/>
	<rect x="-1480.828" y="232.345" fill="#FFFFFF" width="2.877" height="2.948"/>
	<path d="M-2410.297,180.463c-27.449,0-49.703,22.253-49.703,49.704s22.254,49.704,49.703,49.704
		c27.451,0,49.703-22.253,49.703-49.704S-2382.846,180.463-2410.297,180.463z M-2410.297,271.588
		c-22.876,0-41.42-18.546-41.42-41.421s18.544-41.42,41.42-41.42c22.875,0,41.42,18.545,41.42,41.42
		S-2387.422,271.588-2410.297,271.588z"/>
	<path d="M-2229.704,180.463c-27.451,0-49.706,22.253-49.706,49.704s22.255,49.704,49.706,49.704S-2180,257.618-2180,230.167
		S-2202.253,180.463-2229.704,180.463z M-2229.706,271.588c-22.874,0-41.422-18.546-41.422-41.421s18.548-41.42,41.422-41.42
		c22.876,0,41.423,18.545,41.423,41.42S-2206.83,271.588-2229.706,271.588z"/>
	<path d="M-2410.297,211.941c-10.064,0-18.226,8.162-18.226,18.226s8.16,18.226,18.226,18.226c10.065,0,18.225-8.16,18.225-18.226
		C-2392.072,220.104-2400.232,211.941-2410.297,211.941z M-2410.297,244.745c-8.053,0-14.58-6.524-14.58-14.578
		s6.527-14.58,14.58-14.58c8.053,0,14.58,6.526,14.58,14.58S-2402.244,244.745-2410.297,244.745z"/>
	<path d="M-2229.706,211.941c-10.063,0-18.224,8.162-18.224,18.226s8.16,18.226,18.224,18.226c10.064,0,18.226-8.16,18.226-18.226
		C-2211.48,220.104-2219.642,211.941-2229.706,211.941z M-2229.706,244.745c-8.052,0-14.58-6.524-14.58-14.578
		s6.528-14.58,14.58-14.58c8.054,0,14.578,6.526,14.578,14.58S-2221.652,244.745-2229.706,244.745z"/>
	<circle cx="-2329.114" cy="230.167" r="14.911"/>
	<polyline fill="none" stroke="#000000" stroke-width="6.6272" stroke-miterlimit="10" points="-2334.801,233.48 -2378.818,150.641 
		-2279.41,150.641 -2279.41,147.327 -2329.114,230.167 -2229.706,230.167 -2279.41,147.327 	"/>
	<path d="M-2263.24,133.396c0,2.744-2.331,4.97-5.207,4.97h-22.722c-2.876,0-5.207-2.226-5.207-4.97l0,0
		c0-2.746,2.331-4.971,5.207-4.971h22.722C-2265.571,128.425-2263.24,130.65-2263.24,133.396L-2263.24,133.396z"/>
	<line fill="none" x1="-2279.808" y1="133.396" x2="-2279.41" y2="147.327"/>
	<path d="M-2314.203,260.014c0,0.916-1.187,1.656-2.648,1.656h-7.954c-1.463,0-2.65-0.74-2.65-1.656l0,0
		c0-0.914,1.188-1.656,2.65-1.656h7.954C-2315.39,258.357-2314.203,259.1-2314.203,260.014L-2314.203,260.014z"/>
	<path d="M-2328.174,198.688c0,0.916-1.188,1.658-2.65,1.658h-7.953c-1.463,0-2.65-0.742-2.65-1.658l0,0
		c0-0.914,1.188-1.656,2.65-1.656h7.953C-2329.361,197.031-2328.174,197.773-2328.174,198.688L-2328.174,198.688z"/>
	
		<line fill="none" stroke="#000000" stroke-width="4.6462" stroke-miterlimit="10" x1="-2334.801" y1="198.688" x2="-2320.83" y2="260.014"/>
	<path fill="none" stroke="#000000" stroke-width="6.6272" stroke-miterlimit="10" d="M-2391.878,133.408
		c-2.107-0.704-3.813-1.542-4.991-2.472c-1.178-0.932-1.83-1.954-1.83-3.029c0-1.074,0.652-2.097,1.83-3.026
		c1.178-0.931,2.884-1.769,4.991-2.472c2.107-0.705,4.616-1.274,7.403-1.667c2.787-0.395,5.852-0.612,9.068-0.612
		s6.279,0.217,9.066,0.612c2.785,0.394,4.912,0.479,4.912,0.479l-49.646,110.604"/>
	<g>
		<rect x="-1135" y="233.699" width="150" height="50"/>
		<rect x="-1085" y="174.394" width="100" height="50"/>
		<rect x="-1035" y="116.301" width="50" height="50"/>
	</g>
	<g>
		<rect x="-715" y="233.699" fill="#FFFFFF" width="150" height="50"/>
		<rect x="-665" y="174.395" fill="#FFFFFF" width="100" height="50"/>
		<rect x="-615" y="116.301" fill="#FFFFFF" width="50" height="50"/>
	</g>
</g>
<rect x="571.974" y="-77.667" width="286" height="428"/>
<g>
	<path fill="#FFFFFF" stroke="#000000" stroke-width="4.5321" stroke-miterlimit="10" d="M-193.578,253.182"/>
	<path fill="#FFFFFF" stroke="#000000" stroke-width="4.5321" stroke-miterlimit="10" d="M-227.482,253.182"/>
	<g>
		<path fill="#FFFFFF" stroke="#000000" stroke-width="3.4536" stroke-miterlimit="10" d="M-198.184,253.182h21.818
			c6.771,0,13.221,1.57,19.087,4.41c5.867,2.842,11.15,6.949,15.588,12.027s8.028,11.126,10.509,17.84
			c2.482,6.714,3.854,14.096,3.854,21.844l0,0l0,0l0,0l0,0"/>
		<path fill="#FFFFFF" stroke="#000000" stroke-width="3.4536" stroke-miterlimit="10" d="M-312.673,309.303L-312.673,309.303
			L-312.673,309.303L-312.673,309.303L-312.673,309.303c0-7.748,1.372-15.13,3.854-21.844c2.48-6.714,6.071-12.762,10.509-17.84
			s9.722-9.188,15.589-12.027c5.866-2.84,12.317-4.41,19.087-4.41h21.817"/>
	</g>
	<path fill="#FFFFFF" stroke="#000000" stroke-width="4.3359" stroke-miterlimit="10" d="M-165.894,125.722l3.454,93.903
		c0,5.637-5.153,10.206-11.512,10.206h-92.098c-6.358,0-11.512-4.569-11.512-10.206l3.454-93.903"/>
	<g>
		<circle cx="-242.161" cy="161.084" r="8.634"/>
		<circle cx="-197.839" cy="161.084" r="8.634"/>
	</g>
	<path fill="none" stroke="#000000" stroke-width="3.4536" stroke-miterlimit="10" d="M-193.522,190.44
		c0,5.723-11.854,10.361-26.478,10.361s-26.478-4.639-26.478-10.361"/>
	
		<linearGradient id="SVGID_1_" gradientUnits="userSpaceOnUse" x1="-739.561" y1="649.9062" x2="-624.4399" y2="649.9062" gradientTransform="matrix(1 0 0 -1 462 773)">
		<stop  offset="0" style="stop-color:#FFFFFF"/>
		<stop  offset="1" style="stop-color:#000000"/>
	</linearGradient>
	
		<rect x="-277.561" y="109.855" fill="url(#SVGID_1_)" stroke="#000000" stroke-width="3.6382" stroke-miterlimit="10" width="115.121" height="26.478"/>
	<path fill="#FFFFFF" stroke="#000000" stroke-width="4.3284" stroke-miterlimit="10" d="M-163.591,139.787L-163.591,139.787
		c5.562,0,10.073,4.51,10.073,10.073v5.181c0,5.562-4.511,10.073-10.073,10.073"/>
	<path fill="#FFFFFF" stroke="#000000" stroke-width="4.3284" stroke-miterlimit="10" d="M-276.409,165.114L-276.409,165.114
		c-5.562,0-10.073-4.511-10.073-10.073v-5.181c0-5.563,4.511-10.073,10.073-10.073"/>
	<g>
		
			<line fill="none" stroke="#000000" stroke-width="2.3024" stroke-miterlimit="10" x1="-209.495" y1="228.885" x2="-209.495" y2="261.239"/>
		
			<line fill="none" stroke="#000000" stroke-width="2.3024" stroke-miterlimit="10" x1="-230.505" y1="261.239" x2="-230.505" y2="228.885"/>
	</g>
	<g>
		
			<rect x="-270.3" y="283.688" fill="#FFFFFF" stroke="#000000" stroke-width="2.4634" stroke-miterlimit="10" width="100.73" height="61.015"/>
		<text transform="matrix(1 0 0 1 -260.1602 328.5859)" font-family="'MyriadPro-Regular'" font-size="48.3508">123</text>
		<g>
			<circle cx="-263.243" cy="291.171" r="3.454"/>
			<circle cx="-263.243" cy="337.22" r="3.454"/>
		</g>
		<g>
			<circle cx="-177.041" cy="291.171" r="3.454"/>
			<circle cx="-177.041" cy="337.22" r="3.454"/>
		</g>
		<rect x="-270.431" y="250.361" width="11.512" height="32.75"/>
		<rect x="-181.646" y="250.361" width="11.512" height="32.75"/>
	</g>
	
		<line fill="none" stroke="#000000" stroke-width="3.4536" stroke-miterlimit="10" x1="-245.326" y1="253.182" x2="-230.937" y2="253.182"/>
	
		<line fill="none" stroke="#000000" stroke-width="3.4536" stroke-miterlimit="10" x1="-208.46" y1="253.182" x2="-193.578" y2="253.182"/>
	<path fill="#FFFFFF" stroke="#000000" stroke-width="4.3284" stroke-miterlimit="10" d="M-162.439,138.06
		c1.613-6.126-4.737-18.995-0.141-28.639c0.981-2.059-8.654,0.502-10.946,0.543c-5.639,0.101-11.291-0.093-16.903-0.73
		c-9.35-1.062-17.185,8.478-29.154,4.958c-6.678-1.963-7.056-5.359-13.681-5.246c-5.03,0.085-11.309,5.392-16.54,6.309
		c-11.778,2.065-21.749-1.515-31.339-7.063h-0.263c8.743,11.044,8.743,11.044,3.838,32.747c0,0-27.582-27.958-26.964-41.673
		c0.48-10.653,16.812-21.172,25.938-22.348c1.967-11.771,6.896-26.598,16.987-29.002c11.79-2.811,20.767,8.659,33.073,7.026
		c11.221-1.488,24.186-17.883,32.655-5.862c5.85,8.301,1.702,20.301,16.009,18.761c8.716-0.938,19.313-14.217,27.856-2.478
		c9.06,12.446-7.661,16.076-5.883,25.76c2.016,10.986,15.774,6.851,11.124,23.571c-1.963,7.053-8.213,13.021-13.035,17.545
		c-1.107,1.041-1.513,4.779-2.639,5.822L-162.439,138.06L-162.439,138.06z"/>
</g>
<g>
	<polygon fill="#4B5369" points="240.314,162.666 240.315,162.659 240.311,162.666 	"/>
	<circle fill="#4B5369" cx="186.404" cy="178.137" r="5.298"/>
	<circle fill="#4B5369" cx="213.598" cy="178.137" r="5.298"/>
	<path fill="#4B5369" d="M215.018,196.149c0,2.142-5.713,5.129-15.017,5.129s-15.017-2.988-15.017-5.129h-2.455
		c0,4.925,9.002,7.583,17.472,7.583s17.472-2.658,17.472-7.583H215.018z"/>
	<path fill="#4B5369" d="M212.856,277.612c-1.646,0-3.294-0.691-4.01-1.063l-0.824,3.027c1.01,0.639,2.896,1.223,5.127,1.223
		c4.381,0,7.063-2.23,7.063-5.286c0-2.257-1.673-3.823-3.744-4.195v-0.054c2.124-0.743,3.159-2.177,3.159-4.01
		c0-2.364-2.044-4.302-5.735-4.302c-2.23,0-4.302,0.636-5.338,1.3l0.823,2.922c0.716-0.425,2.204-1.035,3.612-1.035
		c1.699,0,2.548,0.77,2.548,1.805c0,1.462-1.725,1.967-3.081,1.992h-1.566v2.895h1.646c1.78,0,3.48,0.771,3.48,2.471
		C216.018,276.603,214.954,277.612,212.856,277.612z"/>
	<path fill="#4B5369" d="M205.633,277.187h-6.509v-0.054l1.594-1.327c2.497-2.231,4.595-4.542,4.595-7.437
		c0-3.135-2.151-5.417-6.056-5.417c-2.336,0-4.355,0.795-5.656,1.779l1.142,2.895c0.902-0.692,2.205-1.436,3.691-1.436
		c1.992,0,2.843,1.117,2.843,2.524c-0.054,2.018-1.887,3.956-5.657,7.329l-2.23,2.02v2.443h12.244V277.187z"/>
	<path fill="#4B5369" d="M235.605,234.156l-8.221-0.781H208.87h-0.001v-11.549h10.584c4.682,0,14.091-4.914,14.091-8.372
		l3.281-25.022c4.391,0,7.955-3.562,7.955-7.953v-4.092c0-3.84-2.721-7.043-6.339-7.79l0.813-7.448
		c0.309,0.554,0.654,1.068,1.061,1.511c0.759-0.757,1.035-3.424,1.784-4.168c3.272-3.244,7.515-7.523,8.846-12.58
		c3.155-11.987-6.181-9.022-7.548-16.899c-1.207-6.944,10.137-9.547,3.992-18.471c-5.798-8.417-12.988,1.104-18.901,1.777
		c-9.708,1.104-6.895-7.5-10.864-13.453c-5.745-8.618-14.543,3.136-22.157,4.204c-8.351,1.17-14.441-7.053-22.441-5.038
		c-6.846,1.723-10.19,12.354-11.525,20.794c-6.192,0.843-17.273,8.384-17.599,16.022c-0.354,8.312,12.96,23.919,17.089,28.55
		l0.567,5.198c-3.616,0.748-6.338,3.951-6.338,7.789v4.092c0,4.392,3.562,7.954,7.955,7.954l3.28,25.021
		c0,3.457,9.368,8.372,14.051,8.372h10.623v11.549h-18.918l-8.219,0.876c-15.285,3.96-26.775,20.903-26.775,41.206v34.918h12.975
		l6-31.011h6l-1,31.011h77.617l-1-31.011h6l6,31.011h12.977v-34.918C262.785,254.978,251.092,237.921,235.605,234.156z
		 M159.589,141.25h0.183c6.503,3.979,13.271,6.545,21.264,5.065c3.549-0.658,7.809-4.462,11.222-4.524
		c4.495-0.081,4.752,2.353,9.282,3.762c8.122,2.523,13.438-4.316,19.783-3.555c3.806,0.457,7.643,0.595,11.468,0.523
		c1.556-0.028,8.094-1.866,7.428-0.389c-1.899,4.212-2.856,9.366-2.457,13.694h-73.772
		C165.171,148.709,164.083,147.249,159.589,141.25z M183.756,217.264c-3.904,0-12.727-4.102-12.829-8.027l-5.236-47.971l2.227-0.243
		l0.013,0.122h64.141l0.014-0.122l2.227,0.243l-5.236,47.971c-0.104,3.926-8.947,8.027-12.862,8.027H183.756z M231.88,291.341
		h-63.757v-38.932h63.757V291.341z"/>
	<polygon fill="#4B5369" points="183.747,266.828 183.8,266.828 183.8,280.507 187.705,280.507 187.705,263.244 184.358,263.244 
		179.79,265.367 180.454,268.396 	"/>
</g>
</svg>
