<?xml version="1.0" encoding="utf-8"?>
<!-- Generator: Adobe Illustrator 16.0.0, SVG Export Plug-In . SVG Version: 6.00 Build 0)  -->
<!DOCTYPE svg PUBLIC "-//W3C//DTD SVG 1.1//EN" "http://www.w3.org/Graphics/SVG/1.1/DTD/svg11.dtd">
<svg version="1.1" id="Layer_1" xmlns="http://www.w3.org/2000/svg" xmlns:xlink="http://www.w3.org/1999/xlink" x="0px" y="0px"
	 width="23px" height="23px" viewBox="0 0 23 23" enable-background="new 0 0 23 23" xml:space="preserve">
<path id="Shape" fill="#4B5369" d="M20.5,9c-1.4,0-2.5,1.1-2.5,2.5c0,1.4,1.1,2.5,2.5,2.5s2.5-1.1,2.5-2.5C23,10.1,21.9,9,20.5,9
	L20.5,9z M20.5,13c-0.8,0-1.5-0.7-1.5-1.5s0.7-1.5,1.5-1.5s1.5,0.7,1.5,1.5C22,12.4,21.3,13,20.5,13L20.5,13z"/>
<path id="Shape_1_" fill="#4B5369" d="M5,11.5C5,10.1,3.9,9,2.5,9S0,10.1,0,11.5C0,12.9,1.1,14,2.5,14S5,12.9,5,11.5L5,11.5z
	 M2.5,13C1.7,13,1,12.4,1,11.5C1,10.7,1.7,10,2.5,10S4,10.7,4,11.5C4,12.4,3.3,13,2.5,13L2.5,13z"/>
<path id="Shape_2_" fill="#4B5369" d="M12,18v-4c1.1-0.2,2-1.2,2-2.5c0-1.2-0.9-2.2-2-2.5V5c1.1-0.2,2-1.2,2-2.5
	C14,1.1,12.9,0,11.5,0C10.1,0,9,1.1,9,2.5C9,3.7,9.9,4.7,11,5v4c-1.1,0.2-2,1.2-2,2.5c0,1.2,0.9,2.2,2,2.5v4c-1.1,0.2-2,1.2-2,2.5
	c0,1.4,1.1,2.5,2.5,2.5c1.4,0,2.5-1.1,2.5-2.5C14,19.3,13.2,18.3,12,18L12,18z M10,2.5C10,1.7,10.7,1,11.5,1S13,1.7,13,2.5
	S12.3,4,11.5,4S10,3.3,10,2.5L10,2.5z M10,11.5c0-0.8,0.7-1.5,1.5-1.5s1.5,0.7,1.5,1.5S12.3,13,11.5,13S10,12.3,10,11.5L10,11.5z
	 M11.5,22c-0.8,0-1.5-0.7-1.5-1.5s0.7-1.5,1.5-1.5s1.5,0.7,1.5,1.5S12.3,22,11.5,22L11.5,22z"/>
<path id="Shape_3_" fill="#4B5369" d="M9,6.5C9,5.1,7.9,4,6.5,4S4,5.1,4,6.5C4,7.7,4.9,8.7,6,9v5.1c-1.1,0.2-2,1.2-2,2.5
	C4,17.9,5.1,19,6.5,19S9,17.9,9,16.5c0-1.2-0.9-2.2-2-2.5V8.9C8.1,8.7,9,7.7,9,6.5L9,6.5z M5,6.5C5,5.7,5.7,5,6.5,5S8,5.7,8,6.5
	S7.3,8,6.5,8S5,7.3,5,6.5L5,6.5z M8,16.5C8,17.4,7.3,18,6.5,18S5,17.4,5,16.5S5.7,15,6.5,15S8,15.7,8,16.5L8,16.5z"/>
<path id="Shape_4_" fill="#4B5369" d="M17,14.1V8.9c1.1-0.2,2-1.2,2-2.5C19,5.1,17.9,4,16.5,4S14,5.1,14,6.5c0,1.2,0.9,2.2,2,2.5
	v5.1c-1.1,0.2-2,1.2-2,2.5c0,1.4,1.1,2.5,2.5,2.5S19,18,19,16.6C19,15.3,18.2,14.3,17,14.1L17,14.1z M15,6.5C15,5.7,15.7,5,16.5,5
	S18,5.7,18,6.5S17.3,8,16.5,8S15,7.3,15,6.5L15,6.5z M16.5,18c-0.8,0-1.5-0.7-1.5-1.5s0.7-1.5,1.5-1.5s1.5,0.7,1.5,1.5
	S17.3,18,16.5,18L16.5,18z"/>
</svg>
