<?xml version="1.0" encoding="utf-8"?>
<!-- Generator: Adobe Illustrator 16.0.0, SVG Export Plug-In . SVG Version: 6.00 Build 0)  -->
<!DOCTYPE svg PUBLIC "-//W3C//DTD SVG 1.1//EN" "http://www.w3.org/Graphics/SVG/1.1/DTD/svg11.dtd">
<svg version="1.1" id="Layer_1" xmlns="http://www.w3.org/2000/svg" xmlns:xlink="http://www.w3.org/1999/xlink" x="0px" y="0px"
	 width="520px" height="520px" viewBox="0 0 520 520" enable-background="new 0 0 520 520" xml:space="preserve">
<g>
	<circle fill="none" stroke="#F0522E" stroke-width="14" stroke-miterlimit="10" cx="-5292.43" cy="312.086" r="13"/>
	<circle fill="none" stroke="#F0522E" stroke-width="14" stroke-miterlimit="10" cx="-5292.43" cy="264.355" r="13"/>
	<circle fill="none" stroke="#F0522E" stroke-width="14" stroke-miterlimit="10" cx="-5292.43" cy="360.473" r="13"/>
	<g>
		<g>
			<g>
				<circle fill="none" stroke="#F0522E" stroke-width="14" stroke-miterlimit="10" cx="-5511.892" cy="204.502" r="31.451"/>
				<polyline fill="none" stroke="#F0522E" stroke-width="14" stroke-miterlimit="10" points="-5515.013,293.021 -5579.173,264.023 
					-5518.518,236.621 				"/>
				<polyline fill="none" stroke="#F0522E" stroke-width="14" stroke-miterlimit="10" points="-5441.338,218.918 -5457.532,264.684 
					-5511.042,239.337 				"/>
				<polyline fill="none" stroke="#F0522E" stroke-width="14" stroke-miterlimit="10" points="-5618.131,359.188 -5591.519,333.382 
					-5552.809,374.511 -5512.229,233.851 				"/>
				<polyline fill="none" stroke="#F0522E" stroke-width="14" stroke-miterlimit="10" points="-5502.001,430.155 -5542.616,430.155 
					-5512.229,371.284 -5542.616,339.176 				"/>
				<circle fill="#F0522E" cx="-5512.013" cy="294.021" r="13"/>
			</g>
			<circle fill="#F0522E" cx="-5441.338" cy="218.918" r="13"/>
		</g>
		<circle fill="none" cx="-5523.232" cy="281.021" r="178.523"/>
		
			<text transform="matrix(0.9691 -1.145 0.7633 0.646 -5674.7656 183.7124)" fill="#F0522E" font-family="'MyriadPro-Bold'" font-size="60">F</text>
		
			<text transform="matrix(1.1711 -0.9374 0.6249 0.7807 -5644.7031 149.5342)" fill="#F0522E" font-family="'MyriadPro-Bold'" font-size="60">I</text>
		
			<text transform="matrix(1.334 -0.6859 0.4573 0.8893 -5626.8677 133.5122)" fill="#F0522E" font-family="'MyriadPro-Bold'" font-size="60">T</text>
		
			<text transform="matrix(1.4652 -0.321 0.214 0.9768 -5587.7212 112.3862)" fill="#F0522E" font-family="'MyriadPro-Bold'" font-size="59.998">C</text>
		
			<text transform="matrix(1.494 0.1342 -0.0894 0.996 -5538.0352 100.4043)" fill="#F0522E" font-family="'MyriadPro-Bold'" font-size="60">H</text>
		
			<text transform="matrix(1.3744 0.6006 -0.4004 0.9164 -5478.9546 105.5278)" fill="#F0522E" font-family="'MyriadPro-Bold'" font-size="60.0033">A</text>
		
			<text transform="matrix(1.2072 0.8903 -0.5935 0.8048 -5427.5723 129.748)" fill="#F0522E" font-family="'MyriadPro-Bold'" font-size="60">I</text>
		
			<text transform="matrix(0.9702 1.144 -0.7627 0.6468 -5407.0312 141.9814)" fill="#F0522E" font-family="'MyriadPro-Bold'" font-size="60.0018">N</text>
		<g>
			<g>
				
					<line fill="none" stroke="#F0522E" stroke-width="14" stroke-linecap="round" stroke-miterlimit="10" x1="-5660.104" y1="312.414" x2="-5739.137" y2="312.414"/>
				<circle fill="none" stroke="#F0522E" stroke-width="14" stroke-miterlimit="10" cx="-5753.137" cy="312.414" r="13"/>
			</g>
			<g>
				
					<line fill="none" stroke="#F0522E" stroke-width="14" stroke-linecap="round" stroke-miterlimit="10" x1="-5661.008" y1="264.684" x2="-5740.04" y2="264.684"/>
				<circle fill="none" stroke="#F0522E" stroke-width="14" stroke-miterlimit="10" cx="-5754.04" cy="264.684" r="13"/>
			</g>
			<g>
				
					<line fill="none" stroke="#F0522E" stroke-width="14" stroke-linecap="round" stroke-miterlimit="10" x1="-5661.008" y1="360.801" x2="-5740.04" y2="360.801"/>
				<circle fill="none" stroke="#F0522E" stroke-width="14" stroke-miterlimit="10" cx="-5754.04" cy="360.801" r="13"/>
			</g>
		</g>
		
			<line fill="none" stroke="#F0522E" stroke-width="14" stroke-linecap="round" stroke-miterlimit="10" x1="-5385.462" y1="312.086" x2="-5306.43" y2="312.086"/>
		
			<line fill="none" stroke="#F0522E" stroke-width="14" stroke-linecap="round" stroke-miterlimit="10" x1="-5385.462" y1="264.355" x2="-5306.43" y2="264.355"/>
		
			<line fill="none" stroke="#F0522E" stroke-width="14" stroke-linecap="round" stroke-miterlimit="10" x1="-5385.462" y1="360.473" x2="-5306.43" y2="360.473"/>
		<g>
			<path fill="none" stroke="#F0522E" stroke-width="14.8492" stroke-linecap="round" stroke-miterlimit="10" d="M-5673.234,452.655
				c82.909,82.911,217.09,82.911,300,0"/>
			
				<circle fill="none" stroke="#F0522E" stroke-width="18.5618" stroke-linecap="round" stroke-miterlimit="10" cx="-5525.121" cy="514.837" r="15.91"/>
			<path fill="none" stroke="#F0522E" stroke-width="18.5615" stroke-linecap="round" stroke-miterlimit="10" d="M-5420.46,496.43
				c0,8.789-7.123,15.909-15.911,15.909c-8.789,0-15.909-7.12-15.909-15.909c0-8.782,7.12-15.908,15.909-15.908
				C-5427.583,480.521-5420.46,487.646-5420.46,496.43z"/>
			
				<circle fill="none" stroke="#F0522E" stroke-width="18.5615" stroke-linecap="round" stroke-miterlimit="10" cx="-5611.159" cy="496.431" r="15.91"/>
		</g>
	</g>
</g>
<rect x="-4931.235" y="62.021" fill="#FFFFFF" width="520" height="520"/>
<g>
	<g>
		<g>
			<circle fill="#FFFFFF" stroke="#F0522E" stroke-width="14" stroke-miterlimit="10" cx="-4659.892" cy="214.522" r="31.452"/>
			<polyline fill="none" stroke="#F0522E" stroke-width="14" stroke-miterlimit="10" points="-4663.013,303.041 -4727.174,274.045 
				-4666.518,246.642 			"/>
			<polyline fill="none" stroke="#F0522E" stroke-width="14" stroke-miterlimit="10" points="-4589.338,228.938 -4605.532,274.704 
				-4659.041,249.357 			"/>
			<polyline fill="none" stroke="#F0522E" stroke-width="14" stroke-miterlimit="10" points="-4766.131,369.208 -4739.52,343.402 
				-4700.809,384.531 -4660.229,243.871 			"/>
			<polyline fill="none" stroke="#F0522E" stroke-width="14" stroke-miterlimit="10" points="-4650.001,440.176 -4690.615,440.176 
				-4660.229,381.305 -4690.615,349.196 			"/>
			<circle fill="#F0522E" cx="-4660.013" cy="304.041" r="13"/>
		</g>
		<circle fill="#F0522E" cx="-4589.338" cy="228.938" r="13"/>
	</g>
	<path fill="none" d="M-4493.389,275.48c8.594,98.221-64.066,184.812-162.285,193.405c-98.222,8.591-184.811-64.066-193.403-162.288
		c-8.595-98.221,64.062-184.811,162.283-193.402C-4588.57,104.603-4501.982,177.26-4493.389,275.48z"/>
	
		<text transform="matrix(1.0584 -1.0629 0.7086 0.7056 -4813.5801 180.9756)" fill="#F0522E" font-family="'ArialNarrow-Bold'" font-size="60">F</text>
	
		<text transform="matrix(1.226 -0.8642 0.5762 0.8173 -4782.3618 150.9175)" fill="#F0522E" font-family="'ArialNarrow-Bold'" font-size="60">I</text>
	
		<text transform="matrix(1.3575 -0.6381 0.4254 0.905 -4767.5879 139.0132)" fill="#F0522E" font-family="'ArialNarrow-Bold'" font-size="60">T</text>
	
		<text transform="matrix(1.4764 -0.2653 0.1769 0.9842 -4729.2305 120.0674)" fill="#F0522E" font-family="'ArialNarrow-Bold'" font-size="60">C</text>
	
		<text transform="matrix(1.4922 0.1531 -0.1021 0.9948 -4679.3066 110.7178)" fill="#F0522E" font-family="'ArialNarrow-Bold'" font-size="60">H</text>
	
		<text transform="matrix(1.3895 0.5651 -0.3767 0.9263 -4628.7676 115.5469)" fill="#F0522E" font-family="'ArialNarrow-Bold'" font-size="59.998">A</text>
	
		<text transform="matrix(1.2534 0.824 -0.5494 0.8356 -4581.832 136.1587)" fill="#F0522E" font-family="'ArialNarrow-Bold'" font-size="60.002">I</text>
	
		<text transform="matrix(1.0705 1.0507 -0.7005 0.7137 -4565.1328 145.0278)" fill="#F0522E" font-family="'ArialNarrow-Bold'" font-size="60.002">N</text>
	<g>
		<g>
			
				<line fill="none" stroke="#F0522E" stroke-width="14" stroke-linecap="round" stroke-miterlimit="10" x1="-4810.104" y1="322.436" x2="-4889.137" y2="322.436"/>
			<circle fill="none" stroke="#F0522E" stroke-width="14" stroke-miterlimit="10" cx="-4901.137" cy="322.436" r="12"/>
		</g>
		<g>
			
				<line fill="none" stroke="#F0522E" stroke-width="14" stroke-linecap="round" stroke-miterlimit="10" x1="-4811.008" y1="274.704" x2="-4890.04" y2="274.704"/>
			<circle fill="none" stroke="#F0522E" stroke-width="14" stroke-miterlimit="10" cx="-4902.04" cy="274.704" r="12"/>
		</g>
		<g>
			
				<line fill="none" stroke="#F0522E" stroke-width="14" stroke-linecap="round" stroke-miterlimit="10" x1="-4811.008" y1="370.821" x2="-4890.04" y2="370.821"/>
			<circle fill="none" stroke="#F0522E" stroke-width="14" stroke-miterlimit="10" cx="-4902.04" cy="370.821" r="12"/>
		</g>
	</g>
	
		<line fill="none" stroke="#F0522E" stroke-width="14" stroke-linecap="round" stroke-miterlimit="10" x1="-4531.462" y1="322.105" x2="-4452.43" y2="322.105"/>
	<circle fill="none" stroke="#F0522E" stroke-width="14" stroke-miterlimit="10" cx="-4440.43" cy="322.105" r="12"/>
	
		<line fill="none" stroke="#F0522E" stroke-width="14" stroke-linecap="round" stroke-miterlimit="10" x1="-4531.462" y1="274.376" x2="-4452.43" y2="274.376"/>
	<circle fill="none" stroke="#F0522E" stroke-width="14" stroke-miterlimit="10" cx="-4440.43" cy="274.376" r="12"/>
	
		<line fill="none" stroke="#F0522E" stroke-width="14" stroke-linecap="round" stroke-miterlimit="10" x1="-4531.462" y1="370.493" x2="-4452.43" y2="370.493"/>
	<circle fill="none" stroke="#F0522E" stroke-width="14" stroke-miterlimit="10" cx="-4440.43" cy="370.493" r="12"/>
	<path fill="none" stroke="#F0522E" stroke-width="14" stroke-linecap="round" stroke-miterlimit="10" d="M-4812.656,460.908
		c78.168,78.169,204.675,78.169,282.843,0"/>
	
		<circle fill="none" stroke="#F0522E" stroke-width="14" stroke-linecap="round" stroke-miterlimit="10" cx="-4673.014" cy="519.534" r="12"/>
	
		<circle fill="none" stroke="#F0522E" stroke-width="14" stroke-linecap="round" stroke-miterlimit="10" cx="-4589.338" cy="502.18" r="12"/>
	
		<circle fill="none" stroke="#F0522E" stroke-width="14" stroke-linecap="round" stroke-miterlimit="10" cx="-4754.131" cy="502.181" r="12"/>
</g>
<circle fill="none" stroke="#CE1C64" stroke-width="14" stroke-miterlimit="10" cx="-3760.43" cy="272.479" r="13"/>
<circle fill="none" stroke="#CE1C64" stroke-width="14" stroke-miterlimit="10" cx="-3760.43" cy="224.749" r="13"/>
<circle fill="none" stroke="#CE1C64" stroke-width="14" stroke-miterlimit="10" cx="-3760.43" cy="320.866" r="13"/>
<g>
	<g>
		<circle fill="none" stroke="#CE1C64" stroke-width="14" stroke-miterlimit="10" cx="-3979.893" cy="164.895" r="31.451"/>
		<polyline fill="none" stroke="#CE1C64" stroke-width="14" stroke-miterlimit="10" points="-3983.014,253.414 -4047.174,224.417 
			-3986.518,197.014 		"/>
		<polyline fill="none" stroke="#CE1C64" stroke-width="14" stroke-miterlimit="10" points="-3909.338,179.311 -3925.533,225.077 
			-3979.041,199.73 		"/>
		<polyline fill="none" stroke="#CE1C64" stroke-width="14" stroke-miterlimit="10" points="-4086.131,319.581 -4059.52,293.775 
			-4020.809,334.904 -3980.23,194.244 		"/>
		<polyline fill="none" stroke="#CE1C64" stroke-width="14" stroke-miterlimit="10" points="-3970.002,390.548 -4010.615,390.548 
			-3980.23,331.677 -4010.615,299.568 		"/>
		<circle fill="#CE1C64" cx="-3980.014" cy="254.414" r="13"/>
	</g>
	<circle fill="#CE1C64" cx="-3909.338" cy="179.311" r="13"/>
</g>
<g>
	<path fill="#CE1C65" d="M-4169.799,113.445l23.952-28.303l5.726,4.845l-15.057,17.792l7.053,5.97l14.069-16.624l5.68,4.807
		l-14.069,16.624l12.413,10.505l-8.896,10.51L-4169.799,113.445z"/>
	<path fill="#CE1C65" d="M-4122.588,66.039l25.273,31.572l-10.751,8.604l-25.272-31.572L-4122.588,66.039z"/>
	<path fill="#CE1C65" d="M-4094.157,56.706l-14.487,7.448l-3.511-6.83l41.46-21.316l3.511,6.83l-14.728,7.571l14.977,29.135
		l-12.246,6.296L-4094.157,56.706z"/>
	<path fill="#CE1C65" d="M-4006.648,60.858c-2.281,1.36-7.627,3.454-14.835,5.033c-20.483,4.489-32.895-1.697-35.361-12.951
		c-2.954-13.48,9.818-24.142,27.752-28.073c6.945-1.521,12.426-1.74,14.979-1.44l-1.172,7.689c-2.892-0.164-6.826-0.04-11.573,1.001
		c-10.637,2.331-17.963,8.421-16.037,17.212c1.735,7.913,9.859,11.353,21.815,8.733c4.043-0.886,8.398-2.455,10.882-3.736
		L-4006.648,60.858z"/>
	<path fill="#CE1C65" d="M-3982.791,22.282l-1.388,15.478l22.5,2.021l1.388-15.479l13.627,1.225l-3.611,40.279l-13.627-1.225
		l1.512-16.852l-22.501-2.022l-1.512,16.853l-13.715-1.232l3.612-40.279L-3982.791,22.282z"/>
	<path fill="#CE1C65" d="M-3924.406,64.444l-8.114,7.782l-13.031-5.693l33.181-29.634l16.495,7.206l1.047,44.586l-13.526-5.909
		l-0.133-11.385L-3924.406,64.444z M-3907.563,64.337l-0.029-9.375c-0.029-2.631,0.182-5.813,0.317-8.372l-0.164-0.072
		c-1.786,1.838-3.836,4.282-5.68,6.03l-6.734,6.42L-3907.563,64.337z"/>
	<path fill="#CE1C65" d="M-3855.705,69.296l-24.004,32.544l-11.082-8.173l24.003-32.543L-3855.705,69.296z"/>
	<path fill="#CE1C65" d="M-3871.189,106.905l30.842-26.157l10.362,12.219l-3.153,19.196c-0.92,5.501-2.435,11.508-4.166,16.516
		l0.175,0.207c3.49-4.141,7.48-7.878,12.101-11.798l9.016-7.645l8.15,9.61l-30.843,26.157l-9.314-10.983l3.515-19.976
		c0.967-5.54,2.386-11.938,4.08-17.269l-0.221-0.167c-3.84,3.729-8.07,7.553-13.104,11.821l-9.289,7.879L-3871.189,106.905z"/>
</g>
<g>
	
		<line fill="none" stroke="#CE1C64" stroke-width="14" stroke-linecap="round" stroke-miterlimit="10" x1="-4128.105" y1="272.807" x2="-4207.137" y2="272.807"/>
	<circle fill="none" stroke="#CE1C64" stroke-width="14" stroke-miterlimit="10" cx="-4221.137" cy="272.807" r="13"/>
</g>
<g>
	
		<line fill="none" stroke="#CE1C64" stroke-width="14" stroke-linecap="round" stroke-miterlimit="10" x1="-4129.008" y1="225.077" x2="-4208.041" y2="225.077"/>
	<circle fill="none" stroke="#CE1C64" stroke-width="14" stroke-miterlimit="10" cx="-4222.041" cy="225.077" r="13"/>
</g>
<g>
	
		<line fill="none" stroke="#CE1C64" stroke-width="14" stroke-linecap="round" stroke-miterlimit="10" x1="-4129.008" y1="321.193" x2="-4208.041" y2="321.193"/>
	<circle fill="none" stroke="#CE1C64" stroke-width="14" stroke-miterlimit="10" cx="-4222.041" cy="321.193" r="13"/>
</g>
<line fill="none" stroke="#CE1C64" stroke-width="14" stroke-linecap="round" stroke-miterlimit="10" x1="-3853.463" y1="272.479" x2="-3774.43" y2="272.479"/>
<line fill="none" stroke="#CE1C64" stroke-width="14" stroke-linecap="round" stroke-miterlimit="10" x1="-3853.463" y1="224.749" x2="-3774.43" y2="224.749"/>
<line fill="none" stroke="#CE1C64" stroke-width="14" stroke-linecap="round" stroke-miterlimit="10" x1="-3853.463" y1="320.866" x2="-3774.43" y2="320.866"/>
<g>
	<path fill="none" stroke="#CE1C64" stroke-width="14.8492" stroke-linecap="round" stroke-miterlimit="10" d="M-4141.234,413.048
		c82.908,82.911,217.09,82.911,300,0"/>
	
		<circle fill="none" stroke="#CE1C64" stroke-width="18.5618" stroke-linecap="round" stroke-miterlimit="10" cx="-3993.121" cy="475.229" r="15.91"/>
	<path fill="none" stroke="#CE1C64" stroke-width="18.5615" stroke-linecap="round" stroke-miterlimit="10" d="M-3888.461,456.823
		c0,8.79-7.123,15.909-15.91,15.909c-8.789,0-15.91-7.119-15.91-15.909c0-8.783,7.121-15.908,15.91-15.908
		C-3895.584,440.915-3888.461,448.04-3888.461,456.823z"/>
	
		<circle fill="none" stroke="#CE1C64" stroke-width="18.5615" stroke-linecap="round" stroke-miterlimit="10" cx="-4079.16" cy="456.824" r="15.91"/>
</g>
<g>
	
		<line fill="none" stroke="#025960" stroke-width="3.0191" stroke-linecap="round" stroke-miterlimit="10" x1="-3645.168" y1="259.396" x2="-3665.052" y2="259.396"/>
	<circle fill="none" stroke="#025960" stroke-width="3.0191" stroke-miterlimit="10" cx="-3668.574" cy="259.396" r="3.271"/>
	<path fill="none" stroke="#025960" stroke-width="3.0191" stroke-linecap="round" stroke-miterlimit="10" d="M-3645.395,247.388
		h-19.885"/>
	<circle fill="none" stroke="#025960" stroke-width="3.0191" stroke-miterlimit="10" cx="-3668.802" cy="247.388" r="3.271"/>
	
		<line fill="none" stroke="#025960" stroke-width="3.0191" stroke-linecap="round" stroke-miterlimit="10" x1="-3645.395" y1="271.57" x2="-3665.279" y2="271.57"/>
	<circle fill="none" stroke="#025960" stroke-width="3.0191" stroke-miterlimit="10" cx="-3668.802" cy="271.57" r="3.271"/>
</g>
<text transform="matrix(1.5 0 0 1 -3633.3809 271.6699)" fill="#CE1C65" font-family="'Arial-BoldMT'" font-size="34.002">FITCHAIN</text>
<g>
	
		<line fill="none" stroke="#025960" stroke-width="3.0191" stroke-linecap="round" stroke-miterlimit="10" x1="-3387.072" y1="259.314" x2="-3367.188" y2="259.314"/>
	<circle fill="none" stroke="#025960" stroke-width="3.0191" stroke-miterlimit="10" cx="-3363.667" cy="259.314" r="3.271"/>
	<path fill="none" stroke="#025960" stroke-width="3.0191" stroke-linecap="round" stroke-miterlimit="10" d="M-3366.961,247.305
		h-19.885"/>
	<circle fill="none" stroke="#025960" stroke-width="3.0191" stroke-miterlimit="10" cx="-3363.438" cy="247.305" r="3.271"/>
	
		<line fill="none" stroke="#025960" stroke-width="3.0191" stroke-linecap="round" stroke-miterlimit="10" x1="-3386.846" y1="271.488" x2="-3366.961" y2="271.488"/>
	<circle fill="none" stroke="#025960" stroke-width="3.0191" stroke-miterlimit="10" cx="-3363.438" cy="271.488" r="3.271"/>
</g>
<circle fill="none" stroke="#FFFFFF" stroke-width="14" stroke-miterlimit="10" cx="-2209.194" cy="271.225" r="13"/>
<circle fill="none" stroke="#FFFFFF" stroke-width="14" stroke-miterlimit="10" cx="-2209.194" cy="223.495" r="13"/>
<circle fill="none" stroke="#FFFFFF" stroke-width="14" stroke-miterlimit="10" cx="-2209.194" cy="319.611" r="13"/>
<g>
	<g>
		<circle fill="none" stroke="#FFFFFF" stroke-width="14" stroke-miterlimit="10" cx="-2428.657" cy="163.641" r="31.451"/>
		<polyline fill="none" stroke="#FFFFFF" stroke-width="14" stroke-miterlimit="10" points="-2431.778,252.16 -2495.938,223.164 
			-2435.282,195.76 		"/>
		<polyline fill="none" stroke="#FFFFFF" stroke-width="14" stroke-miterlimit="10" points="-2358.103,178.057 -2374.298,223.823 
			-2427.806,198.476 		"/>
		<polyline fill="none" stroke="#FFFFFF" stroke-width="14" stroke-miterlimit="10" points="-2534.896,318.327 -2508.284,292.521 
			-2469.573,333.65 -2428.995,192.99 		"/>
		<polyline fill="none" stroke="#FFFFFF" stroke-width="14" stroke-miterlimit="10" points="-2418.767,389.295 -2459.38,389.295 
			-2428.995,330.423 -2459.38,298.314 		"/>
		<circle fill="#FFFFFF" cx="-2428.778" cy="253.16" r="13"/>
	</g>
	<circle fill="#FFFFFF" cx="-2358.103" cy="178.057" r="13"/>
</g>
<g>
	<path fill="#FFFFFF" d="M-2618.563,112.191l23.952-28.303l5.727,4.845l-15.057,17.792l7.053,5.97l14.069-16.624l5.68,4.807
		l-14.069,16.624l12.413,10.505l-8.896,10.51L-2618.563,112.191z"/>
	<path fill="#FFFFFF" d="M-2571.353,64.785l25.273,31.572l-10.751,8.604l-25.272-31.572L-2571.353,64.785z"/>
	<path fill="#FFFFFF" d="M-2542.922,55.452l-14.487,7.448l-3.511-6.83l41.46-21.316l3.511,6.83l-14.728,7.571l14.977,29.135
		l-12.246,6.296L-2542.922,55.452z"/>
	<path fill="#FFFFFF" d="M-2455.413,59.604c-2.281,1.36-7.627,3.454-14.835,5.033c-20.483,4.489-32.895-1.697-35.361-12.951
		c-2.954-13.48,9.818-24.142,27.752-28.073c6.945-1.521,12.426-1.74,14.979-1.44l-1.172,7.689c-2.892-0.164-6.826-0.04-11.573,1.001
		c-10.637,2.331-17.963,8.421-16.037,17.212c1.735,7.913,9.858,11.353,21.814,8.733c4.043-0.886,8.398-2.455,10.882-3.736
		L-2455.413,59.604z"/>
	<path fill="#FFFFFF" d="M-2431.556,21.028l-1.388,15.478l22.5,2.021l1.388-15.478l13.627,1.225l-3.611,40.279l-13.627-1.225
		l1.512-16.852l-22.501-2.022l-1.512,16.853l-13.715-1.232l3.612-40.279L-2431.556,21.028z"/>
	<path fill="#FFFFFF" d="M-2373.171,63.19l-8.114,7.782l-13.031-5.693l33.181-29.634l16.495,7.206l1.047,44.586l-13.526-5.909
		l-0.133-11.385L-2373.171,63.19z M-2356.328,63.083l-0.029-9.375c-0.029-2.631,0.182-5.813,0.317-8.372l-0.164-0.072
		c-1.786,1.838-3.836,4.282-5.68,6.03l-6.734,6.42L-2356.328,63.083z"/>
	<path fill="#FFFFFF" d="M-2304.47,68.042l-24.004,32.544l-11.082-8.173l24.003-32.543L-2304.47,68.042z"/>
	<path fill="#FFFFFF" d="M-2319.954,105.651l30.842-26.157l10.362,12.219l-3.153,19.196c-0.92,5.501-2.435,11.508-4.166,16.516
		l0.175,0.207c3.49-4.141,7.48-7.878,12.101-11.798l9.016-7.645l8.15,9.61l-30.843,26.157l-9.314-10.983l3.515-19.976
		c0.967-5.54,2.386-11.938,4.08-17.269l-0.221-0.167c-3.84,3.729-8.07,7.553-13.104,11.821l-9.289,7.879L-2319.954,105.651z"/>
</g>
<g>
	
		<line fill="none" stroke="#FFFFFF" stroke-width="14" stroke-linecap="round" stroke-miterlimit="10" x1="-2576.87" y1="271.553" x2="-2655.901" y2="271.553"/>
	<circle fill="none" stroke="#FFFFFF" stroke-width="14" stroke-miterlimit="10" cx="-2669.901" cy="271.553" r="13"/>
</g>
<g>
	
		<line fill="none" stroke="#FFFFFF" stroke-width="14" stroke-linecap="round" stroke-miterlimit="10" x1="-2577.772" y1="223.823" x2="-2656.806" y2="223.823"/>
	<circle fill="none" stroke="#FFFFFF" stroke-width="14" stroke-miterlimit="10" cx="-2670.806" cy="223.823" r="13"/>
</g>
<g>
	
		<line fill="none" stroke="#FFFFFF" stroke-width="14" stroke-linecap="round" stroke-miterlimit="10" x1="-2577.772" y1="319.939" x2="-2656.806" y2="319.939"/>
	<circle fill="none" stroke="#FFFFFF" stroke-width="14" stroke-miterlimit="10" cx="-2670.806" cy="319.939" r="13"/>
</g>
<line fill="none" stroke="#FFFFFF" stroke-width="14" stroke-linecap="round" stroke-miterlimit="10" x1="-2302.228" y1="271.225" x2="-2223.194" y2="271.225"/>
<line fill="none" stroke="#FFFFFF" stroke-width="14" stroke-linecap="round" stroke-miterlimit="10" x1="-2302.228" y1="223.495" x2="-2223.194" y2="223.495"/>
<line fill="none" stroke="#FFFFFF" stroke-width="14" stroke-linecap="round" stroke-miterlimit="10" x1="-2302.228" y1="319.611" x2="-2223.194" y2="319.611"/>
<g>
	<path fill="none" stroke="#FFFFFF" stroke-width="14.8492" stroke-linecap="round" stroke-miterlimit="10" d="M-2589.999,411.795
		c82.908,82.91,217.09,82.91,300,0"/>
	
		<circle fill="none" stroke="#FFFFFF" stroke-width="18.5618" stroke-linecap="round" stroke-miterlimit="10" cx="-2441.886" cy="473.976" r="15.91"/>
	<path fill="none" stroke="#FFFFFF" stroke-width="18.5615" stroke-linecap="round" stroke-miterlimit="10" d="M-2337.226,455.568
		c0,8.79-7.123,15.908-15.91,15.908c-8.789,0-15.91-7.118-15.91-15.908c0-8.783,7.121-15.908,15.91-15.908
		C-2344.349,439.66-2337.226,446.785-2337.226,455.568z"/>
	
		<circle fill="none" stroke="#FFFFFF" stroke-width="18.5615" stroke-linecap="round" stroke-miterlimit="10" cx="-2527.925" cy="455.57" r="15.91"/>
</g>
<circle fill="none" stroke="#99D8DF" stroke-width="14" stroke-miterlimit="10" cx="-1668.268" cy="271.544" r="13"/>
<circle fill="none" stroke="#99D8DF" stroke-width="14" stroke-miterlimit="10" cx="-1668.268" cy="223.814" r="13"/>
<circle fill="none" stroke="#99D8DF" stroke-width="14" stroke-miterlimit="10" cx="-1668.268" cy="319.932" r="13"/>
<g>
	<g>
		<circle fill="none" stroke="#99D8DF" stroke-width="14" stroke-miterlimit="10" cx="-1887.73" cy="163.96" r="31.451"/>
		<polyline fill="none" stroke="#99D8DF" stroke-width="14" stroke-miterlimit="10" points="-1890.852,252.479 -1955.012,223.483 
			-1894.355,196.08 		"/>
		<polyline fill="none" stroke="#99D8DF" stroke-width="14" stroke-miterlimit="10" points="-1817.176,178.376 -1833.371,224.142 
			-1886.879,198.795 		"/>
		<polyline fill="none" stroke="#99D8DF" stroke-width="14" stroke-miterlimit="10" points="-1993.969,318.646 -1967.357,292.84 
			-1928.646,333.969 -1888.068,193.309 		"/>
		<polyline fill="none" stroke="#99D8DF" stroke-width="14" stroke-miterlimit="10" points="-1877.84,389.614 -1918.453,389.614 
			-1888.068,330.743 -1918.453,298.634 		"/>
		<circle fill="#99D8DF" cx="-1887.852" cy="253.479" r="13"/>
	</g>
	<circle fill="#99D8DF" cx="-1817.176" cy="178.376" r="13"/>
</g>
<g>
	<path fill="#223843" d="M-2077.637,112.511l23.952-28.303l5.726,4.845l-15.057,17.792l7.053,5.97l14.069-16.624l5.68,4.807
		l-14.069,16.624l12.413,10.505l-8.896,10.51L-2077.637,112.511z"/>
	<path fill="#223843" d="M-2030.426,65.104l25.272,31.572l-10.751,8.604l-25.271-31.572L-2030.426,65.104z"/>
	<path fill="#223843" d="M-2001.995,55.771l-14.487,7.448l-3.511-6.83l41.46-21.316l3.511,6.83l-14.728,7.571l14.977,29.135
		l-12.246,6.296L-2001.995,55.771z"/>
	<path fill="#223843" d="M-1914.486,59.924c-2.281,1.36-7.627,3.454-14.835,5.033c-20.483,4.489-32.895-1.697-35.361-12.951
		c-2.954-13.48,9.818-24.142,27.752-28.073c6.945-1.521,12.426-1.74,14.979-1.44l-1.172,7.689c-2.892-0.164-6.826-0.04-11.573,1.001
		c-10.637,2.331-17.963,8.421-16.037,17.212c1.735,7.913,9.859,11.353,21.815,8.733c4.043-0.886,8.398-2.455,10.882-3.736
		L-1914.486,59.924z"/>
	<path fill="#223843" d="M-1890.629,21.348l-1.388,15.478l22.5,2.021l1.388-15.478l13.627,1.225l-3.611,40.279l-13.627-1.225
		l1.512-16.852l-22.501-2.022l-1.512,16.853l-13.715-1.232l3.612-40.279L-1890.629,21.348z"/>
	<path fill="#223843" d="M-1832.244,63.51l-8.114,7.782l-13.031-5.693l33.181-29.634l16.495,7.206l1.047,44.586l-13.526-5.909
		l-0.133-11.385L-1832.244,63.51z M-1815.401,63.403l-0.029-9.375c-0.029-2.631,0.182-5.813,0.317-8.372l-0.164-0.072
		c-1.786,1.838-3.836,4.282-5.68,6.03l-6.734,6.42L-1815.401,63.403z"/>
	<path fill="#223843" d="M-1763.543,68.362l-24.004,32.544l-11.082-8.173l24.003-32.543L-1763.543,68.362z"/>
	<path fill="#223843" d="M-1779.027,105.971l30.842-26.157l10.362,12.219l-3.153,19.196c-0.92,5.501-2.436,11.508-4.166,16.516
		l0.175,0.207c3.49-4.141,7.48-7.878,12.101-11.798l9.016-7.645l8.15,9.61l-30.843,26.157l-9.314-10.983l3.515-19.976
		c0.967-5.54,2.386-11.938,4.08-17.269l-0.221-0.167c-3.84,3.729-8.07,7.553-13.104,11.821l-9.289,7.879L-1779.027,105.971z"/>
</g>
<g>
	
		<line fill="none" stroke="#99D8DF" stroke-width="14" stroke-linecap="round" stroke-miterlimit="10" x1="-2035.943" y1="271.873" x2="-2114.975" y2="271.873"/>
	<circle fill="none" stroke="#99D8DF" stroke-width="14" stroke-miterlimit="10" cx="-2128.975" cy="271.873" r="13"/>
</g>
<g>
	
		<line fill="none" stroke="#99D8DF" stroke-width="14" stroke-linecap="round" stroke-miterlimit="10" x1="-2036.846" y1="224.142" x2="-2115.879" y2="224.142"/>
	<circle fill="none" stroke="#99D8DF" stroke-width="14" stroke-miterlimit="10" cx="-2129.879" cy="224.142" r="13"/>
</g>
<g>
	
		<line fill="none" stroke="#99D8DF" stroke-width="14" stroke-linecap="round" stroke-miterlimit="10" x1="-2036.846" y1="320.259" x2="-2115.879" y2="320.259"/>
	<circle fill="none" stroke="#99D8DF" stroke-width="14" stroke-miterlimit="10" cx="-2129.879" cy="320.259" r="13"/>
</g>
<line fill="none" stroke="#99D8DF" stroke-width="14" stroke-linecap="round" stroke-miterlimit="10" x1="-1761.301" y1="271.544" x2="-1682.268" y2="271.544"/>
<line fill="none" stroke="#99D8DF" stroke-width="14" stroke-linecap="round" stroke-miterlimit="10" x1="-1761.301" y1="223.814" x2="-1682.268" y2="223.814"/>
<line fill="none" stroke="#99D8DF" stroke-width="14" stroke-linecap="round" stroke-miterlimit="10" x1="-1761.301" y1="319.932" x2="-1682.268" y2="319.932"/>
<g>
	<path fill="none" stroke="#223843" stroke-width="14.8492" stroke-linecap="round" stroke-miterlimit="10" d="M-2049.072,412.114
		c82.908,82.91,217.09,82.91,300,0"/>
	
		<circle fill="none" stroke="#223843" stroke-width="18.5618" stroke-linecap="round" stroke-miterlimit="10" cx="-1900.959" cy="474.295" r="15.91"/>
	<path fill="none" stroke="#223843" stroke-width="18.5615" stroke-linecap="round" stroke-miterlimit="10" d="M-1796.299,455.888
		c0,8.79-7.123,15.909-15.91,15.909c-8.789,0-15.91-7.119-15.91-15.909c0-8.782,7.121-15.907,15.91-15.907
		C-1803.422,439.979-1796.299,447.104-1796.299,455.888z"/>
	
		<circle fill="none" stroke="#223843" stroke-width="18.5615" stroke-linecap="round" stroke-miterlimit="10" cx="-1986.998" cy="455.89" r="15.91"/>
</g>
<circle fill="none" stroke="#223843" stroke-width="14" stroke-miterlimit="10" cx="-1129.194" cy="274.609" r="13"/>
<circle fill="none" stroke="#223843" stroke-width="14" stroke-miterlimit="10" cx="-1129.194" cy="226.879" r="13"/>
<circle fill="none" stroke="#223843" stroke-width="14" stroke-miterlimit="10" cx="-1129.194" cy="322.997" r="13"/>
<g>
	<g>
		<circle fill="none" stroke="#223843" stroke-width="14" stroke-miterlimit="10" cx="-1348.657" cy="167.026" r="31.451"/>
		<polyline fill="none" stroke="#223843" stroke-width="14" stroke-miterlimit="10" points="-1351.778,255.544 -1415.938,226.548 
			-1355.282,199.145 		"/>
		<polyline fill="none" stroke="#223843" stroke-width="14" stroke-miterlimit="10" points="-1278.103,181.442 -1294.298,227.208 
			-1347.806,201.861 		"/>
		<polyline fill="none" stroke="#223843" stroke-width="14" stroke-miterlimit="10" points="-1454.896,321.711 -1428.284,295.906 
			-1389.573,337.035 -1348.995,196.375 		"/>
		<polyline fill="none" stroke="#223843" stroke-width="14" stroke-miterlimit="10" points="-1338.767,392.68 -1379.38,392.68 
			-1348.995,333.809 -1379.38,301.7 		"/>
		<circle fill="#223843" cx="-1348.778" cy="256.544" r="13"/>
	</g>
	<circle fill="#223843" cx="-1278.103" cy="181.442" r="13"/>
</g>
<g>
	<path fill="#223843" d="M-1561.65,126.444l27.008-31.914l6.456,5.463l-16.978,20.062l7.952,6.731l15.864-18.745l6.404,5.42
		l-15.864,18.744l13.997,11.845l-10.03,11.851L-1561.65,126.444z"/>
	<path fill="#223843" d="M-1508.417,72.989l28.498,35.601l-12.123,9.702l-28.496-35.6L-1508.417,72.989z"/>
	<path fill="#223843" d="M-1476.359,62.465l-16.335,8.398l-3.959-7.701l46.749-24.036l3.959,7.702l-16.606,8.537l16.888,32.852
		l-13.809,7.099L-1476.359,62.465z"/>
	<path fill="#223843" d="M-1377.687,67.148c-2.572,1.534-8.6,3.894-16.728,5.675c-23.097,5.062-37.091-1.914-39.872-14.604
		c-3.331-15.2,11.07-27.222,31.292-31.654c7.832-1.715,14.012-1.961,16.891-1.624l-1.321,8.67c-3.261-0.185-7.697-0.044-13.05,1.129
		c-11.993,2.628-20.254,9.495-18.083,19.408c1.957,8.922,11.117,12.801,24.599,9.847c4.559-1,9.47-2.768,12.271-4.212
		L-1377.687,67.148z"/>
	<path fill="#223843" d="M-1350.785,23.65l-1.564,17.453l25.37,2.279l1.564-17.453l15.366,1.381l-4.072,45.417l-15.365-1.381
		l1.704-19.002l-25.371-2.28l-1.705,19.002l-15.465-1.39l4.073-45.417L-1350.785,23.65z"/>
	<path fill="#223843" d="M-1284.952,71.191l-9.149,8.774l-14.693-6.419l37.414-33.415l18.599,8.125l1.181,50.274l-15.252-6.663
		l-0.149-12.837L-1284.952,71.191z M-1265.96,71.071l-0.033-10.571c-0.033-2.967,0.204-6.555,0.357-9.44l-0.185-0.082
		c-2.015,2.073-4.325,4.828-6.404,6.799l-7.594,7.239L-1265.96,71.071z"/>
	<path fill="#223843" d="M-1207.486,76.663l-27.066,36.696l-12.495-9.216l27.064-36.695L-1207.486,76.663z"/>
	<path fill="#223843" d="M-1224.946,119.069l34.776-29.494l11.685,13.778l-3.556,21.646c-1.037,6.203-2.745,12.976-4.697,18.623
		l0.197,0.233c3.936-4.669,8.435-8.883,13.645-13.303l10.165-8.62l9.19,10.836l-34.777,29.494l-10.503-12.384l3.963-22.524
		c1.091-6.247,2.69-13.46,4.601-19.472l-0.249-0.188c-4.329,4.204-9.1,8.516-14.774,13.329l-10.475,8.884L-1224.946,119.069z"/>
</g>
<g>
	
		<line fill="none" stroke="#223843" stroke-width="14" stroke-linecap="round" stroke-miterlimit="10" x1="-1496.87" y1="274.938" x2="-1575.901" y2="274.938"/>
	<circle fill="none" stroke="#223843" stroke-width="14" stroke-miterlimit="10" cx="-1589.901" cy="274.938" r="13"/>
</g>
<g>
	
		<line fill="none" stroke="#223843" stroke-width="14" stroke-linecap="round" stroke-miterlimit="10" x1="-1497.772" y1="227.208" x2="-1576.806" y2="227.208"/>
	<circle fill="none" stroke="#223843" stroke-width="14" stroke-miterlimit="10" cx="-1590.806" cy="227.208" r="13"/>
</g>
<g>
	
		<line fill="none" stroke="#223843" stroke-width="14" stroke-linecap="round" stroke-miterlimit="10" x1="-1497.772" y1="323.325" x2="-1576.806" y2="323.325"/>
	<circle fill="none" stroke="#223843" stroke-width="14" stroke-miterlimit="10" cx="-1590.806" cy="323.325" r="13"/>
</g>
<line fill="none" stroke="#223843" stroke-width="14" stroke-linecap="round" stroke-miterlimit="10" x1="-1222.228" y1="274.609" x2="-1143.194" y2="274.609"/>
<line fill="none" stroke="#223843" stroke-width="14" stroke-linecap="round" stroke-miterlimit="10" x1="-1222.228" y1="226.879" x2="-1143.194" y2="226.879"/>
<line fill="none" stroke="#223843" stroke-width="14" stroke-linecap="round" stroke-miterlimit="10" x1="-1222.228" y1="322.997" x2="-1143.194" y2="322.997"/>
<g>
	<path fill="none" stroke="#223843" stroke-width="17.1139" stroke-linecap="round" stroke-miterlimit="10" d="M-1532.876,410.225
		c95.553,95.555,250.199,95.555,345.754,0"/>
	<path fill="none" stroke="#223843" stroke-width="21.3927" stroke-linecap="round" stroke-miterlimit="10" d="M-1343.837,481.889
		c0,10.13-8.209,18.336-18.337,18.336c-10.129,0-18.336-8.206-18.336-18.336c0-10.127,8.207-18.335,18.336-18.335
		C-1352.046,463.553-1343.837,471.762-1343.837,481.889z"/>
	<path fill="none" stroke="#223843" stroke-width="21.3924" stroke-linecap="round" stroke-miterlimit="10" d="M-1241.552,460.674
		c0,10.13-8.209,18.335-18.336,18.335c-10.13,0-18.337-8.205-18.337-18.335c0-10.123,8.207-18.334,18.337-18.334
		C-1249.761,442.34-1241.552,450.552-1241.552,460.674z"/>
	<path fill="none" stroke="#223843" stroke-width="21.3924" stroke-linecap="round" stroke-miterlimit="10" d="M-1442.998,460.677
		c0,10.128-8.207,18.335-18.337,18.335c-10.129,0-18.336-8.208-18.336-18.335c0-10.13,8.207-18.337,18.336-18.337
		C-1451.205,442.34-1442.998,450.547-1442.998,460.677z"/>
</g>
<g>
	<line fill="none" stroke="#223843" stroke-width="10" stroke-miterlimit="10" x1="-696" y1="266.705" x2="-671" y2="266.705"/>
	<g>
		<path fill="none" stroke="#223843" stroke-width="10" stroke-miterlimit="10" d="M-870,314.939c0,14.524-11.193,26.3-25,26.3l0,0
			c-13.807,0-25-11.774-25-26.3v-97.401c0-14.524,11.193-26.299,25-26.299l0,0c13.807,0,25,11.774,25,26.299V314.939z"/>
		<path fill="none" stroke="#223843" stroke-width="10" stroke-miterlimit="10" d="M-720,313.939c0,14.524-11.193,26.3-25,26.3l0,0
			c-13.807,0-25-11.774-25-26.3v-97.401c0-14.524,11.193-26.299,25-26.299l0,0c13.807,0,25,11.774,25,26.299V313.939z"/>
		<path fill="#213843" stroke="#223843" stroke-width="10" stroke-miterlimit="10" d="M-725,243.545c13.808,0,25,11.193,25,25
			c0,13.809-11.192,25-25,25"/>
		<path fill="#213843" stroke="#223843" stroke-width="10" stroke-miterlimit="10" d="M-916,290.239c-13.808,0-25-11.193-25-25
			c0-13.807,11.192-25,25-25"/>
		<line fill="none" stroke="#223843" stroke-width="10" stroke-miterlimit="10" x1="-870" y1="266.705" x2="-770" y2="266.705"/>
		<line fill="none" stroke="#223843" stroke-width="10" stroke-miterlimit="10" x1="-970" y1="265.238" x2="-945" y2="265.238"/>
	</g>
</g>
<g>
	<path fill="none" d="M-150.001,178.75c-44.8,0-81.25,36.449-81.25,81.25c0,44.803,36.45,81.25,81.25,81.25
		c44.804,0,81.251-36.447,81.251-81.25C-68.75,215.199-105.197,178.75-150.001,178.75z"/>
	<path fill="none" d="M-410,178.75c-44.799,0-81.251,36.449-81.251,81.25c0,44.803,36.452,81.25,81.251,81.25
		s81.25-36.447,81.25-81.25C-328.75,215.199-365.201,178.75-410,178.75z"/>
	<path fill="#213843" d="M-150.001,146.25c-30.99,0-59.062,12.408-79.575,32.5h-22.308c-5.62-9.706-16.096-16.25-28.116-16.25
		c-12.021,0-22.495,6.544-28.114,16.25h-22.312c-20.51-20.092-48.582-32.5-79.574-32.5c-62.842,0-113.75,50.948-113.75,113.75
		S-472.842,373.751-410,373.751S-296.25,322.801-296.25,260h32.5c0,62.802,50.908,113.751,113.749,113.751
		c62.843,0,113.752-50.949,113.752-113.751C-36.249,197.197-87.158,146.25-150.001,146.25z M-410,341.25
		c-44.799,0-81.251-36.447-81.251-81.25c0-44.8,36.452-81.25,81.251-81.25s81.25,36.449,81.25,81.25
		C-328.75,304.803-365.201,341.25-410,341.25z M-150.001,341.25c-44.8,0-81.25-36.447-81.25-81.25c0-44.8,36.45-81.25,81.25-81.25
		c44.804,0,81.251,36.449,81.251,81.25C-68.75,304.803-105.197,341.25-150.001,341.25z"/>
</g>
<g>
	<path fill="none" d="M136.923,136.923c25.451,0,46.153-20.703,46.153-46.153s-20.703-46.154-46.153-46.154
		c-25.45,0-46.154,20.704-46.154,46.154S111.473,136.923,136.923,136.923z"/>
	<path fill="none" d="M383.077,136.923c25.451,0,46.154-20.703,46.154-46.153s-20.703-46.154-46.154-46.154
		c-25.45,0-46.154,20.704-46.154,46.154S357.627,136.923,383.077,136.923z"/>
	<path fill="#FFFFFF" d="M383.077,152.308c33.984,0,61.538-27.554,61.538-61.538S417.062,29.23,383.077,29.23
		c-33.983,0-61.538,27.555-61.538,61.539S349.094,152.308,383.077,152.308z M383.077,44.616c25.451,0,46.154,20.704,46.154,46.154
		s-20.703,46.153-46.154,46.153c-25.45,0-46.154-20.703-46.154-46.153S357.627,44.616,383.077,44.616z"/>
	<path fill="#FFFFFF" d="M429.231,183.077h-92.309L260,260l-76.923-76.923H90.77c-16.993,0-30.77,13.777-30.77,30.77v123.077
		l30.77,30.77v107.692c0,8.497,6.882,15.384,15.384,15.384h61.539c8.503,0,15.384-6.887,15.384-15.384V260L260,336.923L336.923,260
		v215.385c0,8.497,6.883,15.384,15.385,15.384h61.539c8.502,0,15.385-6.887,15.385-15.384V367.692L460,336.923V213.846
		C460,196.854,446.225,183.077,429.231,183.077z"/>
	<path fill="#FFFFFF" d="M136.923,152.308c33.984,0,61.538-27.554,61.538-61.538S170.908,29.23,136.923,29.23
		c-33.984,0-61.539,27.555-61.539,61.539S102.939,152.308,136.923,152.308z M136.923,44.616c25.451,0,46.153,20.704,46.153,46.154
		s-20.703,46.153-46.153,46.153c-25.45,0-46.154-20.703-46.154-46.153S111.473,44.616,136.923,44.616z"/>
</g>
</svg>
