<?xml version="1.0" encoding="utf-8"?>
<!-- Generator: Adobe Illustrator 16.0.0, SVG Export Plug-In . SVG Version: 6.00 Build 0)  -->
<!DOCTYPE svg PUBLIC "-//W3C//DTD SVG 1.1//EN" "http://www.w3.org/Graphics/SVG/1.1/DTD/svg11.dtd">
<svg version="1.1" id="Layer_1" xmlns="http://www.w3.org/2000/svg" xmlns:xlink="http://www.w3.org/1999/xlink" x="0px" y="0px"
	 width="36px" height="36px" viewBox="878 878 36 36" enable-background="new 878 878 36 36" xml:space="preserve">
<path fill="#4B5369" d="M893.061,907.102c0,0.055,0.007,0.191,0.021,0.408c0.014,0.218,0.017,0.398,0.01,0.541
	c-0.007,0.144-0.027,0.303-0.061,0.479c-0.034,0.177-0.102,0.31-0.204,0.398c-0.102,0.088-0.242,0.133-0.418,0.133h-6.531
	c-1.619,0-3.003-0.575-4.153-1.725c-1.15-1.149-1.725-2.534-1.725-4.153v-14.367c0-1.619,0.575-3.004,1.725-4.153
	c1.149-1.149,2.534-1.725,4.153-1.725h6.531c0.177,0,0.33,0.064,0.459,0.194c0.129,0.129,0.194,0.282,0.194,0.459
	c0,0.055,0.007,0.19,0.021,0.408s0.017,0.397,0.01,0.541c-0.007,0.143-0.027,0.303-0.061,0.479c-0.034,0.177-0.102,0.31-0.204,0.397
	c-0.102,0.089-0.242,0.133-0.418,0.133h-6.531c-0.898,0-1.667,0.319-2.306,0.959c-0.639,0.64-0.959,1.408-0.959,2.307v14.367
	c0,0.898,0.32,1.667,0.959,2.307c0.64,0.639,1.408,0.959,2.306,0.959h6.368l0.234,0.021l0.235,0.061l0.163,0.112l0.143,0.184
	L893.061,907.102z M912,896c0,0.354-0.129,0.66-0.388,0.918l-11.103,11.103c-0.258,0.259-0.564,0.388-0.918,0.388
	s-0.66-0.129-0.918-0.388c-0.259-0.259-0.389-0.564-0.389-0.919v-5.877h-9.143c-0.354,0-0.66-0.129-0.918-0.388
	c-0.259-0.259-0.388-0.564-0.388-0.919v-7.837c0-0.354,0.129-0.659,0.388-0.918c0.258-0.259,0.564-0.388,0.918-0.388h9.143v-5.878
	c0-0.354,0.13-0.659,0.389-0.918c0.258-0.259,0.564-0.388,0.918-0.388s0.66,0.129,0.918,0.388l11.103,11.102
	C911.871,895.34,912,895.646,912,896z"/>
</svg>
