<?xml version="1.0" encoding="utf-8"?>
<!-- Generator: Adobe Illustrator 16.0.0, SVG Export Plug-In . SVG Version: 6.00 Build 0)  -->
<!DOCTYPE svg PUBLIC "-//W3C//DTD SVG 1.1//EN" "http://www.w3.org/Graphics/SVG/1.1/DTD/svg11.dtd">
<svg version="1.1" id="Layer_1" xmlns="http://www.w3.org/2000/svg" xmlns:xlink="http://www.w3.org/1999/xlink" x="0px" y="0px"
	 width="400px" height="400px" viewBox="0 0 400 400" enable-background="new 0 0 400 400" xml:space="preserve">
<path fill="#FFFFFF" d="M-1150.296,180.463c-27.45,0-49.704,22.253-49.704,49.704s22.254,49.704,49.704,49.704
	c27.451,0,49.703-22.253,49.703-49.704S-1122.846,180.463-1150.296,180.463z M-1150.297,271.588
	c-22.876,0-41.42-18.546-41.42-41.421s18.544-41.42,41.42-41.42c22.875,0,41.42,18.545,41.42,41.42
	S-1127.421,271.588-1150.297,271.588z"/>
<path fill="#FFFFFF" d="M-969.704,180.463c-27.451,0-49.706,22.253-49.706,49.704s22.255,49.704,49.706,49.704
	c27.451,0,49.704-22.253,49.704-49.704S-942.253,180.463-969.704,180.463z M-969.706,271.588c-22.874,0-41.422-18.546-41.422-41.421
	s18.548-41.42,41.422-41.42c22.876,0,41.423,18.545,41.423,41.42S-946.83,271.588-969.706,271.588z"/>
<path fill="#FFFFFF" d="M-1150.297,211.941c-10.064,0-18.225,8.162-18.225,18.226s8.161,18.226,18.225,18.226
	s18.225-8.16,18.225-18.226C-1132.072,220.104-1140.232,211.941-1150.297,211.941z M-1150.297,244.745
	c-8.053,0-14.581-6.524-14.581-14.578s6.528-14.58,14.581-14.58c8.053,0,14.58,6.526,14.58,14.58
	S-1142.244,244.745-1150.297,244.745z"/>
<path fill="#FFFFFF" d="M-969.706,211.941c-10.063,0-18.224,8.162-18.224,18.226s8.16,18.226,18.224,18.226
	s18.226-8.16,18.226-18.226C-951.48,220.104-959.642,211.941-969.706,211.941z M-969.706,244.745c-8.052,0-14.58-6.524-14.58-14.578
	s6.528-14.58,14.58-14.58c8.054,0,14.578,6.526,14.578,14.58S-961.652,244.745-969.706,244.745z"/>
<circle fill="#FFFFFF" cx="-1069.114" cy="230.167" r="14.911"/>
<polyline fill="none" stroke="#FFFFFF" stroke-width="6.6272" stroke-miterlimit="10" points="-1074.801,233.48 -1118.818,150.641 
	-1019.41,150.641 -1019.41,147.327 -1069.114,230.167 -969.706,230.167 -1019.41,147.327 "/>
<path fill="#FFFFFF" d="M-1003.24,133.396c0,2.744-2.331,4.97-5.207,4.97h-22.722c-2.876,0-5.207-2.226-5.207-4.97l0,0
	c0-2.746,2.331-4.971,5.207-4.971h22.722C-1005.571,128.425-1003.24,130.65-1003.24,133.396L-1003.24,133.396z"/>
<line fill="none" stroke="#FFFFFF" stroke-width="6.6272" stroke-miterlimit="10" x1="-1019.808" y1="133.396" x2="-1019.41" y2="147.327"/>
<path fill="none" stroke="#FFFFFF" stroke-width="4.1914" stroke-miterlimit="10" d="M-1054.203,260.014
	c0,0.916-1.187,1.656-2.649,1.656h-7.954c-1.463,0-2.65-0.74-2.65-1.656l0,0c0-0.914,1.188-1.656,2.65-1.656h7.954
	C-1055.39,258.357-1054.203,259.1-1054.203,260.014L-1054.203,260.014z"/>
<path fill="none" stroke="#FFFFFF" stroke-width="4.1914" stroke-miterlimit="10" d="M-1068.173,198.688
	c0,0.916-1.188,1.658-2.651,1.658h-7.953c-1.463,0-2.65-0.742-2.65-1.658l0,0c0-0.914,1.187-1.656,2.65-1.656h7.953
	C-1069.362,197.032-1068.173,197.774-1068.173,198.688L-1068.173,198.688z"/>
<line fill="none" stroke="#FFFFFF" stroke-width="4.6462" stroke-miterlimit="10" x1="-1074.801" y1="198.688" x2="-1060.831" y2="260.014"/>
<path fill="none" stroke="#FFFFFF" stroke-width="6.6272" stroke-miterlimit="10" d="M-1131.878,133.408
	c-2.107-0.704-3.813-1.542-4.992-2.472c-1.178-0.932-1.83-1.954-1.83-3.029c0-1.074,0.652-2.097,1.83-3.026
	c1.178-0.931,2.884-1.769,4.992-2.472c2.107-0.705,4.617-1.274,7.404-1.667c2.787-0.395,5.852-0.612,9.068-0.612
	c3.216,0,6.279,0.217,9.066,0.612c2.786,0.394,4.912,0.479,4.912,0.479l-49.646,110.604"/>
<g>
	<path d="M-219.086,60c-17.518,0-31.718,17.041-31.718,38.061c0,21.021,14.2,38.062,31.718,38.062
		c17.517,0,31.718-17.04,31.718-38.062C-187.368,77.041-201.569,60-219.086,60z M-219.086,129.779
		c-14.014,0-25.374-14.201-25.374-31.718c0-17.516,11.36-31.718,25.374-31.718c14.014,0,25.374,14.202,25.374,31.718
		C-193.712,115.578-205.072,129.779-219.086,129.779z"/>
	
		<line fill="none" stroke="#000000" stroke-width="6.3436" stroke-miterlimit="10" x1="-219.086" y1="136.123" x2="-219.086" y2="246.925"/>
	<polyline fill="none" stroke="#000000" stroke-width="6.3436" stroke-miterlimit="10" points="-250.804,284.986 -262.856,212.245 
		-219.086,246.925 	"/>
	<path d="M-289.535,283.473L-289.535,283.473c2.438-9.502,10.281-15.699,17.521-13.842l16.384,4.201
		c7.241,1.857,11.134,11.064,8.697,20.566l0,0"/>
	<path fill="none" stroke="#000000" stroke-width="6.3436" stroke-miterlimit="10" d="M-220.989,135.277
		c-7.154,2.787-17.047-0.828-24.957,0.934c-11.074,2.464-19.983,11.93-27.947,19.167c-7.588,6.894-14.373,8.922-22.373,13.732"/>
	<circle cx="-302.205" cy="172.475" r="12.669"/>
	<path fill="none" stroke="#000000" stroke-width="6.3436" stroke-miterlimit="10" d="M-219.086,134.854
		c7.155,2.787,17.047-0.828,24.959,0.933c11.073,2.464,19.981,11.931,27.946,19.167c7.588,6.893,14.372,8.922,22.373,13.732"/>
	<circle cx="-137.871" cy="172.051" r="12.669"/>
	<polyline fill="none" stroke="#000000" stroke-width="6.3436" stroke-miterlimit="10" points="-187.492,284.986 -175.438,212.245 
		-219.21,246.925 	"/>
	<path d="M-148.761,283.473L-148.761,283.473c-2.438-9.502-10.28-15.699-17.521-13.842l-16.385,4.201
		c-7.24,1.857-11.133,11.064-8.696,20.566l0,0"/>
	<path fill="none" stroke="#000000" stroke-width="2.5374" stroke-miterlimit="10" d="M-137.389,181.796
		c0,9.68-0.743,19.925,1.013,29.394c1.893,10.191,8.034,17.562,12.329,26.64c7.787,16.467,16.392,45.653,11.062,63.839
		c-5.803,19.795-38.38,28.406-55.902,31.57c-14.077,2.541-30.283,7.223-44.624,6.726h-12.976
		c-14.341,0.497-30.547-4.185-44.623-6.726c-17.523-3.164-50.101-11.775-55.903-31.57c-5.33-18.186,3.274-47.372,11.062-63.839
		c4.295-9.076,10.437-16.447,12.329-26.64c1.756-9.469,1.013-19.713,1.013-29.394"/>
	<rect x="-221.158" y="245.283" width="4.027" height="4.127"/>
</g>
<path d="M-730.297,180.463c-27.449,0-49.703,22.253-49.703,49.704s22.254,49.704,49.703,49.704
	c27.451,0,49.703-22.253,49.703-49.704S-702.846,180.463-730.297,180.463z M-730.297,271.588c-22.876,0-41.42-18.546-41.42-41.421
	s18.544-41.42,41.42-41.42c22.875,0,41.42,18.545,41.42,41.42S-707.422,271.588-730.297,271.588z"/>
<path d="M-549.704,180.463c-27.451,0-49.706,22.253-49.706,49.704s22.255,49.704,49.706,49.704
	c27.451,0,49.704-22.253,49.704-49.704S-522.253,180.463-549.704,180.463z M-549.706,271.588c-22.874,0-41.422-18.546-41.422-41.421
	s18.548-41.42,41.422-41.42c22.876,0,41.423,18.545,41.423,41.42S-526.83,271.588-549.706,271.588z"/>
<path d="M-730.297,211.941c-10.064,0-18.225,8.162-18.225,18.226s8.16,18.226,18.225,18.226s18.225-8.16,18.225-18.226
	C-712.072,220.104-720.232,211.941-730.297,211.941z M-730.297,244.745c-8.053,0-14.58-6.524-14.58-14.578s6.527-14.58,14.58-14.58
	c8.053,0,14.58,6.526,14.58,14.58S-722.244,244.745-730.297,244.745z"/>
<path d="M-549.706,211.941c-10.063,0-18.224,8.162-18.224,18.226s8.16,18.226,18.224,18.226s18.226-8.16,18.226-18.226
	C-531.48,220.104-539.642,211.941-549.706,211.941z M-549.706,244.745c-8.052,0-14.58-6.524-14.58-14.578s6.528-14.58,14.58-14.58
	c8.054,0,14.578,6.526,14.578,14.58S-541.652,244.745-549.706,244.745z"/>
<circle cx="-649.114" cy="230.167" r="14.911"/>
<polyline fill="none" stroke="#000000" stroke-width="6.6272" stroke-miterlimit="10" points="-654.801,233.48 -698.818,150.641 
	-599.41,150.641 -599.41,147.327 -649.114,230.167 -549.706,230.167 -599.41,147.327 "/>
<path d="M-583.24,133.396c0,2.744-2.331,4.97-5.207,4.97h-22.722c-2.876,0-5.207-2.226-5.207-4.97l0,0
	c0-2.746,2.331-4.971,5.207-4.971h22.722C-585.571,128.425-583.24,130.65-583.24,133.396L-583.24,133.396z"/>
<line fill="none" x1="-599.808" y1="133.396" x2="-599.41" y2="147.327"/>
<path d="M-634.203,260.014c0,0.916-1.187,1.656-2.649,1.656h-7.954c-1.463,0-2.65-0.74-2.65-1.656l0,0
	c0-0.914,1.188-1.656,2.65-1.656h7.954C-635.39,258.357-634.203,259.1-634.203,260.014L-634.203,260.014z"/>
<path d="M-648.174,198.688c0,0.916-1.188,1.658-2.65,1.658h-7.953c-1.463,0-2.65-0.742-2.65-1.658l0,0
	c0-0.914,1.188-1.656,2.65-1.656h7.953C-649.361,197.031-648.174,197.773-648.174,198.688L-648.174,198.688z"/>
<line fill="none" stroke="#000000" stroke-width="4.6462" stroke-miterlimit="10" x1="-654.801" y1="198.688" x2="-640.83" y2="260.014"/>
<path fill="none" stroke="#000000" stroke-width="6.6272" stroke-miterlimit="10" d="M-711.878,133.408
	c-2.107-0.704-3.813-1.542-4.991-2.472c-1.178-0.932-1.83-1.954-1.83-3.029c0-1.074,0.652-2.097,1.83-3.026
	c1.178-0.931,2.884-1.769,4.991-2.472c2.107-0.705,4.616-1.274,7.403-1.667c2.787-0.395,5.852-0.612,9.068-0.612
	c3.216,0,6.279,0.217,9.066,0.612c2.785,0.394,4.912,0.479,4.912,0.479l-49.646,110.604"/>
<g>
	<rect x="545" y="233.699" width="150" height="50"/>
	<rect x="595" y="174.394" width="100" height="50"/>
	<rect x="645" y="116.301" width="50" height="50"/>
</g>
<g>
	<rect x="965" y="233.699" fill="#FFFFFF" width="150" height="50"/>
	<rect x="1015" y="174.395" fill="#FFFFFF" width="100" height="50"/>
	<rect x="1065" y="116.301" fill="#FFFFFF" width="50" height="50"/>
</g>
<path fill="#4B5369" d="M200.782,77.625c-16.108,0-29.165,15.669-29.165,35s13.058,35,29.165,35c16.108,0,29.165-15.669,29.165-35
	C229.949,93.294,216.891,77.625,200.782,77.625z M200.782,136.763c-10.666,0-19.311-10.808-19.311-24.14
	c0-13.332,8.645-24.138,19.311-24.138c10.666,0,19.31,10.808,19.31,24.138C220.092,125.956,211.448,136.763,200.782,136.763z"/>
<line fill="none" stroke="#4B5369" stroke-width="9" stroke-miterlimit="10" x1="200.782" y1="145.249" x2="200.782" y2="240.221"/>
<polyline fill="none" stroke="#4B5369" stroke-width="9" stroke-miterlimit="10" points="173.597,272.845 163.266,210.497 
	200.782,240.221 "/>
<path fill="#4B5369" d="M140.397,271.548L140.397,271.548c2.09-8.146,8.812-13.457,15.02-11.864l14.043,3.6
	c6.207,1.592,9.542,9.485,7.455,17.63l0,0"/>
<path fill="none" stroke="#4B5369" stroke-width="9" stroke-miterlimit="10" d="M199.152,144.524
	c-6.132,2.389-14.612-0.709-21.393,0.801c-9.492,2.112-17.127,10.226-23.954,16.427c-6.504,5.909-12.32,7.648-19.176,11.771"/>
<circle fill="#4B5369" cx="129.539" cy="176.407" r="14"/>
<path fill="none" stroke="#4B5369" stroke-width="9" stroke-miterlimit="10" d="M200.782,144.16
	c6.132,2.39,14.613-0.709,21.392,0.801c9.492,2.112,17.128,10.227,23.955,16.428c6.506,5.909,12.32,7.649,19.176,11.771"/>
<circle fill="#4B5369" cx="270.396" cy="176.044" r="14"/>
<polyline fill="none" stroke="#4B5369" stroke-width="9" stroke-miterlimit="10" points="227.863,272.845 238.194,210.497 
	200.676,240.221 "/>
<path fill="#4B5369" d="M261.062,271.548L261.062,271.548c-2.089-8.146-8.812-13.457-15.019-11.864l-14.044,3.6
	c-6.206,1.592-9.543,9.485-7.453,17.63l0,0"/>
<path fill="none" stroke="#4B5369" stroke-width="6" stroke-miterlimit="10" d="M270.808,184.398c0,8.298-0.636,17.079,0.868,25.193
	c1.624,8.737,6.887,15.056,10.569,22.835c6.675,14.114,14.05,39.13,9.479,54.719c-4.973,16.967-32.896,24.349-47.916,27.06
	c-12.065,2.179-25.954,6.191-38.248,5.765h-11.122c-12.292,0.427-26.184-3.586-38.248-5.765
	c-15.021-2.711-42.943-10.093-47.918-27.06c-4.568-15.588,2.806-40.604,9.48-54.719c3.682-7.779,8.947-14.098,10.569-22.835
	c1.505-8.114,0.869-16.895,0.869-25.193"/>
<rect x="198.232" y="238.021" fill="#4B5369" width="5" height="5.124"/>
<g id="Layer_2">
	<rect x="463.916" y="-214" width="286" height="428"/>
	<g>
		<path fill="#FFFFFF" stroke="#000000" stroke-width="4.5321" stroke-miterlimit="10" d="M1486.422,253.182"/>
		<path fill="#FFFFFF" stroke="#000000" stroke-width="4.5321" stroke-miterlimit="10" d="M1452.518,253.182"/>
		<g>
			<path fill="#FFFFFF" stroke="#000000" stroke-width="3.4536" stroke-miterlimit="10" d="M1481.816,253.182h21.817
				c6.771,0,13.222,1.57,19.087,4.41c5.867,2.842,11.15,6.949,15.588,12.027c4.438,5.078,8.028,11.126,10.51,17.84
				s3.854,14.096,3.854,21.844l0,0l0,0l0,0l0,0"/>
			<path fill="#FFFFFF" stroke="#000000" stroke-width="3.4536" stroke-miterlimit="10" d="M1367.327,309.303L1367.327,309.303
				L1367.327,309.303L1367.327,309.303L1367.327,309.303c0-7.748,1.372-15.13,3.854-21.844c2.48-6.714,6.071-12.762,10.51-17.84
				c4.438-5.078,9.722-9.188,15.589-12.027c5.865-2.84,12.316-4.41,19.087-4.41h21.817"/>
		</g>
		<path fill="#FFFFFF" stroke="#000000" stroke-width="4.3359" stroke-miterlimit="10" d="M1514.105,125.722l3.454,93.903
			c0,5.637-5.152,10.206-11.512,10.206h-92.098c-6.358,0-11.513-4.569-11.513-10.206l3.454-93.903"/>
		<g>
			<circle cx="1437.839" cy="161.084" r="8.634"/>
			<circle cx="1482.161" cy="161.084" r="8.634"/>
		</g>
		<path fill="none" stroke="#000000" stroke-width="3.4536" stroke-miterlimit="10" d="M1486.479,190.44
			c0,5.723-11.854,10.361-26.479,10.361s-26.479-4.639-26.479-10.361"/>
		
			<linearGradient id="SVGID_1_" gradientUnits="userSpaceOnUse" x1="940.4395" y1="649.9062" x2="1055.5596" y2="649.9062" gradientTransform="matrix(1 0 0 -1 462 773)">
			<stop  offset="0" style="stop-color:#FFFFFF"/>
			<stop  offset="1" style="stop-color:#000000"/>
		</linearGradient>
		
			<rect x="1402.439" y="109.855" fill="url(#SVGID_1_)" stroke="#000000" stroke-width="3.6382" stroke-miterlimit="10" width="115.12" height="26.478"/>
		<path fill="#FFFFFF" stroke="#000000" stroke-width="4.3284" stroke-miterlimit="10" d="M1516.409,139.787L1516.409,139.787
			c5.562,0,10.073,4.51,10.073,10.073v5.181c0,5.562-4.512,10.073-10.073,10.073"/>
		<path fill="#FFFFFF" stroke="#000000" stroke-width="4.3284" stroke-miterlimit="10" d="M1403.591,165.114L1403.591,165.114
			c-5.562,0-10.073-4.511-10.073-10.073v-5.181c0-5.563,4.512-10.073,10.073-10.073"/>
		<g>
			
				<line fill="none" stroke="#000000" stroke-width="2.3024" stroke-miterlimit="10" x1="1470.505" y1="228.885" x2="1470.505" y2="261.239"/>
			
				<line fill="none" stroke="#000000" stroke-width="2.3024" stroke-miterlimit="10" x1="1449.495" y1="261.239" x2="1449.495" y2="228.885"/>
		</g>
		<g>
			
				<rect x="1409.7" y="283.688" fill="#FFFFFF" stroke="#000000" stroke-width="2.4634" stroke-miterlimit="10" width="100.729" height="61.015"/>
			<text transform="matrix(1 0 0 1 1419.8398 328.5859)" font-family="'MyriadPro-Regular'" font-size="48.3508">123</text>
			<g>
				<circle cx="1416.757" cy="291.171" r="3.454"/>
				<circle cx="1416.757" cy="337.22" r="3.454"/>
			</g>
			<g>
				<circle cx="1502.959" cy="291.171" r="3.454"/>
				<circle cx="1502.959" cy="337.22" r="3.454"/>
			</g>
			<rect x="1409.569" y="250.361" width="11.512" height="32.75"/>
			<rect x="1498.354" y="250.361" width="11.513" height="32.75"/>
		</g>
		
			<line fill="none" stroke="#000000" stroke-width="3.4536" stroke-miterlimit="10" x1="1434.674" y1="253.182" x2="1449.062" y2="253.182"/>
		
			<line fill="none" stroke="#000000" stroke-width="3.4536" stroke-miterlimit="10" x1="1471.54" y1="253.182" x2="1486.422" y2="253.182"/>
		<path fill="#FFFFFF" stroke="#000000" stroke-width="4.3284" stroke-miterlimit="10" d="M1517.561,138.06
			c1.613-6.126-4.736-18.995-0.141-28.639c0.981-2.059-8.654,0.502-10.946,0.543c-5.639,0.101-11.291-0.093-16.902-0.73
			c-9.351-1.062-17.186,8.478-29.154,4.958c-6.678-1.963-7.056-5.359-13.681-5.246c-5.03,0.085-11.31,5.392-16.54,6.309
			c-11.778,2.065-21.749-1.515-31.339-7.063h-0.264c8.743,11.044,8.743,11.044,3.838,32.747c0,0-27.582-27.958-26.964-41.673
			c0.48-10.653,16.812-21.172,25.938-22.348c1.967-11.771,6.896-26.598,16.987-29.002c11.789-2.811,20.767,8.659,33.072,7.026
			c11.221-1.488,24.187-17.883,32.655-5.862c5.85,8.301,1.702,20.301,16.009,18.761c8.716-0.938,19.313-14.217,27.856-2.478
			c9.06,12.446-7.661,16.076-5.884,25.76c2.017,10.986,15.774,6.851,11.125,23.571c-1.964,7.053-8.214,13.021-13.035,17.545
			c-1.107,1.041-1.514,4.779-2.64,5.822L1517.561,138.06L1517.561,138.06z"/>
	</g>
	<g>
		<g>
			<path fill="#FFFFFF" stroke="#FFFFFF" stroke-width="4.2085" stroke-miterlimit="10" d="M1820.008,304.23v-33.366
				c0-22.207,14.385-40.21,32.131-40.21h55.724c17.745,0,32.131,18.003,32.131,40.21v33.366"/>
			<path fill="#FFFFFF" stroke="#000000" stroke-width="3.236" stroke-miterlimit="10" d="M1898.865,229.927"/>
			<path fill="#FFFFFF" stroke="#000000" stroke-width="3.236" stroke-miterlimit="10" d="M1874.658,229.927"/>
			<path fill="#FFFFFF" stroke="#FFFFFF" stroke-width="2.6075" stroke-miterlimit="10" d="M1918.633,152.39l-6.102,55.887
				c0,3.354-9.125,8.119-13.666,8.119h-37.771c-4.541,0-13.627-4.767-13.627-8.119l-6.102-55.887"/>
			<g>
				<circle cx="1864.177" cy="172.167" r="6.165"/>
				<circle cx="1895.823" cy="172.167" r="6.165"/>
			</g>
			<path fill="none" stroke="#000000" stroke-width="2.8561" stroke-miterlimit="10" d="M1898.904,193.128
				c0,4.086-8.463,7.397-18.904,7.397s-18.904-3.312-18.904-7.397"/>
			<rect x="1838.9" y="135.59" stroke="#FFFFFF" stroke-width="2.8561" stroke-miterlimit="10" width="82.199" height="18.905"/>
			<path fill="#FFFFFF" stroke="#FFFFFF" stroke-width="2.8561" stroke-miterlimit="10" d="M1918.207,164.958L1918.207,164.958
				c3.971,0,7.191,3.22,7.191,7.192v3.699c0,3.972-3.221,7.191-7.191,7.191"/>
			<path fill="#FFFFFF" stroke="#FFFFFF" stroke-width="2.8561" stroke-miterlimit="10" d="M1841.793,183.041L1841.793,183.041
				c-3.971,0-7.191-3.22-7.191-7.191v-3.699c0-3.972,3.221-7.192,7.191-7.192"/>
			
				<rect x="1844.086" y="251.71" fill="none" stroke="#000000" stroke-width="2.8561" stroke-miterlimit="10" width="71.922" height="43.563"/>
			
				<line fill="none" stroke="#FFFFFF" stroke-width="2.8561" stroke-miterlimit="10" x1="1861.918" y1="229.927" x2="1872.191" y2="229.927"/>
			
				<line fill="none" stroke="#FFFFFF" stroke-width="2.8561" stroke-miterlimit="10" x1="1888.24" y1="229.927" x2="1898.865" y2="229.927"/>
			<path fill="#FFFFFF" stroke="#FFFFFF" stroke-width="2.7427" stroke-miterlimit="10" d="M1919.592,157.683
				c1.076-4.317-3.16-13.389-0.094-20.185c0.654-1.452-5.773,0.354-7.303,0.382c-3.76,0.07-7.531-0.066-11.273-0.515
				c-6.238-0.749-11.463,5.975-19.447,3.495c-4.453-1.385-4.705-3.778-9.125-3.698c-3.354,0.06-7.543,3.8-11.03,4.447
				c-7.857,1.456-14.511-1.067-20.904-4.979h-0.178c5.832,7.785,5.832,7.785,2.561,23.081c0,0-18.396-19.706-17.983-29.372
				c0.319-7.509,11.213-14.923,17.301-15.751c1.312-8.297,4.6-18.748,11.33-20.442c7.863-1.981,13.852,6.103,22.061,4.952
				c7.484-1.049,16.133-12.605,21.781-4.132c3.902,5.851,1.137,14.309,10.68,13.224c5.812-0.662,12.881-10.021,18.58-1.747
				c6.041,8.772-5.109,11.331-3.924,18.157c1.344,7.743,10.521,4.829,7.42,16.613c-1.309,4.971-5.479,9.178-8.695,12.366
				c-0.737,0.733-1.01,3.368-1.76,4.104H1919.592z"/>
			<text transform="matrix(1 0 0 1 1851.3242 283.7656)" font-family="'MyriadPro-Regular'" font-size="34.5234">123</text>
			
				<text transform="matrix(1 0 0 1 1851.3242 283.7656)" fill="none" stroke="#000000" stroke-width="1.071" stroke-miterlimit="10" font-family="'MyriadPro-Regular'" font-size="34.5234">123</text>
			<g>
				<circle stroke="#000000" stroke-width="1.071" stroke-miterlimit="10" cx="1849.124" cy="257.053" r="2.466"/>
				<circle stroke="#000000" stroke-width="1.071" stroke-miterlimit="10" cx="1849.124" cy="289.933" r="2.466"/>
			</g>
			<g>
				<circle stroke="#000000" stroke-width="1.071" stroke-miterlimit="10" cx="1910.674" cy="257.053" r="2.467"/>
				<circle stroke="#000000" stroke-width="1.071" stroke-miterlimit="10" cx="1910.674" cy="289.933" r="2.467"/>
			</g>
			<rect x="1843.992" y="227.914" width="8.219" height="23.385"/>
			<rect x="1907.385" y="227.914" width="8.221" height="23.385"/>
			
				<rect x="1872.129" y="215.457" fill="#FFFFFF" stroke="#FFFFFF" stroke-width="2.6075" stroke-miterlimit="10" width="15.74" height="17.348"/>
		</g>
		<rect x="1832.191" y="279.932" width="6" height="30"/>
		<rect x="1921.809" y="279.932" width="6" height="30"/>
	</g>
</g>
</svg>
