<?xml version="1.0" encoding="utf-8"?>
<!-- Generator: Adobe Illustrator 16.0.0, SVG Export Plug-In . SVG Version: 6.00 Build 0)  -->
<!DOCTYPE svg PUBLIC "-//W3C//DTD SVG 1.1//EN" "http://www.w3.org/Graphics/SVG/1.1/DTD/svg11.dtd">
<svg version="1.1" id="Layer_1" xmlns="http://www.w3.org/2000/svg" xmlns:xlink="http://www.w3.org/1999/xlink" x="0px" y="0px"
	 width="120px" height="120px" viewBox="0 0 120 120" enable-background="new 0 0 120 120" xml:space="preserve">
<path fill="#0F4C81" d="M120,56h-8.169C109.887,30.477,89.523,10.113,64,8.168V0h-8v8.168C30.476,10.113,10.113,30.477,8.169,56H0v8
	h8.169C10.113,89.521,30.476,109.887,56,111.831V120h8v-8.169c25.523-1.944,45.887-22.31,47.831-47.831H120V56z M103.811,56H91.742
	C89.936,41.531,78.471,30.064,64,28.258V16.19C85.075,18.099,101.9,34.925,103.811,56 M87.71,64C85.95,76.244,76.244,85.95,64,87.71
	V72h-8v15.71C43.756,85.95,34.05,76.244,32.29,64H48v-8H32.29C34.05,43.756,43.756,34.05,56,32.29V48h8V32.29
	C76.244,34.05,85.95,43.756,87.71,56H72v8H87.71z M56,16.19v12.068C41.529,30.064,30.064,41.531,28.258,56H16.19
	C18.099,34.925,34.925,18.099,56,16.19 M16.19,64h12.068C30.064,78.469,41.529,89.936,56,91.742v12.068
	C34.925,101.9,18.099,85.075,16.19,64 M64,103.811V91.742C78.471,89.936,89.936,78.469,91.742,64h12.066
	C101.9,85.075,85.075,101.9,64,103.811"/>
</svg>
