<?xml version="1.0" encoding="utf-8"?>
<!-- Generator: Adobe Illustrator 16.0.0, SVG Export Plug-In . SVG Version: 6.00 Build 0)  -->
<!DOCTYPE svg PUBLIC "-//W3C//DTD SVG 1.1//EN" "http://www.w3.org/Graphics/SVG/1.1/DTD/svg11.dtd">
<svg version="1.1" id="Layer_1" xmlns="http://www.w3.org/2000/svg" xmlns:xlink="http://www.w3.org/1999/xlink" x="0px" y="0px"
	 width="120px" height="120px" viewBox="0 0 120 120" enable-background="new 0 0 120 120" xml:space="preserve">
<path fill="#4B5369" d="M60,4C29.072,4,4,29.072,4,60s25.072,56,56,56c30.928,0,56-25.072,56-56S90.928,4,60,4 M60,108
	c-26.467,0-48-21.532-48-48c0-26.467,21.533-48,48-48c26.468,0,48,21.533,48,48C108,86.468,86.468,108,60,108"/>
<polygon fill="#4B5369" points="86.586,30.586 61.415,55.757 46.829,41.172 41.171,46.829 55.757,61.415 50.586,66.586 
	53.414,69.414 58.585,64.243 65.171,70.829 70.829,65.172 64.243,58.586 89.414,33.414 "/>
</svg>
