<?xml version="1.0" encoding="utf-8"?>
<!-- Generator: Adobe Illustrator 16.0.0, SVG Export Plug-In . SVG Version: 6.00 Build 0)  -->
<!DOCTYPE svg PUBLIC "-//W3C//DTD SVG 1.1//EN" "http://www.w3.org/Graphics/SVG/1.1/DTD/svg11.dtd">
<svg version="1.1" id="Layer_1" xmlns="http://www.w3.org/2000/svg" xmlns:xlink="http://www.w3.org/1999/xlink" x="0px" y="0px"
	 width="120px" height="120px" viewBox="0 0 120 120" enable-background="new 0 0 120 120" xml:space="preserve">
<path fill="#FFFFFF" d="M60,4C29.072,4,4,29.072,4,60c0,30.928,25.072,56,56,56c30.928,0,56-25.072,56-56C116,29.072,90.928,4,60,4
	 M60,112C31.327,112,8,88.673,8,60S31.327,8,60,8s52,23.327,52,52S88.673,112,60,112"/>
<polygon fill="#FFFFFF" points="86.586,30.586 61.415,55.757 46.829,41.172 41.171,46.829 55.757,61.415 50.586,66.586 
	53.414,69.414 58.585,64.243 65.171,70.829 70.829,65.172 64.243,58.586 89.414,33.414 "/>
</svg>
