<?xml version="1.0" encoding="utf-8"?>
<!-- Generator: Adobe Illustrator 16.0.0, SVG Export Plug-In . SVG Version: 6.00 Build 0)  -->
<!DOCTYPE svg PUBLIC "-//W3C//DTD SVG 1.1//EN" "http://www.w3.org/Graphics/SVG/1.1/DTD/svg11.dtd">
<svg version="1.1" id="Layer_1" xmlns="http://www.w3.org/2000/svg" xmlns:xlink="http://www.w3.org/1999/xlink" x="0px" y="0px"
	 width="32px" height="32px" viewBox="0 0 32 32" enable-background="new 0 0 32 32" xml:space="preserve">
<path id="Shape" fill="#4B5369" d="M16,6.4c3.9,0,7,3.1,7,7s-3.1,7-7,7c-3.9,0-7-3.101-7-7S12.1,6.4,16,6.4L16,6.4z M16,4.4
	c-5,0-9,4-9,9c0,5,4,9,9,9s9-4,9-9C25,8.4,21,4.4,16,4.4L16,4.4L16,4.4z"/>
<path id="Shape_1_" fill="#4B5369" d="M16,0C7.2,0,0,7.2,0,16s7.2,16,16,16s16-7.2,16-16S24.8,0,16,0L16,0z M23.3,24.3H8.7
	c-1.2,0-2.2,0.5-2.8,1.3C3.5,23.1,2,19.7,2,16C2,8.3,8.3,2,16,2s14,6.3,14,14c0,3.7-1.5,7.1-3.9,9.6C25.5,24.8,24.4,24.3,23.3,24.3
	L23.3,24.3z"/>
</svg>
