<?xml version="1.0" encoding="utf-8"?>
<!-- Generator: Adobe Illustrator 16.0.0, SVG Export Plug-In . SVG Version: 6.00 Build 0)  -->
<!DOCTYPE svg PUBLIC "-//W3C//DTD SVG 1.1//EN" "http://www.w3.org/Graphics/SVG/1.1/DTD/svg11.dtd">
<svg version="1.1" id="Layer_1" xmlns="http://www.w3.org/2000/svg" xmlns:xlink="http://www.w3.org/1999/xlink" x="0px" y="0px"
	 width="520px" height="520px" viewBox="0 0 520 520" enable-background="new 0 0 520 520" xml:space="preserve">
<g>
	<circle fill="none" stroke="#F0522E" stroke-width="14" stroke-miterlimit="10" cx="-4752.43" cy="312.086" r="13"/>
	<circle fill="none" stroke="#F0522E" stroke-width="14" stroke-miterlimit="10" cx="-4752.43" cy="264.355" r="13"/>
	<circle fill="none" stroke="#F0522E" stroke-width="14" stroke-miterlimit="10" cx="-4752.43" cy="360.473" r="13"/>
	<g>
		<g>
			<g>
				<circle fill="none" stroke="#F0522E" stroke-width="14" stroke-miterlimit="10" cx="-4971.892" cy="204.502" r="31.451"/>
				<polyline fill="none" stroke="#F0522E" stroke-width="14" stroke-miterlimit="10" points="-4975.013,293.021 -5039.173,264.023 
					-4978.518,236.621 				"/>
				<polyline fill="none" stroke="#F0522E" stroke-width="14" stroke-miterlimit="10" points="-4901.338,218.918 -4917.532,264.684 
					-4971.042,239.337 				"/>
				<polyline fill="none" stroke="#F0522E" stroke-width="14" stroke-miterlimit="10" points="-5078.131,359.188 -5051.519,333.382 
					-5012.809,374.511 -4972.229,233.851 				"/>
				<polyline fill="none" stroke="#F0522E" stroke-width="14" stroke-miterlimit="10" points="-4962.001,430.155 -5002.616,430.155 
					-4972.229,371.284 -5002.616,339.176 				"/>
				<circle fill="#F0522E" cx="-4972.013" cy="294.021" r="13"/>
			</g>
			<circle fill="#F0522E" cx="-4901.338" cy="218.918" r="13"/>
		</g>
		<circle fill="none" cx="-4983.232" cy="281.021" r="178.523"/>
		
			<text transform="matrix(0.9691 -1.145 0.7633 0.646 -5134.7646 183.7119)" fill="#F0522E" font-family="'MyriadPro-Bold'" font-size="60">F</text>
		
			<text transform="matrix(1.1711 -0.9374 0.6249 0.7807 -5104.7051 149.5332)" fill="#F0522E" font-family="'MyriadPro-Bold'" font-size="60">I</text>
		
			<text transform="matrix(1.334 -0.6859 0.4573 0.8893 -5086.8677 133.5122)" fill="#F0522E" font-family="'MyriadPro-Bold'" font-size="60">T</text>
		
			<text transform="matrix(1.4652 -0.321 0.214 0.9768 -5047.7222 112.3862)" fill="#F0522E" font-family="'MyriadPro-Bold'" font-size="59.996">C</text>
		
			<text transform="matrix(1.494 0.1342 -0.0894 0.996 -4998.0356 100.4048)" fill="#F0522E" font-family="'MyriadPro-Bold'" font-size="60">H</text>
		
			<text transform="matrix(1.3743 0.6006 -0.4004 0.9164 -4938.9541 105.5278)" fill="#F0522E" font-family="'MyriadPro-Bold'" font-size="60.0066">A</text>
		
			<text transform="matrix(1.2072 0.8903 -0.5935 0.8048 -4887.5723 129.748)" fill="#F0522E" font-family="'MyriadPro-Bold'" font-size="60">I</text>
		
			<text transform="matrix(0.9702 1.144 -0.7627 0.6468 -4867.0317 141.9814)" fill="#F0522E" font-family="'MyriadPro-Bold'" font-size="60.0036">N</text>
		<g>
			<g>
				
					<line fill="none" stroke="#F0522E" stroke-width="14" stroke-linecap="round" stroke-miterlimit="10" x1="-5120.104" y1="312.414" x2="-5199.137" y2="312.414"/>
				<circle fill="none" stroke="#F0522E" stroke-width="14" stroke-miterlimit="10" cx="-5213.137" cy="312.414" r="13"/>
			</g>
			<g>
				
					<line fill="none" stroke="#F0522E" stroke-width="14" stroke-linecap="round" stroke-miterlimit="10" x1="-5121.008" y1="264.684" x2="-5200.04" y2="264.684"/>
				<circle fill="none" stroke="#F0522E" stroke-width="14" stroke-miterlimit="10" cx="-5214.04" cy="264.684" r="13"/>
			</g>
			<g>
				
					<line fill="none" stroke="#F0522E" stroke-width="14" stroke-linecap="round" stroke-miterlimit="10" x1="-5121.008" y1="360.801" x2="-5200.04" y2="360.801"/>
				<circle fill="none" stroke="#F0522E" stroke-width="14" stroke-miterlimit="10" cx="-5214.04" cy="360.801" r="13"/>
			</g>
		</g>
		
			<line fill="none" stroke="#F0522E" stroke-width="14" stroke-linecap="round" stroke-miterlimit="10" x1="-4845.462" y1="312.086" x2="-4766.43" y2="312.086"/>
		
			<line fill="none" stroke="#F0522E" stroke-width="14" stroke-linecap="round" stroke-miterlimit="10" x1="-4845.462" y1="264.355" x2="-4766.43" y2="264.355"/>
		
			<line fill="none" stroke="#F0522E" stroke-width="14" stroke-linecap="round" stroke-miterlimit="10" x1="-4845.462" y1="360.473" x2="-4766.43" y2="360.473"/>
		<g>
			<path fill="none" stroke="#F0522E" stroke-width="14.8492" stroke-linecap="round" stroke-miterlimit="10" d="M-5133.234,452.655
				c82.909,82.911,217.09,82.911,300,0"/>
			
				<circle fill="none" stroke="#F0522E" stroke-width="18.5618" stroke-linecap="round" stroke-miterlimit="10" cx="-4985.121" cy="514.837" r="15.91"/>
			<path fill="none" stroke="#F0522E" stroke-width="18.5615" stroke-linecap="round" stroke-miterlimit="10" d="M-4880.46,496.43
				c0,8.789-7.123,15.909-15.911,15.909c-8.789,0-15.909-7.12-15.909-15.909c0-8.781,7.12-15.907,15.909-15.907
				C-4887.583,480.521-4880.46,487.646-4880.46,496.43z"/>
			
				<circle fill="none" stroke="#F0522E" stroke-width="18.5615" stroke-linecap="round" stroke-miterlimit="10" cx="-5071.159" cy="496.431" r="15.91"/>
		</g>
	</g>
</g>
<rect x="-4391.235" y="62.021" fill="#FFFFFF" width="520" height="520"/>
<g>
	<g>
		<g>
			<circle fill="#FFFFFF" stroke="#F0522E" stroke-width="14" stroke-miterlimit="10" cx="-4119.892" cy="214.522" r="31.452"/>
			<polyline fill="none" stroke="#F0522E" stroke-width="14" stroke-miterlimit="10" points="-4123.013,303.041 -4187.174,274.045 
				-4126.518,246.642 			"/>
			<polyline fill="none" stroke="#F0522E" stroke-width="14" stroke-miterlimit="10" points="-4049.338,228.938 -4065.532,274.704 
				-4119.041,249.357 			"/>
			<polyline fill="none" stroke="#F0522E" stroke-width="14" stroke-miterlimit="10" points="-4226.131,369.208 -4199.52,343.402 
				-4160.809,384.531 -4120.229,243.871 			"/>
			<polyline fill="none" stroke="#F0522E" stroke-width="14" stroke-miterlimit="10" points="-4110.001,440.176 -4150.615,440.176 
				-4120.229,381.305 -4150.615,349.196 			"/>
			<circle fill="#F0522E" cx="-4120.013" cy="304.041" r="13"/>
		</g>
		<circle fill="#F0522E" cx="-4049.338" cy="228.938" r="13"/>
	</g>
	<path fill="none" d="M-3953.389,275.48c8.594,98.221-64.066,184.812-162.285,193.404c-98.222,8.591-184.811-64.065-193.403-162.287
		c-8.595-98.222,64.062-184.812,162.283-193.403C-4048.57,104.603-3961.982,177.26-3953.389,275.48z"/>
	
		<text transform="matrix(1.0584 -1.0629 0.7086 0.7056 -4273.5786 180.9756)" fill="#F0522E" font-family="'ArialNarrow-Bold'" font-size="60">F</text>
	
		<text transform="matrix(1.226 -0.8642 0.5762 0.8173 -4242.3638 150.9175)" fill="#F0522E" font-family="'ArialNarrow-Bold'" font-size="60">I</text>
	
		<text transform="matrix(1.3575 -0.6381 0.4254 0.905 -4227.5884 139.0142)" fill="#F0522E" font-family="'ArialNarrow-Bold'" font-size="60">T</text>
	
		<text transform="matrix(1.4764 -0.2653 0.1769 0.9842 -4189.23 120.0664)" fill="#F0522E" font-family="'ArialNarrow-Bold'" font-size="60">C</text>
	
		<text transform="matrix(1.4922 0.1531 -0.1021 0.9948 -4139.3066 110.7183)" fill="#F0522E" font-family="'ArialNarrow-Bold'" font-size="60">H</text>
	
		<text transform="matrix(1.3895 0.5651 -0.3767 0.9263 -4088.7681 115.5469)" fill="#F0522E" font-family="'ArialNarrow-Bold'" font-size="59.996">A</text>
	
		<text transform="matrix(1.2534 0.824 -0.5494 0.8356 -4041.8303 136.1592)" fill="#F0522E" font-family="'ArialNarrow-Bold'" font-size="60.004">I</text>
	
		<text transform="matrix(1.0705 1.0507 -0.7005 0.7137 -4025.1323 145.0264)" fill="#F0522E" font-family="'ArialNarrow-Bold'" font-size="60.004">N</text>
	<g>
		<g>
			
				<line fill="none" stroke="#F0522E" stroke-width="14" stroke-linecap="round" stroke-miterlimit="10" x1="-4270.104" y1="322.436" x2="-4349.137" y2="322.436"/>
			<circle fill="none" stroke="#F0522E" stroke-width="14" stroke-miterlimit="10" cx="-4361.137" cy="322.436" r="12"/>
		</g>
		<g>
			
				<line fill="none" stroke="#F0522E" stroke-width="14" stroke-linecap="round" stroke-miterlimit="10" x1="-4271.008" y1="274.704" x2="-4350.04" y2="274.704"/>
			<circle fill="none" stroke="#F0522E" stroke-width="14" stroke-miterlimit="10" cx="-4362.04" cy="274.704" r="12"/>
		</g>
		<g>
			
				<line fill="none" stroke="#F0522E" stroke-width="14" stroke-linecap="round" stroke-miterlimit="10" x1="-4271.008" y1="370.821" x2="-4350.04" y2="370.821"/>
			<circle fill="none" stroke="#F0522E" stroke-width="14" stroke-miterlimit="10" cx="-4362.04" cy="370.821" r="12"/>
		</g>
	</g>
	
		<line fill="none" stroke="#F0522E" stroke-width="14" stroke-linecap="round" stroke-miterlimit="10" x1="-3991.462" y1="322.105" x2="-3912.43" y2="322.105"/>
	<circle fill="none" stroke="#F0522E" stroke-width="14" stroke-miterlimit="10" cx="-3900.43" cy="322.105" r="12"/>
	
		<line fill="none" stroke="#F0522E" stroke-width="14" stroke-linecap="round" stroke-miterlimit="10" x1="-3991.462" y1="274.376" x2="-3912.43" y2="274.376"/>
	<circle fill="none" stroke="#F0522E" stroke-width="14" stroke-miterlimit="10" cx="-3900.43" cy="274.376" r="12"/>
	
		<line fill="none" stroke="#F0522E" stroke-width="14" stroke-linecap="round" stroke-miterlimit="10" x1="-3991.462" y1="370.493" x2="-3912.43" y2="370.493"/>
	<circle fill="none" stroke="#F0522E" stroke-width="14" stroke-miterlimit="10" cx="-3900.43" cy="370.493" r="12"/>
	<path fill="none" stroke="#F0522E" stroke-width="14" stroke-linecap="round" stroke-miterlimit="10" d="M-4272.656,460.908
		c78.168,78.169,204.675,78.169,282.843,0"/>
	
		<circle fill="none" stroke="#F0522E" stroke-width="14" stroke-linecap="round" stroke-miterlimit="10" cx="-4133.014" cy="519.534" r="12"/>
	
		<circle fill="none" stroke="#F0522E" stroke-width="14" stroke-linecap="round" stroke-miterlimit="10" cx="-4049.338" cy="502.18" r="12"/>
	
		<circle fill="none" stroke="#F0522E" stroke-width="14" stroke-linecap="round" stroke-miterlimit="10" cx="-4214.131" cy="502.181" r="12"/>
</g>
<circle fill="none" stroke="#CE1C64" stroke-width="14" stroke-miterlimit="10" cx="-3220.43" cy="272.479" r="13"/>
<circle fill="none" stroke="#CE1C64" stroke-width="14" stroke-miterlimit="10" cx="-3220.43" cy="224.749" r="13"/>
<circle fill="none" stroke="#CE1C64" stroke-width="14" stroke-miterlimit="10" cx="-3220.43" cy="320.866" r="13"/>
<g>
	<g>
		<circle fill="none" stroke="#CE1C64" stroke-width="14" stroke-miterlimit="10" cx="-3439.893" cy="164.895" r="31.451"/>
		<polyline fill="none" stroke="#CE1C64" stroke-width="14" stroke-miterlimit="10" points="-3443.014,253.414 -3507.174,224.417 
			-3446.518,197.014 		"/>
		<polyline fill="none" stroke="#CE1C64" stroke-width="14" stroke-miterlimit="10" points="-3369.338,179.311 -3385.533,225.077 
			-3439.041,199.73 		"/>
		<polyline fill="none" stroke="#CE1C64" stroke-width="14" stroke-miterlimit="10" points="-3546.131,319.581 -3519.52,293.775 
			-3480.809,334.904 -3440.23,194.244 		"/>
		<polyline fill="none" stroke="#CE1C64" stroke-width="14" stroke-miterlimit="10" points="-3430.002,390.548 -3470.615,390.548 
			-3440.23,331.677 -3470.615,299.568 		"/>
		<circle fill="#CE1C64" cx="-3440.014" cy="254.414" r="13"/>
	</g>
	<circle fill="#CE1C64" cx="-3369.338" cy="179.311" r="13"/>
</g>
<g>
	<path fill="#CE1C65" d="M-3629.799,113.445l23.952-28.303l5.726,4.845l-15.057,17.792l7.053,5.97l14.069-16.624l5.68,4.807
		l-14.069,16.624l12.413,10.505l-8.896,10.51L-3629.799,113.445z"/>
	<path fill="#CE1C65" d="M-3582.588,66.039l25.273,31.572l-10.751,8.604l-25.272-31.572L-3582.588,66.039z"/>
	<path fill="#CE1C65" d="M-3554.157,56.706l-14.487,7.448l-3.511-6.83l41.46-21.316l3.511,6.83l-14.728,7.571l14.977,29.135
		l-12.246,6.296L-3554.157,56.706z"/>
	<path fill="#CE1C65" d="M-3466.648,60.858c-2.281,1.36-7.627,3.454-14.835,5.033c-20.483,4.489-32.895-1.697-35.361-12.951
		c-2.954-13.48,9.818-24.142,27.752-28.073c6.945-1.521,12.426-1.74,14.979-1.44l-1.172,7.689c-2.892-0.164-6.826-0.04-11.573,1.001
		c-10.637,2.331-17.963,8.421-16.037,17.212c1.735,7.913,9.859,11.353,21.815,8.733c4.043-0.886,8.396-2.455,10.882-3.736
		L-3466.648,60.858z"/>
	<path fill="#CE1C65" d="M-3442.791,22.282l-1.388,15.478l22.5,2.021l1.388-15.479l13.627,1.225l-3.611,40.279l-13.627-1.225
		l1.512-16.852l-22.501-2.022l-1.512,16.853l-13.715-1.232l3.612-40.279L-3442.791,22.282z"/>
	<path fill="#CE1C65" d="M-3384.406,64.444l-8.114,7.782l-13.031-5.693l33.181-29.634l16.495,7.206l1.047,44.586l-13.524-5.909
		l-0.133-11.385L-3384.406,64.444z M-3367.563,64.337l-0.029-9.375c-0.029-2.631,0.182-5.813,0.315-8.372l-0.164-0.072
		c-1.786,1.838-3.836,4.282-5.68,6.03l-6.734,6.42L-3367.563,64.337z"/>
	<path fill="#CE1C65" d="M-3315.705,69.296l-24.004,32.544l-11.082-8.173l24.003-32.543L-3315.705,69.296z"/>
	<path fill="#CE1C65" d="M-3331.189,106.905l30.842-26.157l10.362,12.219l-3.153,19.196c-0.92,5.501-2.437,11.508-4.166,16.516
		l0.175,0.207c3.49-4.141,7.48-7.878,12.101-11.798l9.016-7.645l8.15,9.61l-30.843,26.157l-9.312-10.983l3.515-19.976
		c0.967-5.54,2.386-11.938,4.08-17.269l-0.221-0.167c-3.84,3.729-8.07,7.553-13.104,11.821l-9.289,7.879L-3331.189,106.905z"/>
</g>
<g>
	
		<line fill="none" stroke="#CE1C64" stroke-width="14" stroke-linecap="round" stroke-miterlimit="10" x1="-3588.105" y1="272.807" x2="-3667.137" y2="272.807"/>
	<circle fill="none" stroke="#CE1C64" stroke-width="14" stroke-miterlimit="10" cx="-3681.137" cy="272.807" r="13"/>
</g>
<g>
	
		<line fill="none" stroke="#CE1C64" stroke-width="14" stroke-linecap="round" stroke-miterlimit="10" x1="-3589.008" y1="225.077" x2="-3668.041" y2="225.077"/>
	<circle fill="none" stroke="#CE1C64" stroke-width="14" stroke-miterlimit="10" cx="-3682.041" cy="225.077" r="13"/>
</g>
<g>
	
		<line fill="none" stroke="#CE1C64" stroke-width="14" stroke-linecap="round" stroke-miterlimit="10" x1="-3589.008" y1="321.193" x2="-3668.041" y2="321.193"/>
	<circle fill="none" stroke="#CE1C64" stroke-width="14" stroke-miterlimit="10" cx="-3682.041" cy="321.193" r="13"/>
</g>
<line fill="none" stroke="#CE1C64" stroke-width="14" stroke-linecap="round" stroke-miterlimit="10" x1="-3313.463" y1="272.479" x2="-3234.43" y2="272.479"/>
<line fill="none" stroke="#CE1C64" stroke-width="14" stroke-linecap="round" stroke-miterlimit="10" x1="-3313.463" y1="224.749" x2="-3234.43" y2="224.749"/>
<line fill="none" stroke="#CE1C64" stroke-width="14" stroke-linecap="round" stroke-miterlimit="10" x1="-3313.463" y1="320.866" x2="-3234.43" y2="320.866"/>
<g>
	<path fill="none" stroke="#CE1C64" stroke-width="14.8492" stroke-linecap="round" stroke-miterlimit="10" d="M-3601.234,413.048
		c82.908,82.911,217.09,82.911,300,0"/>
	
		<circle fill="none" stroke="#CE1C64" stroke-width="18.5618" stroke-linecap="round" stroke-miterlimit="10" cx="-3453.121" cy="475.229" r="15.91"/>
	<path fill="none" stroke="#CE1C64" stroke-width="18.5615" stroke-linecap="round" stroke-miterlimit="10" d="M-3348.461,456.823
		c0,8.79-7.123,15.909-15.91,15.909c-8.789,0-15.91-7.119-15.91-15.909c0-8.783,7.121-15.908,15.91-15.908
		C-3355.584,440.915-3348.461,448.04-3348.461,456.823z"/>
	
		<circle fill="none" stroke="#CE1C64" stroke-width="18.5615" stroke-linecap="round" stroke-miterlimit="10" cx="-3539.16" cy="456.824" r="15.91"/>
</g>
<g>
	
		<line fill="none" stroke="#025960" stroke-width="3.0191" stroke-linecap="round" stroke-miterlimit="10" x1="-3105.168" y1="259.396" x2="-3125.052" y2="259.396"/>
	<circle fill="none" stroke="#025960" stroke-width="3.0191" stroke-miterlimit="10" cx="-3128.574" cy="259.396" r="3.271"/>
	<path fill="none" stroke="#025960" stroke-width="3.0191" stroke-linecap="round" stroke-miterlimit="10" d="M-3105.395,247.388
		h-19.885"/>
	<circle fill="none" stroke="#025960" stroke-width="3.0191" stroke-miterlimit="10" cx="-3128.802" cy="247.388" r="3.271"/>
	
		<line fill="none" stroke="#025960" stroke-width="3.0191" stroke-linecap="round" stroke-miterlimit="10" x1="-3105.395" y1="271.57" x2="-3125.279" y2="271.57"/>
	<circle fill="none" stroke="#025960" stroke-width="3.0191" stroke-miterlimit="10" cx="-3128.802" cy="271.57" r="3.271"/>
</g>
<text transform="matrix(1.5 0 0 1 -3093.3809 271.6699)" fill="#CE1C65" font-family="'Arial-BoldMT'" font-size="34.002">FITCHAIN</text>
<g>
	
		<line fill="none" stroke="#025960" stroke-width="3.0191" stroke-linecap="round" stroke-miterlimit="10" x1="-2847.072" y1="259.314" x2="-2827.188" y2="259.314"/>
	<circle fill="none" stroke="#025960" stroke-width="3.0191" stroke-miterlimit="10" cx="-2823.667" cy="259.314" r="3.271"/>
	<path fill="none" stroke="#025960" stroke-width="3.0191" stroke-linecap="round" stroke-miterlimit="10" d="M-2826.961,247.305
		h-19.885"/>
	<circle fill="none" stroke="#025960" stroke-width="3.0191" stroke-miterlimit="10" cx="-2823.438" cy="247.305" r="3.271"/>
	
		<line fill="none" stroke="#025960" stroke-width="3.0191" stroke-linecap="round" stroke-miterlimit="10" x1="-2846.846" y1="271.488" x2="-2826.961" y2="271.488"/>
	<circle fill="none" stroke="#025960" stroke-width="3.0191" stroke-miterlimit="10" cx="-2823.438" cy="271.488" r="3.271"/>
</g>
<circle fill="none" stroke="#FFFFFF" stroke-width="14" stroke-miterlimit="10" cx="-1669.194" cy="271.225" r="13"/>
<circle fill="none" stroke="#FFFFFF" stroke-width="14" stroke-miterlimit="10" cx="-1669.194" cy="223.495" r="13"/>
<circle fill="none" stroke="#FFFFFF" stroke-width="14" stroke-miterlimit="10" cx="-1669.194" cy="319.611" r="13"/>
<g>
	<g>
		<circle fill="none" stroke="#FFFFFF" stroke-width="14" stroke-miterlimit="10" cx="-1888.657" cy="163.641" r="31.451"/>
		<polyline fill="none" stroke="#FFFFFF" stroke-width="14" stroke-miterlimit="10" points="-1891.778,252.16 -1955.938,223.164 
			-1895.282,195.76 		"/>
		<polyline fill="none" stroke="#FFFFFF" stroke-width="14" stroke-miterlimit="10" points="-1818.103,178.057 -1834.298,223.823 
			-1887.806,198.476 		"/>
		<polyline fill="none" stroke="#FFFFFF" stroke-width="14" stroke-miterlimit="10" points="-1994.896,318.327 -1968.284,292.521 
			-1929.573,333.65 -1888.995,192.99 		"/>
		<polyline fill="none" stroke="#FFFFFF" stroke-width="14" stroke-miterlimit="10" points="-1878.767,389.295 -1919.38,389.295 
			-1888.995,330.423 -1919.38,298.314 		"/>
		<circle fill="#FFFFFF" cx="-1888.778" cy="253.16" r="13"/>
	</g>
	<circle fill="#FFFFFF" cx="-1818.103" cy="178.057" r="13"/>
</g>
<g>
	<path fill="#FFFFFF" d="M-2078.563,112.191l23.952-28.303l5.728,4.845l-15.057,17.792l7.053,5.97l14.069-16.624l5.68,4.807
		l-14.069,16.624l12.413,10.505l-8.896,10.51L-2078.563,112.191z"/>
	<path fill="#FFFFFF" d="M-2031.353,64.785l25.273,31.572l-10.751,8.604l-25.272-31.572L-2031.353,64.785z"/>
	<path fill="#FFFFFF" d="M-2002.922,55.452l-14.487,7.448l-3.511-6.83l41.46-21.316l3.511,6.83l-14.728,7.571l14.977,29.135
		l-12.246,6.296L-2002.922,55.452z"/>
	<path fill="#FFFFFF" d="M-1915.413,59.604c-2.281,1.36-7.627,3.454-14.835,5.033c-20.483,4.489-32.895-1.697-35.361-12.951
		c-2.954-13.48,9.818-24.142,27.752-28.073c6.945-1.521,12.426-1.74,14.979-1.44l-1.172,7.689c-2.892-0.164-6.826-0.04-11.573,1.001
		c-10.637,2.331-17.963,8.421-16.037,17.212c1.735,7.913,9.859,11.353,21.815,8.733c4.043-0.886,8.396-2.455,10.882-3.736
		L-1915.413,59.604z"/>
	<path fill="#FFFFFF" d="M-1891.556,21.028l-1.388,15.478l22.5,2.021l1.388-15.478l13.627,1.225l-3.611,40.279l-13.627-1.225
		l1.512-16.852l-22.501-2.022l-1.512,16.853l-13.715-1.232l3.612-40.279L-1891.556,21.028z"/>
	<path fill="#FFFFFF" d="M-1833.171,63.19l-8.114,7.782l-13.031-5.693l33.181-29.634l16.495,7.206l1.047,44.586l-13.526-5.909
		l-0.133-11.385L-1833.171,63.19z M-1816.328,63.083l-0.029-9.375c-0.029-2.631,0.182-5.813,0.317-8.372l-0.164-0.072
		c-1.786,1.838-3.836,4.282-5.68,6.03l-6.734,6.42L-1816.328,63.083z"/>
	<path fill="#FFFFFF" d="M-1764.47,68.042l-24.004,32.544l-11.082-8.173l24.003-32.543L-1764.47,68.042z"/>
	<path fill="#FFFFFF" d="M-1779.954,105.651l30.842-26.157l10.362,12.219l-3.153,19.196c-0.92,5.501-2.435,11.508-4.166,16.516
		l0.175,0.207c3.49-4.141,7.479-7.878,12.101-11.798l9.016-7.645l8.15,9.61l-30.843,26.157l-9.314-10.983l3.515-19.976
		c0.967-5.54,2.386-11.938,4.08-17.269l-0.221-0.167c-3.84,3.729-8.07,7.553-13.104,11.821l-9.289,7.879L-1779.954,105.651z"/>
</g>
<g>
	
		<line fill="none" stroke="#FFFFFF" stroke-width="14" stroke-linecap="round" stroke-miterlimit="10" x1="-2036.87" y1="271.553" x2="-2115.901" y2="271.553"/>
	<circle fill="none" stroke="#FFFFFF" stroke-width="14" stroke-miterlimit="10" cx="-2129.901" cy="271.553" r="13"/>
</g>
<g>
	
		<line fill="none" stroke="#FFFFFF" stroke-width="14" stroke-linecap="round" stroke-miterlimit="10" x1="-2037.772" y1="223.823" x2="-2116.806" y2="223.823"/>
	<circle fill="none" stroke="#FFFFFF" stroke-width="14" stroke-miterlimit="10" cx="-2130.806" cy="223.823" r="13"/>
</g>
<g>
	
		<line fill="none" stroke="#FFFFFF" stroke-width="14" stroke-linecap="round" stroke-miterlimit="10" x1="-2037.772" y1="319.939" x2="-2116.806" y2="319.939"/>
	<circle fill="none" stroke="#FFFFFF" stroke-width="14" stroke-miterlimit="10" cx="-2130.806" cy="319.939" r="13"/>
</g>
<line fill="none" stroke="#FFFFFF" stroke-width="14" stroke-linecap="round" stroke-miterlimit="10" x1="-1762.228" y1="271.225" x2="-1683.194" y2="271.225"/>
<line fill="none" stroke="#FFFFFF" stroke-width="14" stroke-linecap="round" stroke-miterlimit="10" x1="-1762.228" y1="223.495" x2="-1683.194" y2="223.495"/>
<line fill="none" stroke="#FFFFFF" stroke-width="14" stroke-linecap="round" stroke-miterlimit="10" x1="-1762.228" y1="319.611" x2="-1683.194" y2="319.611"/>
<g>
	<path fill="none" stroke="#FFFFFF" stroke-width="14.8492" stroke-linecap="round" stroke-miterlimit="10" d="M-2049.999,411.795
		c82.908,82.91,217.09,82.91,300,0"/>
	
		<circle fill="none" stroke="#FFFFFF" stroke-width="18.5618" stroke-linecap="round" stroke-miterlimit="10" cx="-1901.886" cy="473.976" r="15.91"/>
	<path fill="none" stroke="#FFFFFF" stroke-width="18.5615" stroke-linecap="round" stroke-miterlimit="10" d="M-1797.226,455.568
		c0,8.79-7.123,15.907-15.91,15.907c-8.789,0-15.91-7.117-15.91-15.907c0-8.783,7.121-15.908,15.91-15.908
		C-1804.349,439.66-1797.226,446.785-1797.226,455.568z"/>
	
		<circle fill="none" stroke="#FFFFFF" stroke-width="18.5615" stroke-linecap="round" stroke-miterlimit="10" cx="-1987.925" cy="455.57" r="15.91"/>
</g>
<circle fill="none" stroke="#99D8DF" stroke-width="14" stroke-miterlimit="10" cx="-1128.268" cy="271.544" r="13"/>
<circle fill="none" stroke="#99D8DF" stroke-width="14" stroke-miterlimit="10" cx="-1128.268" cy="223.814" r="13"/>
<circle fill="none" stroke="#99D8DF" stroke-width="14" stroke-miterlimit="10" cx="-1128.268" cy="319.932" r="13"/>
<g>
	<g>
		<circle fill="none" stroke="#99D8DF" stroke-width="14" stroke-miterlimit="10" cx="-1347.73" cy="163.96" r="31.451"/>
		<polyline fill="none" stroke="#99D8DF" stroke-width="14" stroke-miterlimit="10" points="-1350.852,252.479 -1415.012,223.483 
			-1354.355,196.08 		"/>
		<polyline fill="none" stroke="#99D8DF" stroke-width="14" stroke-miterlimit="10" points="-1277.176,178.376 -1293.371,224.142 
			-1346.879,198.795 		"/>
		<polyline fill="none" stroke="#99D8DF" stroke-width="14" stroke-miterlimit="10" points="-1453.969,318.646 -1427.357,292.84 
			-1388.646,333.969 -1348.068,193.309 		"/>
		<polyline fill="none" stroke="#99D8DF" stroke-width="14" stroke-miterlimit="10" points="-1337.84,389.614 -1378.453,389.614 
			-1348.068,330.743 -1378.453,298.634 		"/>
		<circle fill="#99D8DF" cx="-1347.852" cy="253.479" r="13"/>
	</g>
	<circle fill="#99D8DF" cx="-1277.176" cy="178.376" r="13"/>
</g>
<g>
	<path fill="#223843" d="M-1537.637,112.511l23.952-28.303l5.726,4.845l-15.057,17.792l7.053,5.97l14.069-16.624l5.68,4.807
		l-14.069,16.624l12.413,10.505l-8.896,10.51L-1537.637,112.511z"/>
	<path fill="#223843" d="M-1490.426,65.104l25.271,31.572l-10.751,8.604l-25.271-31.572L-1490.426,65.104z"/>
	<path fill="#223843" d="M-1461.995,55.771l-14.487,7.448l-3.511-6.83l41.46-21.316l3.511,6.83l-14.728,7.571l14.977,29.135
		l-12.246,6.296L-1461.995,55.771z"/>
	<path fill="#223843" d="M-1374.486,59.924c-2.281,1.36-7.627,3.454-14.835,5.033c-20.483,4.489-32.895-1.697-35.361-12.951
		c-2.954-13.48,9.818-24.142,27.752-28.073c6.945-1.521,12.426-1.74,14.979-1.44l-1.172,7.689c-2.892-0.164-6.826-0.04-11.573,1.001
		c-10.637,2.331-17.963,8.421-16.037,17.212c1.735,7.913,9.859,11.353,21.815,8.733c4.043-0.886,8.398-2.455,10.882-3.736
		L-1374.486,59.924z"/>
	<path fill="#223843" d="M-1350.629,21.348l-1.388,15.478l22.5,2.021l1.388-15.478l13.627,1.225l-3.611,40.279l-13.627-1.225
		l1.512-16.852l-22.501-2.022l-1.512,16.853l-13.715-1.232l3.612-40.279L-1350.629,21.348z"/>
	<path fill="#223843" d="M-1292.244,63.51l-8.114,7.782l-13.031-5.693l33.181-29.634l16.495,7.206l1.047,44.586l-13.526-5.909
		l-0.133-11.385L-1292.244,63.51z M-1275.401,63.403l-0.029-9.375c-0.029-2.631,0.182-5.813,0.317-8.372l-0.164-0.072
		c-1.786,1.838-3.836,4.282-5.68,6.03l-6.734,6.42L-1275.401,63.403z"/>
	<path fill="#223843" d="M-1223.543,68.362l-24.004,32.544l-11.082-8.173l24.003-32.543L-1223.543,68.362z"/>
	<path fill="#223843" d="M-1239.027,105.971l30.842-26.157l10.362,12.219l-3.153,19.196c-0.92,5.501-2.437,11.508-4.166,16.516
		l0.175,0.207c3.49-4.141,7.48-7.878,12.101-11.798l9.016-7.645l8.15,9.61l-30.843,26.157l-9.314-10.983l3.515-19.976
		c0.967-5.54,2.386-11.938,4.08-17.269l-0.221-0.167c-3.84,3.729-8.07,7.553-13.104,11.821l-9.289,7.879L-1239.027,105.971z"/>
</g>
<g>
	
		<line fill="none" stroke="#99D8DF" stroke-width="14" stroke-linecap="round" stroke-miterlimit="10" x1="-1495.943" y1="271.873" x2="-1574.975" y2="271.873"/>
	<circle fill="none" stroke="#99D8DF" stroke-width="14" stroke-miterlimit="10" cx="-1588.975" cy="271.873" r="13"/>
</g>
<g>
	
		<line fill="none" stroke="#99D8DF" stroke-width="14" stroke-linecap="round" stroke-miterlimit="10" x1="-1496.846" y1="224.142" x2="-1575.879" y2="224.142"/>
	<circle fill="none" stroke="#99D8DF" stroke-width="14" stroke-miterlimit="10" cx="-1589.879" cy="224.142" r="13"/>
</g>
<g>
	
		<line fill="none" stroke="#99D8DF" stroke-width="14" stroke-linecap="round" stroke-miterlimit="10" x1="-1496.846" y1="320.259" x2="-1575.879" y2="320.259"/>
	<circle fill="none" stroke="#99D8DF" stroke-width="14" stroke-miterlimit="10" cx="-1589.879" cy="320.259" r="13"/>
</g>
<line fill="none" stroke="#99D8DF" stroke-width="14" stroke-linecap="round" stroke-miterlimit="10" x1="-1221.301" y1="271.544" x2="-1142.268" y2="271.544"/>
<line fill="none" stroke="#99D8DF" stroke-width="14" stroke-linecap="round" stroke-miterlimit="10" x1="-1221.301" y1="223.814" x2="-1142.268" y2="223.814"/>
<line fill="none" stroke="#99D8DF" stroke-width="14" stroke-linecap="round" stroke-miterlimit="10" x1="-1221.301" y1="319.932" x2="-1142.268" y2="319.932"/>
<g>
	<path fill="none" stroke="#223843" stroke-width="14.8492" stroke-linecap="round" stroke-miterlimit="10" d="M-1509.072,412.114
		c82.908,82.91,217.09,82.91,300,0"/>
	
		<circle fill="none" stroke="#223843" stroke-width="18.5618" stroke-linecap="round" stroke-miterlimit="10" cx="-1360.959" cy="474.295" r="15.91"/>
	<path fill="none" stroke="#223843" stroke-width="18.5615" stroke-linecap="round" stroke-miterlimit="10" d="M-1256.299,455.888
		c0,8.79-7.123,15.909-15.91,15.909c-8.789,0-15.91-7.119-15.91-15.909c0-8.781,7.121-15.906,15.91-15.906
		C-1263.422,439.979-1256.299,447.104-1256.299,455.888z"/>
	
		<circle fill="none" stroke="#223843" stroke-width="18.5615" stroke-linecap="round" stroke-miterlimit="10" cx="-1446.998" cy="455.89" r="15.91"/>
</g>
<circle fill="none" stroke="#223843" stroke-width="14" stroke-miterlimit="10" cx="-589.194" cy="274.609" r="13"/>
<circle fill="none" stroke="#223843" stroke-width="14" stroke-miterlimit="10" cx="-589.194" cy="226.879" r="13"/>
<circle fill="none" stroke="#223843" stroke-width="14" stroke-miterlimit="10" cx="-589.194" cy="322.997" r="13"/>
<g>
	<g>
		<circle fill="none" stroke="#223843" stroke-width="14" stroke-miterlimit="10" cx="-808.657" cy="167.026" r="31.451"/>
		<polyline fill="none" stroke="#223843" stroke-width="14" stroke-miterlimit="10" points="-811.778,255.544 -875.938,226.548 
			-815.282,199.145 		"/>
		<polyline fill="none" stroke="#223843" stroke-width="14" stroke-miterlimit="10" points="-738.103,181.442 -754.298,227.208 
			-807.806,201.861 		"/>
		<polyline fill="none" stroke="#223843" stroke-width="14" stroke-miterlimit="10" points="-914.896,321.711 -888.284,295.906 
			-849.573,337.035 -808.995,196.375 		"/>
		<polyline fill="none" stroke="#223843" stroke-width="14" stroke-miterlimit="10" points="-798.767,392.68 -839.38,392.68 
			-808.995,333.809 -839.38,301.7 		"/>
		<circle fill="#223843" cx="-808.778" cy="256.544" r="13"/>
	</g>
	<circle fill="#223843" cx="-738.103" cy="181.442" r="13"/>
</g>
<g>
	<path fill="#223843" d="M-1021.65,126.444l27.008-31.914l6.456,5.463l-16.978,20.062l7.952,6.731l15.864-18.745l6.404,5.42
		l-15.864,18.744l13.997,11.845l-10.03,11.851L-1021.65,126.444z"/>
	<path fill="#223843" d="M-968.417,72.989l28.498,35.601l-12.123,9.702l-28.496-35.6L-968.417,72.989z"/>
	<path fill="#223843" d="M-936.359,62.465l-16.335,8.398l-3.959-7.701l46.749-24.036l3.959,7.702l-16.606,8.537l16.888,32.852
		l-13.809,7.099L-936.359,62.465z"/>
	<path fill="#223843" d="M-837.687,67.148c-2.572,1.534-8.6,3.894-16.728,5.675c-23.097,5.062-37.091-1.914-39.872-14.604
		c-3.331-15.2,11.07-27.222,31.292-31.654c7.832-1.715,14.012-1.961,16.891-1.624l-1.321,8.67c-3.261-0.185-7.697-0.044-13.05,1.129
		c-11.993,2.628-20.254,9.495-18.083,19.408c1.957,8.922,11.117,12.801,24.599,9.847c4.559-1,9.47-2.768,12.271-4.212
		L-837.687,67.148z"/>
	<path fill="#223843" d="M-810.785,23.65l-1.564,17.453l25.37,2.279l1.564-17.453l15.366,1.381l-4.072,45.417l-15.365-1.381
		l1.704-19.002l-25.371-2.28l-1.705,19.002l-15.465-1.39l4.073-45.417L-810.785,23.65z"/>
	<path fill="#223843" d="M-744.952,71.191l-9.149,8.774l-14.693-6.419l37.414-33.415l18.599,8.125l1.181,50.274l-15.252-6.663
		l-0.149-12.837L-744.952,71.191z M-725.96,71.071l-0.033-10.571c-0.033-2.967,0.204-6.555,0.357-9.44l-0.185-0.082
		c-2.015,2.073-4.325,4.828-6.404,6.799l-7.594,7.239L-725.96,71.071z"/>
	<path fill="#223843" d="M-667.486,76.663l-27.066,36.696l-12.495-9.216l27.064-36.695L-667.486,76.663z"/>
	<path fill="#223843" d="M-684.946,119.069l34.776-29.494l11.685,13.778l-3.556,21.646c-1.037,6.203-2.745,12.976-4.697,18.623
		l0.197,0.233c3.936-4.669,8.435-8.883,13.645-13.303l10.165-8.62l9.19,10.836l-34.777,29.494l-10.503-12.384l3.963-22.524
		c1.091-6.247,2.69-13.46,4.601-19.472l-0.249-0.188c-4.329,4.204-9.1,8.516-14.774,13.329l-10.475,8.884L-684.946,119.069z"/>
</g>
<g>
	
		<line fill="none" stroke="#223843" stroke-width="14" stroke-linecap="round" stroke-miterlimit="10" x1="-956.87" y1="274.938" x2="-1035.901" y2="274.938"/>
	<circle fill="none" stroke="#223843" stroke-width="14" stroke-miterlimit="10" cx="-1049.901" cy="274.938" r="13"/>
</g>
<g>
	
		<line fill="none" stroke="#223843" stroke-width="14" stroke-linecap="round" stroke-miterlimit="10" x1="-957.772" y1="227.208" x2="-1036.806" y2="227.208"/>
	<circle fill="none" stroke="#223843" stroke-width="14" stroke-miterlimit="10" cx="-1050.806" cy="227.208" r="13"/>
</g>
<g>
	
		<line fill="none" stroke="#223843" stroke-width="14" stroke-linecap="round" stroke-miterlimit="10" x1="-957.772" y1="323.325" x2="-1036.806" y2="323.325"/>
	<circle fill="none" stroke="#223843" stroke-width="14" stroke-miterlimit="10" cx="-1050.806" cy="323.325" r="13"/>
</g>
<line fill="none" stroke="#223843" stroke-width="14" stroke-linecap="round" stroke-miterlimit="10" x1="-682.228" y1="274.609" x2="-603.194" y2="274.609"/>
<line fill="none" stroke="#223843" stroke-width="14" stroke-linecap="round" stroke-miterlimit="10" x1="-682.228" y1="226.879" x2="-603.194" y2="226.879"/>
<line fill="none" stroke="#223843" stroke-width="14" stroke-linecap="round" stroke-miterlimit="10" x1="-682.228" y1="322.997" x2="-603.194" y2="322.997"/>
<g>
	<path fill="none" stroke="#223843" stroke-width="17.1139" stroke-linecap="round" stroke-miterlimit="10" d="M-992.876,410.225
		c95.553,95.556,250.199,95.556,345.754,0"/>
	<path fill="none" stroke="#223843" stroke-width="21.3927" stroke-linecap="round" stroke-miterlimit="10" d="M-803.837,481.889
		c0,10.13-8.209,18.336-18.337,18.336c-10.129,0-18.336-8.206-18.336-18.336c0-10.127,8.207-18.335,18.336-18.335
		C-812.046,463.553-803.837,471.762-803.837,481.889z"/>
	<path fill="none" stroke="#223843" stroke-width="21.3924" stroke-linecap="round" stroke-miterlimit="10" d="M-701.552,460.674
		c0,10.13-8.209,18.335-18.336,18.335c-10.13,0-18.337-8.205-18.337-18.335c0-10.123,8.207-18.334,18.337-18.334
		C-709.761,442.34-701.552,450.552-701.552,460.674z"/>
	<path fill="none" stroke="#223843" stroke-width="21.3924" stroke-linecap="round" stroke-miterlimit="10" d="M-902.998,460.677
		c0,10.128-8.207,18.335-18.337,18.335c-10.129,0-18.336-8.208-18.336-18.335c0-10.13,8.207-18.337,18.336-18.337
		C-911.205,442.34-902.998,450.547-902.998,460.677z"/>
</g>
<g>
	<line fill="none" stroke="#223843" stroke-width="10" stroke-miterlimit="10" x1="-156" y1="266.705" x2="-131" y2="266.705"/>
	<g>
		<path fill="none" stroke="#223843" stroke-width="10" stroke-miterlimit="10" d="M-330,314.939c0,14.523-11.193,26.3-25,26.3l0,0
			c-13.807,0-25-11.774-25-26.3v-97.401c0-14.524,11.193-26.299,25-26.299l0,0c13.807,0,25,11.774,25,26.299V314.939z"/>
		<path fill="none" stroke="#223843" stroke-width="10" stroke-miterlimit="10" d="M-180,313.939c0,14.523-11.193,26.3-25,26.3l0,0
			c-13.807,0-25-11.774-25-26.3v-97.401c0-14.524,11.193-26.299,25-26.299l0,0c13.807,0,25,11.774,25,26.299V313.939z"/>
		<path fill="#213843" stroke="#223843" stroke-width="10" stroke-miterlimit="10" d="M-185,243.545c13.808,0,25,11.193,25,25
			c0,13.809-11.192,25-25,25"/>
		<path fill="#213843" stroke="#223843" stroke-width="10" stroke-miterlimit="10" d="M-376,290.239c-13.808,0-25-11.193-25-25
			c0-13.807,11.192-25,25-25"/>
		<line fill="none" stroke="#223843" stroke-width="10" stroke-miterlimit="10" x1="-330" y1="266.705" x2="-230" y2="266.705"/>
		<line fill="none" stroke="#223843" stroke-width="10" stroke-miterlimit="10" x1="-430" y1="265.238" x2="-405" y2="265.238"/>
	</g>
</g>
<polygon fill="#213843" points="775.625,350.768 738.364,313.511 715.386,336.49 775.625,396.732 884.614,287.739 861.635,264.761 
	"/>
<g>
	<g>
		<defs>
			<rect id="SVGID_1_" x="540" width="520" height="520"/>
		</defs>
		<clipPath id="SVGID_2_">
			<use xlink:href="#SVGID_1_"  overflow="visible"/>
		</clipPath>
		<path clip-path="url(#SVGID_2_)" fill="#213843" d="M930,202.387V146.25c0-71.8-58.2-130-130-130
			c-71.801,0-130.001,58.2-130.001,130v56.153C639.802,234.415,621.25,277.535,621.25,325c0,98.697,80.052,178.751,178.75,178.751
			c98.73,0,178.75-80.054,178.75-178.751C978.75,277.527,960.203,234.403,930,202.387 M702.5,146.25c0-53.756,43.743-97.5,97.5-97.5
			c53.761,0,97.5,43.744,97.5,97.5v28.965c-28.045-18.293-61.518-28.965-97.5-28.965c-35.976,0-69.451,10.676-97.5,28.978V146.25z
			 M800,487.5c-89.74,0-162.5-72.76-162.5-162.5S710.26,162.5,800,162.5c89.739,0,162.5,72.76,162.5,162.5S889.739,487.5,800,487.5"
			/>
	</g>
</g>
<g>
	<rect x="1292.951" y="228.635" fill="#213843" width="94.098" height="31.366"/>
	<path fill="#213843" d="M1104.76,87.491v78.412h31.367v250.923v15.683h94.094v-15.683h219.558v15.683h94.096v-15.683V165.903
		h31.367V87.491H1104.76z M1151.809,181.587h376.383v219.556h-376.383V181.587L1151.809,181.587z"/>
</g>
<g>
	<g>
		<defs>
			<rect id="SVGID_3_" width="520" height="520"/>
		</defs>
		<clipPath id="SVGID_4_">
			<use xlink:href="#SVGID_3_"  overflow="visible"/>
		</clipPath>
		<path clip-path="url(#SVGID_4_)" fill="#C0C0C3" d="M260,341.25c89.756,0,162.5-72.745,162.5-162.5
			c0-89.756-72.744-162.5-162.5-162.5c-89.755,0-162.5,72.744-162.5,162.5C97.5,268.505,170.245,341.25,260,341.25 M260,32.5
			c80.645,0,146.25,65.603,146.25,146.25C406.25,259.396,340.645,325,260,325c-80.646,0-146.25-65.604-146.25-146.25
			C113.75,98.103,179.354,32.5,260,32.5"/>
	</g>
	<g>
		<defs>
			<rect id="SVGID_5_" width="520" height="520"/>
		</defs>
		<clipPath id="SVGID_6_">
			<use xlink:href="#SVGID_5_"  overflow="visible"/>
		</clipPath>
		<path clip-path="url(#SVGID_6_)" fill="#C0C0C3" d="M390,373.75H130c-35.896,0-65,29.104-65,65v65h390v-65
			C455,402.854,425.896,373.75,390,373.75"/>
	</g>
</g>
</svg>
