<?xml version="1.0" encoding="utf-8"?>
<!-- Generator: Adobe Illustrator 16.0.0, SVG Export Plug-In . SVG Version: 6.00 Build 0)  -->
<!DOCTYPE svg PUBLIC "-//W3C//DTD SVG 1.1//EN" "http://www.w3.org/Graphics/SVG/1.1/DTD/svg11.dtd">
<svg version="1.1" id="Layer_1" xmlns="http://www.w3.org/2000/svg" xmlns:xlink="http://www.w3.org/1999/xlink" x="0px" y="0px"
	 width="400px" height="400px" viewBox="0 0 400 400" enable-background="new 0 0 400 400" xml:space="preserve">
<path fill="#FFFFFF" d="M109.704,180.463c-27.45,0-49.704,22.253-49.704,49.704s22.254,49.704,49.704,49.704
	c27.451,0,49.703-22.253,49.703-49.704S137.154,180.463,109.704,180.463z M109.703,271.588c-22.876,0-41.42-18.546-41.42-41.421
	s18.544-41.42,41.42-41.42c22.875,0,41.42,18.545,41.42,41.42S132.579,271.588,109.703,271.588z"/>
<path fill="#FFFFFF" d="M290.296,180.463c-27.451,0-49.706,22.253-49.706,49.704s22.255,49.704,49.706,49.704
	S340,257.618,340,230.167S317.747,180.463,290.296,180.463z M290.294,271.588c-22.874,0-41.422-18.546-41.422-41.421
	s18.548-41.42,41.422-41.42c22.876,0,41.423,18.545,41.423,41.42S313.17,271.588,290.294,271.588z"/>
<path fill="#FFFFFF" d="M109.703,211.942c-10.064,0-18.225,8.162-18.225,18.225c0,10.064,8.161,18.226,18.225,18.226
	s18.225-8.161,18.225-18.226C127.928,220.104,119.768,211.942,109.703,211.942z M109.703,244.745
	c-8.053,0-14.581-6.524-14.581-14.578s6.528-14.58,14.581-14.58s14.58,6.526,14.58,14.58S117.756,244.745,109.703,244.745z"/>
<path fill="#FFFFFF" d="M290.294,211.942c-10.063,0-18.224,8.162-18.224,18.225c0,10.064,8.16,18.226,18.224,18.226
	c10.064,0,18.226-8.161,18.226-18.226C308.52,220.104,300.358,211.942,290.294,211.942z M290.294,244.745
	c-8.052,0-14.58-6.524-14.58-14.578s6.528-14.58,14.58-14.58c8.054,0,14.578,6.526,14.578,14.58S298.348,244.745,290.294,244.745z"
	/>
<circle fill="#FFFFFF" cx="190.886" cy="230.167" r="14.911"/>
<polyline fill="none" stroke="#FFFFFF" stroke-width="6.6272" stroke-miterlimit="10" points="185.199,233.48 141.182,150.641 
	240.59,150.641 240.59,147.327 190.886,230.167 290.294,230.167 240.59,147.327 "/>
<path fill="#FFFFFF" d="M256.76,133.396c0,2.744-2.331,4.97-5.207,4.97h-22.722c-2.876,0-5.207-2.226-5.207-4.97l0,0
	c0-2.746,2.331-4.971,5.207-4.971h22.722C254.429,128.425,256.76,130.65,256.76,133.396L256.76,133.396z"/>
<line fill="none" stroke="#FFFFFF" stroke-width="6.6272" stroke-miterlimit="10" x1="240.192" y1="133.396" x2="240.59" y2="147.327"/>
<path fill="none" stroke="#FFFFFF" stroke-width="4.1914" stroke-miterlimit="10" d="M205.797,260.014
	c0,0.915-1.187,1.656-2.649,1.656h-7.954c-1.463,0-2.65-0.741-2.65-1.656l0,0c0-0.914,1.188-1.656,2.65-1.656h7.954
	C204.61,258.357,205.797,259.1,205.797,260.014L205.797,260.014z"/>
<path fill="none" stroke="#FFFFFF" stroke-width="4.1914" stroke-miterlimit="10" d="M191.827,198.688
	c0,0.916-1.188,1.658-2.651,1.658h-7.953c-1.463,0-2.65-0.742-2.65-1.658l0,0c0-0.914,1.187-1.656,2.65-1.656h7.953
	C190.638,197.032,191.827,197.774,191.827,198.688L191.827,198.688z"/>
<line fill="none" stroke="#FFFFFF" stroke-width="4.6462" stroke-miterlimit="10" x1="185.199" y1="198.688" x2="199.169" y2="260.014"/>
<path fill="none" stroke="#FFFFFF" stroke-width="6.6272" stroke-miterlimit="10" d="M128.122,133.408
	c-2.107-0.704-3.813-1.542-4.992-2.472c-1.178-0.932-1.83-1.954-1.83-3.029c0-1.074,0.652-2.097,1.83-3.026
	c1.178-0.931,2.884-1.769,4.992-2.472c2.107-0.705,4.617-1.274,7.404-1.667c2.787-0.395,5.852-0.612,9.068-0.612
	c3.216,0,6.279,0.217,9.066,0.612c2.786,0.394,4.912,0.479,4.912,0.479l-49.646,110.604"/>
<g>
	<path d="M1040.914,60c-17.518,0-31.718,17.041-31.718,38.061c0,21.021,14.2,38.062,31.718,38.062
		c17.517,0,31.718-17.04,31.718-38.062C1072.632,77.041,1058.431,60,1040.914,60z M1040.914,129.779
		c-14.014,0-25.374-14.201-25.374-31.718c0-17.516,11.36-31.718,25.374-31.718s25.374,14.202,25.374,31.718
		C1066.288,115.578,1054.928,129.779,1040.914,129.779z"/>
	
		<line fill="none" stroke="#000000" stroke-width="6.3436" stroke-miterlimit="10" x1="1040.914" y1="136.123" x2="1040.914" y2="246.925"/>
	<polyline fill="none" stroke="#000000" stroke-width="6.3436" stroke-miterlimit="10" points="1009.196,284.986 997.144,212.245 
		1040.914,246.925 	"/>
	<path d="M970.465,283.473L970.465,283.473c2.438-9.502,10.281-15.699,17.521-13.842l16.384,4.201
		c7.241,1.857,11.134,11.064,8.697,20.567l0,0"/>
	<path fill="none" stroke="#000000" stroke-width="6.3436" stroke-miterlimit="10" d="M1039.011,135.277
		c-7.154,2.787-17.047-0.828-24.957,0.934c-11.074,2.464-19.983,11.93-27.947,19.167c-7.588,6.894-14.373,8.922-22.373,13.732"/>
	<circle cx="957.795" cy="172.475" r="12.669"/>
	<path fill="none" stroke="#000000" stroke-width="6.3436" stroke-miterlimit="10" d="M1040.914,134.854
		c7.155,2.787,17.047-0.828,24.959,0.933c11.073,2.464,19.981,11.931,27.946,19.167c7.588,6.893,14.372,8.922,22.373,13.732"/>
	<circle cx="1122.129" cy="172.051" r="12.669"/>
	<polyline fill="none" stroke="#000000" stroke-width="6.3436" stroke-miterlimit="10" points="1072.508,284.986 1084.562,212.245 
		1040.79,246.925 	"/>
	<path d="M1111.239,283.473L1111.239,283.473c-2.437-9.502-10.28-15.699-17.521-13.842l-16.385,4.201
		c-7.24,1.857-11.133,11.064-8.696,20.567l0,0"/>
	<path fill="none" stroke="#000000" stroke-width="2.5374" stroke-miterlimit="10" d="M1122.611,181.796
		c0,9.68-0.743,19.925,1.013,29.393c1.893,10.192,8.034,17.563,12.329,26.64c7.787,16.467,16.392,45.653,11.062,63.839
		c-5.803,19.795-38.38,28.406-55.902,31.57c-14.077,2.541-30.283,7.223-44.624,6.726h-12.976
		c-14.341,0.497-30.547-4.185-44.623-6.726c-17.523-3.164-50.101-11.775-55.903-31.57c-5.33-18.186,3.274-47.372,11.062-63.839
		c4.295-9.076,10.437-16.447,12.329-26.64c1.756-9.468,1.013-19.713,1.013-29.393"/>
	<rect x="1038.842" y="245.283" width="4.027" height="4.127"/>
</g>
<path fill="#FFFFFF" d="M1460.652,100c-12.513,0-22.655,12.172-22.655,27.187c0,15.016,10.143,27.187,22.655,27.187
	c12.512,0,22.655-12.171,22.655-27.187C1483.308,112.172,1473.164,100,1460.652,100z M1460.652,149.842
	c-10.01,0-18.124-10.144-18.124-22.656c0-12.512,8.114-22.655,18.124-22.655s18.124,10.144,18.124,22.655
	C1478.776,139.699,1470.662,149.842,1460.652,149.842z"/>
<line fill="none" stroke="#FFFFFF" stroke-width="4.5311" stroke-miterlimit="10" x1="1460.652" y1="154.374" x2="1460.652" y2="233.518"/>
<polyline fill="none" stroke="#FFFFFF" stroke-width="4.5311" stroke-miterlimit="10" points="1437.997,260.704 1429.388,208.747 
	1460.652,233.518 "/>
<path fill="#FFFFFF" d="M1410.331,259.624L1410.331,259.624c1.741-6.788,7.344-11.215,12.516-9.888l11.703,3.001
	c5.172,1.326,7.952,7.903,6.212,14.691l0,0"/>
<path fill="none" stroke="#FFFFFF" stroke-width="4.5311" stroke-miterlimit="10" d="M1459.293,153.77
	c-5.11,1.991-12.177-0.591-17.827,0.667c-7.91,1.76-14.273,8.522-19.962,13.69c-5.42,4.924-10.267,6.373-15.98,9.809"/>
<circle fill="#FFFFFF" cx="1401.282" cy="180.339" r="9.049"/>
<path fill="none" stroke="#FFFFFF" stroke-width="4.5311" stroke-miterlimit="10" d="M1460.652,153.467
	c5.11,1.991,12.177-0.591,17.827,0.667c7.909,1.76,14.272,8.522,19.962,13.69c5.42,4.924,10.266,6.374,15.98,9.809"/>
<circle fill="#FFFFFF" cx="1518.663" cy="180.037" r="9.05"/>
<polyline fill="none" stroke="#FFFFFF" stroke-width="4.5311" stroke-miterlimit="10" points="1483.219,260.704 1491.828,208.747 
	1460.563,233.518 "/>
<path fill="#FFFFFF" d="M1510.885,259.624L1510.885,259.624c-1.741-6.788-7.344-11.215-12.516-9.888l-11.703,3.001
	c-5.172,1.326-7.952,7.903-6.211,14.691l0,0"/>
<path fill="none" stroke="#FFFFFF" stroke-width="1.8124" stroke-miterlimit="10" d="M1519.007,186.998
	c0,6.915-0.53,14.232,0.724,20.995c1.352,7.28,5.738,12.546,8.807,19.028c5.562,11.762,11.708,32.609,7.9,45.6
	c-4.145,14.139-27.414,20.29-39.93,22.55c-10.055,1.815-21.63,5.159-31.874,4.804h-9.269c-10.243,0.355-21.819-2.988-31.873-4.804
	c-12.517-2.26-35.786-8.411-39.931-22.55c-3.808-12.99,2.338-33.838,7.9-45.6c3.068-6.482,7.455-11.748,8.807-19.028
	c1.254-6.763,0.724-14.08,0.724-20.995"/>
<rect x="1459.172" y="232.345" fill="#FFFFFF" width="2.877" height="2.948"/>
<path d="M529.703,180.463c-27.449,0-49.703,22.253-49.703,49.704s22.254,49.704,49.703,49.704c27.451,0,49.703-22.253,49.703-49.704
	S557.154,180.463,529.703,180.463z M529.703,271.588c-22.876,0-41.42-18.546-41.42-41.421s18.544-41.42,41.42-41.42
	c22.875,0,41.42,18.545,41.42,41.42S552.578,271.588,529.703,271.588z"/>
<path d="M710.296,180.463c-27.451,0-49.706,22.253-49.706,49.704s22.255,49.704,49.706,49.704S760,257.618,760,230.167
	S737.747,180.463,710.296,180.463z M710.294,271.588c-22.874,0-41.422-18.546-41.422-41.421s18.548-41.42,41.422-41.42
	c22.876,0,41.423,18.545,41.423,41.42S733.17,271.588,710.294,271.588z"/>
<path d="M529.703,211.942c-10.064,0-18.225,8.162-18.225,18.225c0,10.064,8.16,18.226,18.225,18.226s18.225-8.161,18.225-18.226
	C547.928,220.104,539.768,211.942,529.703,211.942z M529.703,244.745c-8.053,0-14.58-6.524-14.58-14.578s6.527-14.58,14.58-14.58
	s14.58,6.526,14.58,14.58S537.756,244.745,529.703,244.745z"/>
<path d="M710.294,211.942c-10.063,0-18.224,8.162-18.224,18.225c0,10.064,8.16,18.226,18.224,18.226
	c10.064,0,18.226-8.161,18.226-18.226C728.52,220.104,720.358,211.942,710.294,211.942z M710.294,244.745
	c-8.052,0-14.58-6.524-14.58-14.578s6.528-14.58,14.58-14.58c8.054,0,14.578,6.526,14.578,14.58S718.348,244.745,710.294,244.745z"
	/>
<circle cx="610.886" cy="230.167" r="14.911"/>
<polyline fill="none" stroke="#000000" stroke-width="6.6272" stroke-miterlimit="10" points="605.199,233.48 561.182,150.641 
	660.59,150.641 660.59,147.327 610.886,230.167 710.294,230.167 660.59,147.327 "/>
<path d="M676.76,133.396c0,2.744-2.331,4.97-5.207,4.97h-22.722c-2.876,0-5.207-2.226-5.207-4.97l0,0
	c0-2.746,2.331-4.971,5.207-4.971h22.722C674.429,128.425,676.76,130.65,676.76,133.396L676.76,133.396z"/>
<line x1="660.192" y1="133.396" x2="660.59" y2="147.327"/>
<path d="M625.797,260.014c0,0.915-1.187,1.656-2.649,1.656h-7.954c-1.463,0-2.65-0.741-2.65-1.656l0,0
	c0-0.914,1.188-1.656,2.65-1.656h7.954C624.61,258.357,625.797,259.1,625.797,260.014L625.797,260.014z"/>
<path d="M611.826,198.688c0,0.916-1.188,1.658-2.65,1.658h-7.953c-1.463,0-2.65-0.742-2.65-1.658l0,0
	c0-0.914,1.188-1.656,2.65-1.656h7.953C610.639,197.031,611.826,197.773,611.826,198.688L611.826,198.688z"/>
<line fill="none" stroke="#000000" stroke-width="4.6462" stroke-miterlimit="10" x1="605.199" y1="198.688" x2="619.17" y2="260.014"/>
<path fill="none" stroke="#000000" stroke-width="6.6272" stroke-miterlimit="10" d="M548.122,133.408
	c-2.107-0.704-3.813-1.542-4.991-2.472c-1.178-0.932-1.83-1.954-1.83-3.029c0-1.074,0.652-2.097,1.83-3.026
	c1.178-0.931,2.884-1.769,4.991-2.472c2.107-0.705,4.616-1.274,7.403-1.667c2.787-0.395,5.852-0.612,9.068-0.612
	c3.216,0,6.279,0.217,9.066,0.612c2.785,0.394,4.912,0.479,4.912,0.479l-49.646,110.604"/>
<g>
	<rect x="1805" y="233.699" width="150" height="50"/>
	<rect x="1855" y="174.394" width="100" height="50"/>
	<rect x="1905" y="116.301" width="50" height="50"/>
</g>
<g>
	<rect x="2225" y="233.699" fill="#FFFFFF" width="150" height="50"/>
	<rect x="2275" y="174.395" fill="#FFFFFF" width="100" height="50"/>
	<rect x="2325" y="116.301" fill="#FFFFFF" width="50" height="50"/>
</g>
</svg>
