<?xml version="1.0" encoding="utf-8"?>
<!-- Generator: Adobe Illustrator 16.0.0, SVG Export Plug-In . SVG Version: 6.00 Build 0)  -->
<!DOCTYPE svg PUBLIC "-//W3C//DTD SVG 1.1//EN" "http://www.w3.org/Graphics/SVG/1.1/DTD/svg11.dtd">
<svg version="1.1" id="Layer_1" xmlns="http://www.w3.org/2000/svg" xmlns:xlink="http://www.w3.org/1999/xlink" x="0px" y="0px"
	 width="520px" height="520px" viewBox="0 0 520 520" enable-background="new 0 0 520 520" xml:space="preserve">
<g>
	<circle fill="none" stroke="#F0522E" stroke-width="14" stroke-miterlimit="10" cx="-3672.43" cy="312.086" r="13"/>
	<circle fill="none" stroke="#F0522E" stroke-width="14" stroke-miterlimit="10" cx="-3672.43" cy="264.355" r="13"/>
	<circle fill="none" stroke="#F0522E" stroke-width="14" stroke-miterlimit="10" cx="-3672.43" cy="360.473" r="13"/>
	<g>
		<g>
			<g>
				<circle fill="none" stroke="#F0522E" stroke-width="14" stroke-miterlimit="10" cx="-3891.892" cy="204.502" r="31.451"/>
				<polyline fill="none" stroke="#F0522E" stroke-width="14" stroke-miterlimit="10" points="-3895.013,293.021 -3959.173,264.023 
					-3898.518,236.621 				"/>
				<polyline fill="none" stroke="#F0522E" stroke-width="14" stroke-miterlimit="10" points="-3821.338,218.918 -3837.532,264.684 
					-3891.042,239.337 				"/>
				<polyline fill="none" stroke="#F0522E" stroke-width="14" stroke-miterlimit="10" points="-3998.131,359.188 -3971.519,333.382 
					-3932.809,374.511 -3892.229,233.851 				"/>
				<polyline fill="none" stroke="#F0522E" stroke-width="14" stroke-miterlimit="10" points="-3882.001,430.155 -3922.616,430.155 
					-3892.229,371.284 -3922.616,339.176 				"/>
				<circle fill="#F0522E" cx="-3892.013" cy="294.021" r="13"/>
			</g>
			<circle fill="#F0522E" cx="-3821.338" cy="218.918" r="13"/>
		</g>
		<circle fill="none" cx="-3903.233" cy="281.021" r="178.523"/>
		
			<text transform="matrix(0.9691 -1.145 0.7633 0.646 -4054.7644 183.7124)" fill="#F0522E" font-family="'MyriadPro-Bold'" font-size="60">F</text>
		
			<text transform="matrix(1.1711 -0.9374 0.6249 0.7807 -4024.7036 149.5337)" fill="#F0522E" font-family="'MyriadPro-Bold'" font-size="60">I</text>
		
			<text transform="matrix(1.334 -0.6859 0.4573 0.8893 -4006.8687 133.5127)" fill="#F0522E" font-family="'MyriadPro-Bold'" font-size="60">T</text>
		
			<text transform="matrix(1.4652 -0.321 0.214 0.9768 -3967.7212 112.3872)" fill="#F0522E" font-family="'MyriadPro-Bold'" font-size="59.998">C</text>
		
			<text transform="matrix(1.494 0.1342 -0.0894 0.996 -3918.0361 100.4043)" fill="#F0522E" font-family="'MyriadPro-Bold'" font-size="60">H</text>
		
			<text transform="matrix(1.3744 0.6006 -0.4004 0.9164 -3858.9543 105.5273)" fill="#F0522E" font-family="'MyriadPro-Bold'" font-size="60.0033">A</text>
		
			<text transform="matrix(1.2072 0.8903 -0.5935 0.8048 -3807.5723 129.7485)" fill="#F0522E" font-family="'MyriadPro-Bold'" font-size="60">I</text>
		
			<text transform="matrix(0.9702 1.144 -0.7627 0.6468 -3787.0312 141.9824)" fill="#F0522E" font-family="'MyriadPro-Bold'" font-size="60.0018">N</text>
		<g>
			<g>
				
					<line fill="none" stroke="#F0522E" stroke-width="14" stroke-linecap="round" stroke-miterlimit="10" x1="-4040.104" y1="312.414" x2="-4119.137" y2="312.414"/>
				<circle fill="none" stroke="#F0522E" stroke-width="14" stroke-miterlimit="10" cx="-4133.137" cy="312.414" r="13"/>
			</g>
			<g>
				
					<line fill="none" stroke="#F0522E" stroke-width="14" stroke-linecap="round" stroke-miterlimit="10" x1="-4041.008" y1="264.684" x2="-4120.04" y2="264.684"/>
				<circle fill="none" stroke="#F0522E" stroke-width="14" stroke-miterlimit="10" cx="-4134.04" cy="264.684" r="13"/>
			</g>
			<g>
				
					<line fill="none" stroke="#F0522E" stroke-width="14" stroke-linecap="round" stroke-miterlimit="10" x1="-4041.008" y1="360.801" x2="-4120.04" y2="360.801"/>
				<circle fill="none" stroke="#F0522E" stroke-width="14" stroke-miterlimit="10" cx="-4134.04" cy="360.801" r="13"/>
			</g>
		</g>
		
			<line fill="none" stroke="#F0522E" stroke-width="14" stroke-linecap="round" stroke-miterlimit="10" x1="-3765.462" y1="312.086" x2="-3686.43" y2="312.086"/>
		
			<line fill="none" stroke="#F0522E" stroke-width="14" stroke-linecap="round" stroke-miterlimit="10" x1="-3765.462" y1="264.355" x2="-3686.43" y2="264.355"/>
		
			<line fill="none" stroke="#F0522E" stroke-width="14" stroke-linecap="round" stroke-miterlimit="10" x1="-3765.462" y1="360.473" x2="-3686.43" y2="360.473"/>
		<g>
			<path fill="none" stroke="#F0522E" stroke-width="14.8492" stroke-linecap="round" stroke-miterlimit="10" d="M-4053.234,452.655
				c82.909,82.911,217.09,82.911,300,0"/>
			
				<circle fill="none" stroke="#F0522E" stroke-width="18.5618" stroke-linecap="round" stroke-miterlimit="10" cx="-3905.121" cy="514.837" r="15.91"/>
			<path fill="none" stroke="#F0522E" stroke-width="18.5615" stroke-linecap="round" stroke-miterlimit="10" d="M-3800.46,496.43
				c0,8.789-7.123,15.909-15.911,15.909c-8.789,0-15.909-7.12-15.909-15.909c0-8.782,7.12-15.908,15.909-15.908
				C-3807.583,480.521-3800.46,487.646-3800.46,496.43z"/>
			
				<circle fill="none" stroke="#F0522E" stroke-width="18.5615" stroke-linecap="round" stroke-miterlimit="10" cx="-3991.159" cy="496.431" r="15.91"/>
		</g>
	</g>
</g>
<rect x="-3311.235" y="62.021" fill="#FFFFFF" width="520" height="520"/>
<g>
	<g>
		<g>
			<circle fill="#FFFFFF" stroke="#F0522E" stroke-width="14" stroke-miterlimit="10" cx="-3039.892" cy="214.522" r="31.452"/>
			<polyline fill="none" stroke="#F0522E" stroke-width="14" stroke-miterlimit="10" points="-3043.013,303.041 -3107.174,274.045 
				-3046.518,246.642 			"/>
			<polyline fill="none" stroke="#F0522E" stroke-width="14" stroke-miterlimit="10" points="-2969.338,228.938 -2985.532,274.704 
				-3039.041,249.357 			"/>
			<polyline fill="none" stroke="#F0522E" stroke-width="14" stroke-miterlimit="10" points="-3146.131,369.208 -3119.52,343.402 
				-3080.809,384.531 -3040.229,243.871 			"/>
			<polyline fill="none" stroke="#F0522E" stroke-width="14" stroke-miterlimit="10" points="-3030.001,440.176 -3070.615,440.176 
				-3040.229,381.305 -3070.615,349.196 			"/>
			<circle fill="#F0522E" cx="-3040.013" cy="304.041" r="13"/>
		</g>
		<circle fill="#F0522E" cx="-2969.338" cy="228.938" r="13"/>
	</g>
	<path fill="none" d="M-2873.389,275.48c8.594,98.221-64.066,184.812-162.285,193.405c-98.222,8.591-184.811-64.066-193.403-162.288
		c-8.595-98.221,64.062-184.811,162.283-193.402C-2968.57,104.603-2881.982,177.26-2873.389,275.48z"/>
	
		<text transform="matrix(1.0584 -1.0629 0.7086 0.7056 -3193.582 180.9741)" fill="#F0522E" font-family="'ArialNarrow-Bold'" font-size="60">F</text>
	
		<text transform="matrix(1.226 -0.8642 0.5762 0.8173 -3162.3613 150.917)" fill="#F0522E" font-family="'ArialNarrow-Bold'" font-size="60">I</text>
	
		<text transform="matrix(1.3575 -0.6381 0.4254 0.905 -3147.5879 139.0132)" fill="#F0522E" font-family="'ArialNarrow-Bold'" font-size="60">T</text>
	
		<text transform="matrix(1.4764 -0.2653 0.1769 0.9842 -3109.231 120.0664)" fill="#F0522E" font-family="'ArialNarrow-Bold'" font-size="60">C</text>
	
		<text transform="matrix(1.4922 0.1531 -0.1021 0.9948 -3059.3076 110.7178)" fill="#F0522E" font-family="'ArialNarrow-Bold'" font-size="60">H</text>
	
		<text transform="matrix(1.3895 0.5651 -0.3767 0.9263 -3008.7686 115.5469)" fill="#F0522E" font-family="'ArialNarrow-Bold'" font-size="59.998">A</text>
	
		<text transform="matrix(1.2534 0.824 -0.5494 0.8356 -2961.8311 136.1597)" fill="#F0522E" font-family="'ArialNarrow-Bold'" font-size="60.002">I</text>
	
		<text transform="matrix(1.0705 1.0507 -0.7005 0.7137 -2945.1328 145.0283)" fill="#F0522E" font-family="'ArialNarrow-Bold'" font-size="60.002">N</text>
	<g>
		<g>
			
				<line fill="none" stroke="#F0522E" stroke-width="14" stroke-linecap="round" stroke-miterlimit="10" x1="-3190.104" y1="322.436" x2="-3269.137" y2="322.436"/>
			<circle fill="none" stroke="#F0522E" stroke-width="14" stroke-miterlimit="10" cx="-3281.137" cy="322.436" r="12"/>
		</g>
		<g>
			
				<line fill="none" stroke="#F0522E" stroke-width="14" stroke-linecap="round" stroke-miterlimit="10" x1="-3191.008" y1="274.704" x2="-3270.04" y2="274.704"/>
			<circle fill="none" stroke="#F0522E" stroke-width="14" stroke-miterlimit="10" cx="-3282.04" cy="274.704" r="12"/>
		</g>
		<g>
			
				<line fill="none" stroke="#F0522E" stroke-width="14" stroke-linecap="round" stroke-miterlimit="10" x1="-3191.008" y1="370.821" x2="-3270.04" y2="370.821"/>
			<circle fill="none" stroke="#F0522E" stroke-width="14" stroke-miterlimit="10" cx="-3282.04" cy="370.821" r="12"/>
		</g>
	</g>
	
		<line fill="none" stroke="#F0522E" stroke-width="14" stroke-linecap="round" stroke-miterlimit="10" x1="-2911.462" y1="322.105" x2="-2832.43" y2="322.105"/>
	<circle fill="none" stroke="#F0522E" stroke-width="14" stroke-miterlimit="10" cx="-2820.43" cy="322.105" r="12"/>
	
		<line fill="none" stroke="#F0522E" stroke-width="14" stroke-linecap="round" stroke-miterlimit="10" x1="-2911.462" y1="274.376" x2="-2832.43" y2="274.376"/>
	<circle fill="none" stroke="#F0522E" stroke-width="14" stroke-miterlimit="10" cx="-2820.43" cy="274.376" r="12"/>
	
		<line fill="none" stroke="#F0522E" stroke-width="14" stroke-linecap="round" stroke-miterlimit="10" x1="-2911.462" y1="370.493" x2="-2832.43" y2="370.493"/>
	<circle fill="none" stroke="#F0522E" stroke-width="14" stroke-miterlimit="10" cx="-2820.43" cy="370.493" r="12"/>
	<path fill="none" stroke="#F0522E" stroke-width="14" stroke-linecap="round" stroke-miterlimit="10" d="M-3192.656,460.908
		c78.168,78.169,204.675,78.169,282.843,0"/>
	
		<circle fill="none" stroke="#F0522E" stroke-width="14" stroke-linecap="round" stroke-miterlimit="10" cx="-3053.014" cy="519.534" r="12"/>
	
		<circle fill="none" stroke="#F0522E" stroke-width="14" stroke-linecap="round" stroke-miterlimit="10" cx="-2969.338" cy="502.18" r="12"/>
	
		<circle fill="none" stroke="#F0522E" stroke-width="14" stroke-linecap="round" stroke-miterlimit="10" cx="-3134.131" cy="502.181" r="12"/>
</g>
<circle fill="none" stroke="#CE1C64" stroke-width="14" stroke-miterlimit="10" cx="-2140.43" cy="272.479" r="13"/>
<circle fill="none" stroke="#CE1C64" stroke-width="14" stroke-miterlimit="10" cx="-2140.43" cy="224.749" r="13"/>
<circle fill="none" stroke="#CE1C64" stroke-width="14" stroke-miterlimit="10" cx="-2140.43" cy="320.866" r="13"/>
<g>
	<g>
		<circle fill="none" stroke="#CE1C64" stroke-width="14" stroke-miterlimit="10" cx="-2359.893" cy="164.895" r="31.451"/>
		<polyline fill="none" stroke="#CE1C64" stroke-width="14" stroke-miterlimit="10" points="-2363.014,253.414 -2427.174,224.417 
			-2366.518,197.014 		"/>
		<polyline fill="none" stroke="#CE1C64" stroke-width="14" stroke-miterlimit="10" points="-2289.338,179.311 -2305.533,225.077 
			-2359.041,199.73 		"/>
		<polyline fill="none" stroke="#CE1C64" stroke-width="14" stroke-miterlimit="10" points="-2466.131,319.581 -2439.52,293.775 
			-2400.809,334.904 -2360.23,194.244 		"/>
		<polyline fill="none" stroke="#CE1C64" stroke-width="14" stroke-miterlimit="10" points="-2350.002,390.548 -2390.615,390.548 
			-2360.23,331.677 -2390.615,299.568 		"/>
		<circle fill="#CE1C64" cx="-2360.014" cy="254.414" r="13"/>
	</g>
	<circle fill="#CE1C64" cx="-2289.338" cy="179.311" r="13"/>
</g>
<g>
	<path fill="#CE1C65" d="M-2549.799,113.445l23.952-28.303l5.726,4.845l-15.057,17.792l7.053,5.97l14.069-16.624l5.68,4.807
		l-14.069,16.624l12.413,10.505l-8.896,10.51L-2549.799,113.445z"/>
	<path fill="#CE1C65" d="M-2502.588,66.039l25.273,31.572l-10.751,8.604l-25.272-31.572L-2502.588,66.039z"/>
	<path fill="#CE1C65" d="M-2474.157,56.706l-14.487,7.448l-3.511-6.83l41.46-21.316l3.511,6.83l-14.728,7.571l14.977,29.135
		l-12.246,6.296L-2474.157,56.706z"/>
	<path fill="#CE1C65" d="M-2386.648,60.858c-2.281,1.36-7.627,3.454-14.835,5.033c-20.483,4.489-32.895-1.697-35.361-12.951
		c-2.954-13.48,9.818-24.142,27.752-28.073c6.945-1.521,12.426-1.74,14.979-1.44l-1.172,7.689c-2.892-0.164-6.826-0.04-11.573,1.001
		c-10.637,2.331-17.963,8.421-16.037,17.212c1.735,7.913,9.859,11.353,21.815,8.733c4.043-0.886,8.397-2.455,10.882-3.736
		L-2386.648,60.858z"/>
	<path fill="#CE1C65" d="M-2362.791,22.282l-1.388,15.478l22.5,2.021l1.388-15.479l13.627,1.225l-3.611,40.279l-13.627-1.225
		l1.512-16.852l-22.501-2.022l-1.512,16.853l-13.715-1.232l3.612-40.279L-2362.791,22.282z"/>
	<path fill="#CE1C65" d="M-2304.406,64.444l-8.114,7.782l-13.031-5.693l33.181-29.634l16.495,7.206l1.047,44.586l-13.525-5.909
		l-0.133-11.385L-2304.406,64.444z M-2287.563,64.337l-0.029-9.375c-0.029-2.631,0.182-5.813,0.316-8.372l-0.164-0.072
		c-1.786,1.838-3.836,4.282-5.68,6.03l-6.734,6.42L-2287.563,64.337z"/>
	<path fill="#CE1C65" d="M-2235.705,69.296l-24.004,32.544l-11.082-8.173l24.003-32.543L-2235.705,69.296z"/>
	<path fill="#CE1C65" d="M-2251.189,106.905l30.842-26.157l10.362,12.219l-3.153,19.196c-0.92,5.501-2.436,11.508-4.166,16.516
		l0.175,0.207c3.49-4.141,7.48-7.878,12.101-11.798l9.016-7.645l8.15,9.61l-30.843,26.157l-9.313-10.983l3.515-19.976
		c0.967-5.54,2.386-11.938,4.08-17.269l-0.221-0.167c-3.84,3.729-8.07,7.553-13.104,11.821l-9.289,7.879L-2251.189,106.905z"/>
</g>
<g>
	
		<line fill="none" stroke="#CE1C64" stroke-width="14" stroke-linecap="round" stroke-miterlimit="10" x1="-2508.105" y1="272.807" x2="-2587.137" y2="272.807"/>
	<circle fill="none" stroke="#CE1C64" stroke-width="14" stroke-miterlimit="10" cx="-2601.137" cy="272.807" r="13"/>
</g>
<g>
	
		<line fill="none" stroke="#CE1C64" stroke-width="14" stroke-linecap="round" stroke-miterlimit="10" x1="-2509.008" y1="225.077" x2="-2588.041" y2="225.077"/>
	<circle fill="none" stroke="#CE1C64" stroke-width="14" stroke-miterlimit="10" cx="-2602.041" cy="225.077" r="13"/>
</g>
<g>
	
		<line fill="none" stroke="#CE1C64" stroke-width="14" stroke-linecap="round" stroke-miterlimit="10" x1="-2509.008" y1="321.193" x2="-2588.041" y2="321.193"/>
	<circle fill="none" stroke="#CE1C64" stroke-width="14" stroke-miterlimit="10" cx="-2602.041" cy="321.193" r="13"/>
</g>
<line fill="none" stroke="#CE1C64" stroke-width="14" stroke-linecap="round" stroke-miterlimit="10" x1="-2233.463" y1="272.479" x2="-2154.43" y2="272.479"/>
<line fill="none" stroke="#CE1C64" stroke-width="14" stroke-linecap="round" stroke-miterlimit="10" x1="-2233.463" y1="224.749" x2="-2154.43" y2="224.749"/>
<line fill="none" stroke="#CE1C64" stroke-width="14" stroke-linecap="round" stroke-miterlimit="10" x1="-2233.463" y1="320.866" x2="-2154.43" y2="320.866"/>
<g>
	<path fill="none" stroke="#CE1C64" stroke-width="14.8492" stroke-linecap="round" stroke-miterlimit="10" d="M-2521.234,413.048
		c82.908,82.911,217.09,82.911,300,0"/>
	
		<circle fill="none" stroke="#CE1C64" stroke-width="18.5618" stroke-linecap="round" stroke-miterlimit="10" cx="-2373.121" cy="475.229" r="15.91"/>
	<path fill="none" stroke="#CE1C64" stroke-width="18.5615" stroke-linecap="round" stroke-miterlimit="10" d="M-2268.461,456.823
		c0,8.79-7.123,15.909-15.91,15.909c-8.789,0-15.91-7.119-15.91-15.909c0-8.783,7.121-15.908,15.91-15.908
		C-2275.584,440.915-2268.461,448.04-2268.461,456.823z"/>
	
		<circle fill="none" stroke="#CE1C64" stroke-width="18.5615" stroke-linecap="round" stroke-miterlimit="10" cx="-2459.16" cy="456.824" r="15.91"/>
</g>
<g>
	
		<line fill="none" stroke="#025960" stroke-width="3.0191" stroke-linecap="round" stroke-miterlimit="10" x1="-2025.168" y1="259.396" x2="-2045.052" y2="259.396"/>
	<circle fill="none" stroke="#025960" stroke-width="3.0191" stroke-miterlimit="10" cx="-2048.574" cy="259.396" r="3.271"/>
	<path fill="none" stroke="#025960" stroke-width="3.0191" stroke-linecap="round" stroke-miterlimit="10" d="M-2025.395,247.388
		h-19.885"/>
	<circle fill="none" stroke="#025960" stroke-width="3.0191" stroke-miterlimit="10" cx="-2048.802" cy="247.388" r="3.271"/>
	
		<line fill="none" stroke="#025960" stroke-width="3.0191" stroke-linecap="round" stroke-miterlimit="10" x1="-2025.395" y1="271.57" x2="-2045.279" y2="271.57"/>
	<circle fill="none" stroke="#025960" stroke-width="3.0191" stroke-miterlimit="10" cx="-2048.802" cy="271.57" r="3.271"/>
</g>
<text transform="matrix(1.5 0 0 1 -2013.3809 271.6699)" fill="#CE1C65" font-family="'Arial-BoldMT'" font-size="34.002">FITCHAIN</text>
<g>
	
		<line fill="none" stroke="#025960" stroke-width="3.0191" stroke-linecap="round" stroke-miterlimit="10" x1="-1767.072" y1="259.314" x2="-1747.188" y2="259.314"/>
	<circle fill="none" stroke="#025960" stroke-width="3.0191" stroke-miterlimit="10" cx="-1743.667" cy="259.314" r="3.271"/>
	<path fill="none" stroke="#025960" stroke-width="3.0191" stroke-linecap="round" stroke-miterlimit="10" d="M-1746.961,247.305
		h-19.885"/>
	<circle fill="none" stroke="#025960" stroke-width="3.0191" stroke-miterlimit="10" cx="-1743.438" cy="247.305" r="3.271"/>
	
		<line fill="none" stroke="#025960" stroke-width="3.0191" stroke-linecap="round" stroke-miterlimit="10" x1="-1766.846" y1="271.488" x2="-1746.961" y2="271.488"/>
	<circle fill="none" stroke="#025960" stroke-width="3.0191" stroke-miterlimit="10" cx="-1743.438" cy="271.488" r="3.271"/>
</g>
<circle fill="none" stroke="#FFFFFF" stroke-width="14" stroke-miterlimit="10" cx="-589.194" cy="271.225" r="13"/>
<circle fill="none" stroke="#FFFFFF" stroke-width="14" stroke-miterlimit="10" cx="-589.194" cy="223.495" r="13"/>
<circle fill="none" stroke="#FFFFFF" stroke-width="14" stroke-miterlimit="10" cx="-589.194" cy="319.611" r="13"/>
<g>
	<g>
		<circle fill="none" stroke="#FFFFFF" stroke-width="14" stroke-miterlimit="10" cx="-808.657" cy="163.641" r="31.451"/>
		<polyline fill="none" stroke="#FFFFFF" stroke-width="14" stroke-miterlimit="10" points="-811.778,252.16 -875.938,223.164 
			-815.282,195.76 		"/>
		<polyline fill="none" stroke="#FFFFFF" stroke-width="14" stroke-miterlimit="10" points="-738.103,178.057 -754.298,223.823 
			-807.806,198.476 		"/>
		<polyline fill="none" stroke="#FFFFFF" stroke-width="14" stroke-miterlimit="10" points="-914.896,318.327 -888.284,292.521 
			-849.573,333.65 -808.995,192.99 		"/>
		<polyline fill="none" stroke="#FFFFFF" stroke-width="14" stroke-miterlimit="10" points="-798.767,389.295 -839.38,389.295 
			-808.995,330.423 -839.38,298.314 		"/>
		<circle fill="#FFFFFF" cx="-808.778" cy="253.16" r="13"/>
	</g>
	<circle fill="#FFFFFF" cx="-738.103" cy="178.057" r="13"/>
</g>
<g>
	<path fill="#FFFFFF" d="M-998.563,112.191l23.952-28.303l5.726,4.845l-15.057,17.792l7.053,5.97l14.069-16.624l5.68,4.807
		l-14.069,16.624l12.413,10.505l-8.896,10.51L-998.563,112.191z"/>
	<path fill="#FFFFFF" d="M-951.353,64.785l25.273,31.572l-10.751,8.604l-25.272-31.572L-951.353,64.785z"/>
	<path fill="#FFFFFF" d="M-922.922,55.452l-14.487,7.448l-3.511-6.83l41.46-21.316l3.511,6.83l-14.728,7.571L-895.7,78.29
		l-12.246,6.296L-922.922,55.452z"/>
	<path fill="#FFFFFF" d="M-835.413,59.604c-2.281,1.36-7.627,3.454-14.835,5.033c-20.483,4.489-32.895-1.697-35.361-12.951
		c-2.954-13.48,9.818-24.142,27.752-28.073c6.945-1.521,12.426-1.74,14.979-1.44l-1.172,7.689c-2.892-0.164-6.826-0.04-11.573,1.001
		c-10.637,2.331-17.963,8.421-16.037,17.212c1.735,7.913,9.859,11.353,21.815,8.733c4.043-0.886,8.398-2.455,10.882-3.736
		L-835.413,59.604z"/>
	<path fill="#FFFFFF" d="M-811.556,21.028l-1.388,15.478l22.5,2.021l1.388-15.478l13.627,1.225l-3.611,40.279l-13.627-1.225
		l1.512-16.852l-22.501-2.022l-1.512,16.853l-13.715-1.232l3.612-40.279L-811.556,21.028z"/>
	<path fill="#FFFFFF" d="M-753.171,63.19l-8.114,7.782l-13.031-5.693l33.181-29.634l16.495,7.206l1.047,44.586l-13.526-5.909
		l-0.133-11.385L-753.171,63.19z M-736.328,63.083l-0.029-9.375c-0.029-2.631,0.182-5.813,0.317-8.372l-0.164-0.072
		c-1.786,1.838-3.836,4.282-5.68,6.03l-6.734,6.42L-736.328,63.083z"/>
	<path fill="#FFFFFF" d="M-684.47,68.042l-24.004,32.544l-11.082-8.173l24.003-32.543L-684.47,68.042z"/>
	<path fill="#FFFFFF" d="M-699.954,105.651l30.842-26.157l10.362,12.219l-3.153,19.196c-0.92,5.501-2.435,11.508-4.166,16.516
		l0.175,0.207c3.49-4.141,7.48-7.878,12.101-11.798l9.016-7.645l8.15,9.61l-30.843,26.157l-9.314-10.983l3.515-19.976
		c0.967-5.54,2.386-11.938,4.08-17.269l-0.221-0.167c-3.84,3.729-8.07,7.553-13.104,11.821l-9.289,7.879L-699.954,105.651z"/>
</g>
<g>
	
		<line fill="none" stroke="#FFFFFF" stroke-width="14" stroke-linecap="round" stroke-miterlimit="10" x1="-956.87" y1="271.553" x2="-1035.901" y2="271.553"/>
	<circle fill="none" stroke="#FFFFFF" stroke-width="14" stroke-miterlimit="10" cx="-1049.901" cy="271.553" r="13"/>
</g>
<g>
	
		<line fill="none" stroke="#FFFFFF" stroke-width="14" stroke-linecap="round" stroke-miterlimit="10" x1="-957.772" y1="223.823" x2="-1036.806" y2="223.823"/>
	<circle fill="none" stroke="#FFFFFF" stroke-width="14" stroke-miterlimit="10" cx="-1050.806" cy="223.823" r="13"/>
</g>
<g>
	
		<line fill="none" stroke="#FFFFFF" stroke-width="14" stroke-linecap="round" stroke-miterlimit="10" x1="-957.772" y1="319.939" x2="-1036.806" y2="319.939"/>
	<circle fill="none" stroke="#FFFFFF" stroke-width="14" stroke-miterlimit="10" cx="-1050.806" cy="319.939" r="13"/>
</g>
<line fill="none" stroke="#FFFFFF" stroke-width="14" stroke-linecap="round" stroke-miterlimit="10" x1="-682.228" y1="271.225" x2="-603.194" y2="271.225"/>
<line fill="none" stroke="#FFFFFF" stroke-width="14" stroke-linecap="round" stroke-miterlimit="10" x1="-682.228" y1="223.495" x2="-603.194" y2="223.495"/>
<line fill="none" stroke="#FFFFFF" stroke-width="14" stroke-linecap="round" stroke-miterlimit="10" x1="-682.228" y1="319.611" x2="-603.194" y2="319.611"/>
<g>
	<path fill="none" stroke="#FFFFFF" stroke-width="14.8492" stroke-linecap="round" stroke-miterlimit="10" d="M-969.999,411.795
		c82.908,82.91,217.09,82.91,300,0"/>
	
		<circle fill="none" stroke="#FFFFFF" stroke-width="18.5618" stroke-linecap="round" stroke-miterlimit="10" cx="-821.886" cy="473.976" r="15.91"/>
	<path fill="none" stroke="#FFFFFF" stroke-width="18.5615" stroke-linecap="round" stroke-miterlimit="10" d="M-717.226,455.568
		c0,8.79-7.123,15.908-15.91,15.908c-8.789,0-15.91-7.118-15.91-15.908c0-8.783,7.121-15.908,15.91-15.908
		C-724.349,439.66-717.226,446.785-717.226,455.568z"/>
	
		<circle fill="none" stroke="#FFFFFF" stroke-width="18.5615" stroke-linecap="round" stroke-miterlimit="10" cx="-907.925" cy="455.57" r="15.91"/>
</g>
<circle fill="none" stroke="#99D8DF" stroke-width="14" stroke-miterlimit="10" cx="-48.268" cy="271.544" r="13"/>
<circle fill="none" stroke="#99D8DF" stroke-width="14" stroke-miterlimit="10" cx="-48.268" cy="223.814" r="13"/>
<circle fill="none" stroke="#99D8DF" stroke-width="14" stroke-miterlimit="10" cx="-48.268" cy="319.932" r="13"/>
<g>
	<g>
		<circle fill="none" stroke="#99D8DF" stroke-width="14" stroke-miterlimit="10" cx="-267.73" cy="163.96" r="31.451"/>
		<polyline fill="none" stroke="#99D8DF" stroke-width="14" stroke-miterlimit="10" points="-270.852,252.479 -335.012,223.483 
			-274.355,196.08 		"/>
		<polyline fill="none" stroke="#99D8DF" stroke-width="14" stroke-miterlimit="10" points="-197.176,178.376 -213.371,224.142 
			-266.879,198.795 		"/>
		<polyline fill="none" stroke="#99D8DF" stroke-width="14" stroke-miterlimit="10" points="-373.969,318.646 -347.357,292.84 
			-308.646,333.969 -268.068,193.309 		"/>
		<polyline fill="none" stroke="#99D8DF" stroke-width="14" stroke-miterlimit="10" points="-257.84,389.614 -298.453,389.614 
			-268.068,330.743 -298.453,298.634 		"/>
		<circle fill="#99D8DF" cx="-267.852" cy="253.479" r="13"/>
	</g>
	<circle fill="#99D8DF" cx="-197.176" cy="178.376" r="13"/>
</g>
<g>
	<path fill="#223843" d="M-457.637,112.511l23.952-28.303l5.726,4.845l-15.057,17.792l7.053,5.97l14.069-16.624l5.68,4.807
		l-14.069,16.624l12.413,10.505l-8.896,10.51L-457.637,112.511z"/>
	<path fill="#223843" d="M-410.426,65.104l25.273,31.572l-10.751,8.604l-25.272-31.572L-410.426,65.104z"/>
	<path fill="#223843" d="M-381.995,55.771l-14.487,7.448l-3.511-6.83l41.46-21.316l3.511,6.83l-14.728,7.571l14.977,29.135
		l-12.246,6.296L-381.995,55.771z"/>
	<path fill="#223843" d="M-294.486,59.924c-2.281,1.36-7.627,3.454-14.835,5.033c-20.483,4.489-32.895-1.697-35.361-12.951
		c-2.954-13.48,9.818-24.142,27.752-28.073c6.945-1.521,12.426-1.74,14.979-1.44l-1.172,7.689c-2.892-0.164-6.826-0.04-11.573,1.001
		c-10.637,2.331-17.963,8.421-16.037,17.212c1.735,7.913,9.859,11.353,21.815,8.733c4.043-0.886,8.398-2.455,10.882-3.736
		L-294.486,59.924z"/>
	<path fill="#223843" d="M-270.629,21.348l-1.388,15.478l22.5,2.021l1.388-15.478l13.627,1.225l-3.611,40.279l-13.627-1.225
		l1.512-16.852l-22.501-2.022l-1.512,16.853l-13.715-1.232l3.612-40.279L-270.629,21.348z"/>
	<path fill="#223843" d="M-212.244,63.51l-8.114,7.782l-13.031-5.693l33.181-29.634l16.495,7.206l1.047,44.586l-13.526-5.909
		l-0.133-11.385L-212.244,63.51z M-195.401,63.403l-0.029-9.375c-0.029-2.631,0.182-5.813,0.317-8.372l-0.164-0.072
		c-1.786,1.838-3.836,4.282-5.68,6.03l-6.734,6.42L-195.401,63.403z"/>
	<path fill="#223843" d="M-143.543,68.362l-24.004,32.544l-11.082-8.173l24.003-32.543L-143.543,68.362z"/>
	<path fill="#223843" d="M-159.027,105.971l30.842-26.157l10.362,12.219l-3.153,19.196c-0.92,5.501-2.435,11.508-4.166,16.516
		l0.175,0.207c3.49-4.141,7.48-7.878,12.101-11.798l9.016-7.645l8.15,9.61l-30.843,26.157l-9.314-10.983l3.515-19.976
		c0.967-5.54,2.386-11.938,4.08-17.269l-0.221-0.167c-3.84,3.729-8.07,7.553-13.104,11.821l-9.289,7.879L-159.027,105.971z"/>
</g>
<g>
	
		<line fill="none" stroke="#99D8DF" stroke-width="14" stroke-linecap="round" stroke-miterlimit="10" x1="-415.943" y1="271.873" x2="-494.975" y2="271.873"/>
	<circle fill="none" stroke="#99D8DF" stroke-width="14" stroke-miterlimit="10" cx="-508.975" cy="271.873" r="13"/>
</g>
<g>
	
		<line fill="none" stroke="#99D8DF" stroke-width="14" stroke-linecap="round" stroke-miterlimit="10" x1="-416.846" y1="224.142" x2="-495.879" y2="224.142"/>
	<circle fill="none" stroke="#99D8DF" stroke-width="14" stroke-miterlimit="10" cx="-509.879" cy="224.142" r="13"/>
</g>
<g>
	
		<line fill="none" stroke="#99D8DF" stroke-width="14" stroke-linecap="round" stroke-miterlimit="10" x1="-416.846" y1="320.259" x2="-495.879" y2="320.259"/>
	<circle fill="none" stroke="#99D8DF" stroke-width="14" stroke-miterlimit="10" cx="-509.879" cy="320.259" r="13"/>
</g>
<line fill="none" stroke="#99D8DF" stroke-width="14" stroke-linecap="round" stroke-miterlimit="10" x1="-141.301" y1="271.544" x2="-62.268" y2="271.544"/>
<line fill="none" stroke="#99D8DF" stroke-width="14" stroke-linecap="round" stroke-miterlimit="10" x1="-141.301" y1="223.814" x2="-62.268" y2="223.814"/>
<line fill="none" stroke="#99D8DF" stroke-width="14" stroke-linecap="round" stroke-miterlimit="10" x1="-141.301" y1="319.932" x2="-62.268" y2="319.932"/>
<g>
	<path fill="none" stroke="#223843" stroke-width="14.8492" stroke-linecap="round" stroke-miterlimit="10" d="M-429.072,412.114
		c82.908,82.91,217.09,82.91,300,0"/>
	
		<circle fill="none" stroke="#223843" stroke-width="18.5618" stroke-linecap="round" stroke-miterlimit="10" cx="-280.959" cy="474.295" r="15.91"/>
	<path fill="none" stroke="#223843" stroke-width="18.5615" stroke-linecap="round" stroke-miterlimit="10" d="M-176.299,455.888
		c0,8.79-7.123,15.909-15.91,15.909c-8.789,0-15.91-7.119-15.91-15.909c0-8.782,7.121-15.907,15.91-15.907
		C-183.422,439.979-176.299,447.104-176.299,455.888z"/>
	
		<circle fill="none" stroke="#223843" stroke-width="18.5615" stroke-linecap="round" stroke-miterlimit="10" cx="-366.998" cy="455.89" r="15.91"/>
</g>
<circle fill="none" stroke="#223843" stroke-width="14" stroke-miterlimit="10" cx="33.63" cy="897.521" r="13"/>
<circle fill="none" stroke="#223843" stroke-width="14" stroke-miterlimit="10" cx="33.63" cy="849.79" r="13"/>
<circle fill="none" stroke="#223843" stroke-width="14" stroke-miterlimit="10" cx="33.63" cy="945.909" r="13"/>
<g>
	<g>
		<circle fill="none" stroke="#223843" stroke-width="14" stroke-miterlimit="10" cx="-185.833" cy="789.938" r="31.451"/>
		<polyline fill="none" stroke="#223843" stroke-width="14" stroke-miterlimit="10" points="-188.953,878.456 -253.114,849.46 
			-192.458,822.057 		"/>
		<polyline fill="none" stroke="#223843" stroke-width="14" stroke-miterlimit="10" points="-115.279,804.354 -131.474,850.12 
			-184.982,824.772 		"/>
		<polyline fill="none" stroke="#223843" stroke-width="14" stroke-miterlimit="10" points="-292.072,944.622 -265.46,918.817 
			-226.749,959.946 -186.171,819.286 		"/>
		<polyline fill="none" stroke="#223843" stroke-width="14" stroke-miterlimit="10" points="-175.943,1015.591 -216.556,1015.591 
			-186.171,956.72 -216.556,924.612 		"/>
		<circle fill="#223843" cx="-185.953" cy="879.456" r="13"/>
	</g>
	<circle fill="#223843" cx="-115.279" cy="804.354" r="13"/>
</g>
<g>
	<path fill="#223843" d="M-398.826,749.355l27.007-31.913l6.456,5.463l-16.978,20.062l7.952,6.731l15.864-18.746l6.404,5.42
		l-15.864,18.744l13.997,11.846l-10.03,11.851L-398.826,749.355z"/>
	<path fill="#223843" d="M-345.593,695.901l28.498,35.6l-12.123,9.703l-28.496-35.601L-345.593,695.901z"/>
	<path fill="#223843" d="M-313.535,685.376l-16.335,8.398l-3.959-7.701l46.749-24.035l3.959,7.701l-16.606,8.537l16.888,32.852
		l-13.809,7.1L-313.535,685.376z"/>
	<path fill="#223843" d="M-214.863,690.06c-2.572,1.534-8.6,3.895-16.728,5.676c-23.097,5.061-37.091-1.914-39.872-14.605
		c-3.331-15.199,11.07-27.221,31.292-31.653c7.832-1.715,14.012-1.961,16.891-1.624l-1.321,8.67
		c-3.261-0.186-7.697-0.044-13.05,1.129c-11.993,2.629-20.254,9.495-18.083,19.408c1.957,8.922,11.117,12.801,24.599,9.848
		c4.559-1,9.47-2.769,12.271-4.213L-214.863,690.06z"/>
	<path fill="#223843" d="M-187.961,646.562l-1.564,17.453l25.371,2.279l1.563-17.453l15.366,1.381l-4.072,45.417l-15.365-1.381
		l1.704-19.003l-25.37-2.279l-1.705,19.002l-15.465-1.391l4.073-45.416L-187.961,646.562z"/>
	<path fill="#223843" d="M-122.128,694.103l-9.148,8.773l-14.693-6.418l37.414-33.416l18.599,8.125l1.182,50.275l-15.252-6.664
		l-0.149-12.836L-122.128,694.103z M-103.136,693.982l-0.033-10.571c-0.033-2.967,0.204-6.555,0.357-9.439l-0.186-0.082
		c-2.015,2.072-4.325,4.828-6.403,6.799l-7.595,7.239L-103.136,693.982z"/>
	<path fill="#223843" d="M-44.662,699.575l-27.065,36.695l-12.495-9.216l27.063-36.694L-44.662,699.575z"/>
	<path fill="#223843" d="M-62.122,741.98l34.776-29.493l11.685,13.777l-3.556,21.646c-1.037,6.203-2.745,12.976-4.697,18.623
		l0.197,0.232c3.936-4.669,8.435-8.883,13.645-13.303l10.165-8.62l9.19,10.836l-34.777,29.494l-10.503-12.384l3.963-22.524
		c1.092-6.247,2.69-13.46,4.602-19.472l-0.249-0.188c-4.329,4.204-9.1,8.517-14.774,13.329l-10.475,8.885L-62.122,741.98z"/>
</g>
<g>
	
		<line fill="none" stroke="#223843" stroke-width="14" stroke-linecap="round" stroke-miterlimit="10" x1="-334.046" y1="897.849" x2="-413.077" y2="897.849"/>
	<circle fill="none" stroke="#223843" stroke-width="14" stroke-miterlimit="10" cx="-427.077" cy="897.849" r="13"/>
</g>
<g>
	
		<line fill="none" stroke="#223843" stroke-width="14" stroke-linecap="round" stroke-miterlimit="10" x1="-334.948" y1="850.12" x2="-413.982" y2="850.12"/>
	<circle fill="none" stroke="#223843" stroke-width="14" stroke-miterlimit="10" cx="-427.982" cy="850.12" r="13"/>
</g>
<g>
	
		<line fill="none" stroke="#223843" stroke-width="14" stroke-linecap="round" stroke-miterlimit="10" x1="-334.948" y1="946.237" x2="-413.982" y2="946.237"/>
	<circle fill="none" stroke="#223843" stroke-width="14" stroke-miterlimit="10" cx="-427.982" cy="946.237" r="13"/>
</g>
<line fill="none" stroke="#223843" stroke-width="14" stroke-linecap="round" stroke-miterlimit="10" x1="-59.404" y1="897.521" x2="19.63" y2="897.521"/>
<line fill="none" stroke="#223843" stroke-width="14" stroke-linecap="round" stroke-miterlimit="10" x1="-59.404" y1="849.79" x2="19.63" y2="849.79"/>
<line fill="none" stroke="#223843" stroke-width="14" stroke-linecap="round" stroke-miterlimit="10" x1="-59.404" y1="945.909" x2="19.63" y2="945.909"/>
<g>
	<path fill="none" stroke="#223843" stroke-width="17.1139" stroke-linecap="round" stroke-miterlimit="10" d="M-370.052,1033.136
		c95.553,95.555,250.199,95.555,345.754,0"/>
	<path fill="none" stroke="#223843" stroke-width="21.3927" stroke-linecap="round" stroke-miterlimit="10" d="M-181.013,1104.8
		c0,10.131-8.209,18.336-18.337,18.336c-10.129,0-18.336-8.205-18.336-18.336c0-10.127,8.207-18.334,18.336-18.334
		C-189.222,1086.464-181.013,1094.673-181.013,1104.8z"/>
	<path fill="none" stroke="#223843" stroke-width="21.3924" stroke-linecap="round" stroke-miterlimit="10" d="M-78.728,1083.585
		c0,10.131-8.209,18.336-18.336,18.336c-10.13,0-18.337-8.205-18.337-18.336c0-10.123,8.207-18.334,18.337-18.334
		C-86.937,1065.251-78.728,1073.464-78.728,1083.585z"/>
	<path fill="none" stroke="#223843" stroke-width="21.3924" stroke-linecap="round" stroke-miterlimit="10" d="M-280.174,1083.589
		c0,10.127-8.207,18.334-18.337,18.334c-10.129,0-18.336-8.207-18.336-18.334c0-10.131,8.207-18.338,18.336-18.338
		C-288.381,1065.251-280.174,1073.458-280.174,1083.589z"/>
</g>
<g>
	<line fill="none" stroke="#223843" stroke-width="10" stroke-miterlimit="10" x1="924" y1="266.705" x2="949" y2="266.705"/>
	<g>
		<path fill="none" stroke="#223843" stroke-width="10" stroke-miterlimit="10" d="M750,314.939c0,14.524-11.193,26.3-25,26.3l0,0
			c-13.807,0-25-11.774-25-26.3v-97.401c0-14.524,11.193-26.299,25-26.299l0,0c13.807,0,25,11.774,25,26.299V314.939z"/>
		<path fill="none" stroke="#223843" stroke-width="10" stroke-miterlimit="10" d="M900,313.939c0,14.524-11.193,26.3-25,26.3l0,0
			c-13.807,0-25-11.774-25-26.3v-97.401c0-14.524,11.193-26.299,25-26.299l0,0c13.807,0,25,11.774,25,26.299V313.939z"/>
		<path fill="#213843" stroke="#223843" stroke-width="10" stroke-miterlimit="10" d="M895,243.545c13.808,0,25,11.193,25,25
			c0,13.809-11.192,25-25,25"/>
		<path fill="#213843" stroke="#223843" stroke-width="10" stroke-miterlimit="10" d="M704,290.239c-13.808,0-25-11.193-25-25
			c0-13.807,11.192-25,25-25"/>
		<line fill="none" stroke="#223843" stroke-width="10" stroke-miterlimit="10" x1="750" y1="266.705" x2="850" y2="266.705"/>
		<line fill="none" stroke="#223843" stroke-width="10" stroke-miterlimit="10" x1="650" y1="265.238" x2="675" y2="265.238"/>
	</g>
</g>
<circle fill="none" stroke="#FFFFFF" stroke-width="10" stroke-miterlimit="10" cx="490.807" cy="276.384" r="13"/>
<circle fill="none" stroke="#FFFFFF" stroke-width="10" stroke-miterlimit="10" cx="490.807" cy="228.654" r="13"/>
<circle fill="none" stroke="#FFFFFF" stroke-width="10" stroke-miterlimit="10" cx="490.807" cy="324.771" r="13"/>
<g>
	<g>
		<circle fill="none" stroke="#FFFFFF" stroke-width="10" stroke-miterlimit="10" cx="271.343" cy="168.8" r="31.451"/>
		<polyline fill="none" stroke="#FFFFFF" stroke-width="10" stroke-miterlimit="10" points="268.223,257.319 204.062,228.323 
			264.718,200.919 		"/>
		<polyline fill="none" stroke="#FFFFFF" stroke-width="10" stroke-miterlimit="10" points="341.896,183.216 325.702,228.982 
			272.193,203.636 		"/>
		<polyline fill="none" stroke="#FFFFFF" stroke-width="10" stroke-miterlimit="10" points="165.104,323.486 191.716,297.681 
			230.427,338.81 271.005,198.149 		"/>
		<polyline fill="none" stroke="#FFFFFF" stroke-width="10" stroke-miterlimit="10" points="281.232,394.454 240.62,394.454 
			271.005,335.582 240.62,303.474 		"/>
		<circle fill="#FFFFFF" cx="271.223" cy="258.319" r="13"/>
	</g>
	<circle fill="#FFFFFF" cx="341.896" cy="183.216" r="13"/>
</g>
<g>
	<path fill="#FFFFFF" d="M81.438,117.351l23.951-28.303l5.727,4.844l-15.057,17.793l7.053,5.97l14.068-16.624l5.68,4.807
		l-14.068,16.624l12.413,10.505l-8.896,10.51L81.438,117.351z"/>
	<path fill="#FFFFFF" d="M128.646,69.944l25.273,31.572l-10.751,8.604l-25.272-31.572L128.646,69.944z"/>
	<path fill="#FFFFFF" d="M157.078,60.611l-14.487,7.448l-3.511-6.83l41.46-21.316l3.511,6.83l-14.728,7.571L184.3,83.449
		l-12.245,6.296L157.078,60.611z"/>
	<path fill="#FFFFFF" d="M244.587,64.763c-2.28,1.36-7.627,3.455-14.835,5.033c-20.482,4.489-32.895-1.697-35.361-12.951
		c-2.953-13.479,9.818-24.142,27.752-28.073c6.945-1.521,12.426-1.74,14.979-1.44l-1.172,7.689
		c-2.892-0.164-6.826-0.04-11.573,1.001c-10.637,2.331-17.963,8.421-16.037,17.212c1.735,7.913,9.859,11.353,21.814,8.733
		c4.044-0.887,8.398-2.455,10.883-3.736L244.587,64.763z"/>
	<path fill="#FFFFFF" d="M268.443,26.187l-1.387,15.478l22.5,2.021l1.387-15.478l13.627,1.225l-3.61,40.279l-13.627-1.225
		l1.512-16.852l-22.501-2.022l-1.512,16.853l-13.715-1.231l3.611-40.279L268.443,26.187z"/>
	<path fill="#FFFFFF" d="M326.829,68.349l-8.114,7.783l-13.031-5.693l33.182-29.634l16.494,7.206l1.048,44.586l-13.526-5.91
		l-0.133-11.385L326.829,68.349z M343.672,68.242l-0.029-9.375c-0.028-2.631,0.183-5.813,0.317-8.372l-0.164-0.072
		c-1.786,1.838-3.836,4.282-5.68,6.03l-6.734,6.42L343.672,68.242z"/>
	<path fill="#FFFFFF" d="M395.53,73.201l-24.005,32.544l-11.082-8.173l24.004-32.543L395.53,73.201z"/>
	<path fill="#FFFFFF" d="M380.046,110.81l30.843-26.156l10.361,12.219l-3.152,19.196c-0.921,5.501-2.436,11.508-4.166,16.516
		l0.174,0.207c3.49-4.141,7.48-7.878,12.102-11.798l9.016-7.645l8.15,9.609l-30.844,26.157l-9.313-10.983l3.515-19.976
		c0.967-5.54,2.387-11.938,4.08-17.269l-0.221-0.168c-3.84,3.729-8.07,7.554-13.104,11.821l-9.289,7.879L380.046,110.81z"/>
</g>
<g>
	
		<line fill="none" stroke="#FFFFFF" stroke-width="10" stroke-linecap="round" stroke-miterlimit="10" x1="123.13" y1="276.712" x2="44.1" y2="276.712"/>
	<circle fill="none" stroke="#FFFFFF" stroke-width="10" stroke-miterlimit="10" cx="30.099" cy="276.712" r="13"/>
</g>
<g>
	
		<line fill="none" stroke="#FFFFFF" stroke-width="10" stroke-linecap="round" stroke-miterlimit="10" x1="122.229" y1="228.982" x2="43.193" y2="228.982"/>
	<circle fill="none" stroke="#FFFFFF" stroke-width="10" stroke-miterlimit="10" cx="29.194" cy="228.982" r="13"/>
</g>
<g>
	
		<line fill="none" stroke="#FFFFFF" stroke-width="10" stroke-linecap="round" stroke-miterlimit="10" x1="122.229" y1="325.099" x2="43.193" y2="325.099"/>
	<circle fill="none" stroke="#FFFFFF" stroke-width="10" stroke-miterlimit="10" cx="29.194" cy="325.099" r="13"/>
</g>
<line fill="none" stroke="#FFFFFF" stroke-width="10" stroke-linecap="round" stroke-miterlimit="10" x1="397.771" y1="276.384" x2="476.807" y2="276.384"/>
<line fill="none" stroke="#FFFFFF" stroke-width="10" stroke-linecap="round" stroke-miterlimit="10" x1="397.771" y1="228.654" x2="476.807" y2="228.654"/>
<line fill="none" stroke="#FFFFFF" stroke-width="10" stroke-linecap="round" stroke-miterlimit="10" x1="397.771" y1="324.771" x2="476.807" y2="324.771"/>
<g>
	<path fill="none" stroke="#FFFFFF" stroke-width="10" stroke-linecap="round" stroke-miterlimit="10" d="M110.001,416.954
		c82.908,82.91,217.09,82.91,300,0"/>
	
		<circle fill="#FFFFFF" stroke="#FFFFFF" stroke-width="10" stroke-linecap="round" stroke-miterlimit="10" cx="258.114" cy="479.135" r="15.91"/>
	<path fill="#FFFFFF" stroke="#FFFFFF" stroke-width="10" stroke-linecap="round" stroke-miterlimit="10" d="M362.773,460.728
		c0,8.79-7.123,15.908-15.909,15.908c-8.789,0-15.91-7.118-15.91-15.908c0-8.783,7.121-15.908,15.91-15.908
		C355.65,444.819,362.773,451.944,362.773,460.728z"/>
	
		<circle fill="#FFFFFF" stroke="#FFFFFF" stroke-width="10" stroke-linecap="round" stroke-miterlimit="10" cx="172.075" cy="460.729" r="15.91"/>
</g>
</svg>
